<mxfile host="app.diagrams.net" modified="2021-01-01T01:34:55.077Z" agent="5.0 (X11)" etag="HABIRWLRDIRVdNZK1T70" version="14.1.4" type="github" pages="4">
  <diagram id="2qlPz0oIHZYJ6O46Pn4S" name="Page-1">
    <mxGraphModel dx="1350" dy="1204" grid="0" gridSize="10" guides="0" tooltips="1" connect="0" arrows="0" fold="1" page="0" pageScale="1" pageWidth="850" pageHeight="1100" background="#000000" math="0" shadow="0">
      <root>
        <mxCell id="0" />
        <mxCell id="1" style="locked=1;" parent="0" visible="0" />
        <mxCell id="ppncYABJLe93gj94P2A9-1" value="" style="shape=image;imageAspect=0;aspect=fixed;verticalLabelPosition=bottom;verticalAlign=top;image=data:image/png,iVBORw0KGgoAAAANSUhEUgAAASEAAAOlCAIAAACtwcarAAAAiXpUWHRSYXcgcHJvZmlsZSB0eXBlIGV4aWYAAHjaVY7LDYBACETvVGEJ/BaWcoxxEzuwfNlPNL7DzEDIBDjvq8HWIVTQ4tXCDBMNDd4zVJwIIjFS99TJcqFMnOOaQXgGi+qo36Eq/ihi1ZqruxU77OBs51NkKAnCuOpl/ZX4iphWkv9+L+O/F3gA97ktEGv7IVcAAAoGaVRYdFhNTDpjb20uYWRvYmUueG1wAAAAAAA8P3hwYWNrZXQgYmVnaW49Iu+7vyIgaWQ9Ilc1TTBNcENlaGlIenJlU3pOVGN6a2M5ZCI/Pgo8eDp4bXBtZXRhIHhtbG5zOng9ImFkb2JlOm5zOm1ldGEvIiB4OnhtcHRrPSJYTVAgQ29yZSA0LjQuMC1FeGl2MiI+CiA8cmRmOlJERiB4bWxuczpyZGY9Imh0dHA6Ly93d3cudzMub3JnLzE5OTkvMDIvMjItcmRmLXN5bnRheC1ucyMiPgogIDxyZGY6RGVzY3JpcHRpb24gcmRmOmFib3V0PSIiCiAgICB4bWxuczpleGlmPSJodHRwOi8vbnMuYWRvYmUuY29tL2V4aWYvMS4wLyIKICAgIHhtbG5zOnRpZmY9Imh0dHA6Ly9ucy5hZG9iZS5jb20vdGlmZi8xLjAvIgogICBleGlmOlBpeGVsWERpbWVuc2lvbj0iMjg5IgogICBleGlmOlBpeGVsWURpbWVuc2lvbj0iOTMzIgogICB0aWZmOkltYWdlV2lkdGg9IjI4OSIKICAgdGlmZjpJbWFnZUhlaWdodD0iOTMzIgogICB0aWZmOk9yaWVudGF0aW9uPSIxIi8+CiA8L3JkZjpSREY+CjwveDp4bXBtZXRhPgogICAgICAgICAgICAgICAgICAgICAgICAgICAgICAgICAgICAgICAgICAgICAgICAgICAgICAgICAgICAgICAgICAgICAgICAgICAgICAgICAgICAgICAgICAgICAgICAgICAgCiAgICAgICAgICAgICAgICAgICAgICAgICAgICAgICAgICAgICAgICAgICAgICAgICAgICAgICAgICAgICAgICAgICAgICAgICAgICAgICAgICAgICAgICAgICAgICAgICAgICAKICAgICAgICAgICAgICAgICAgICAgICAgICAgICAgICAgICAgICAgICAgICAgICAgICAgICAgICAgICAgICAgICAgICAgICAgICAgICAgICAgICAgICAgICAgICAgICAgICAgIAogICAgICAgICAgICAgICAgICAgICAgICAgICAgICAgICAgICAgICAgICAgICAgICAgICAgICAgICAgICAgICAgICAgICAgICAgICAgICAgICAgICAgICAgICAgICAgICAgICAgCiAgICAgICAgICAgICAgICAgICAgICAgICAgICAgICAgICAgICAgICAgICAgICAgICAgICAgICAgICAgICAgICAgICAgICAgICAgICAgICAgICAgICAgICAgICAgICAgICAgICAKICAgICAgICAgICAgICAgICAgICAgICAgICAgICAgICAgICAgICAgICAgICAgICAgICAgICAgICAgICAgICAgICAgICAgICAgICAgICAgICAgICAgICAgICAgICAgICAgICAgIAogICAgICAgICAgICAgICAgICAgICAgICAgICAgICAgICAgICAgICAgICAgICAgICAgICAgICAgICAgICAgICAgICAgICAgICAgICAgICAgICAgICAgICAgICAgICAgICAgICAgCiAgICAgICAgICAgICAgICAgICAgICAgICAgICAgICAgICAgICAgICAgICAgICAgICAgICAgICAgICAgICAgICAgICAgICAgICAgICAgICAgICAgICAgICAgICAgICAgICAgICAKICAgICAgICAgICAgICAgICAgICAgICAgICAgICAgICAgICAgICAgICAgICAgICAgICAgICAgICAgICAgICAgICAgICAgICAgICAgICAgICAgICAgICAgICAgICAgICAgICAgIAogICAgICAgICAgICAgICAgICAgICAgICAgICAgICAgICAgICAgICAgICAgICAgICAgICAgICAgICAgICAgICAgICAgICAgICAgICAgICAgICAgICAgICAgICAgICAgICAgICAgCiAgICAgICAgICAgICAgICAgICAgICAgICAgICAgICAgICAgICAgICAgICAgICAgICAgICAgICAgICAgICAgICAgICAgICAgICAgICAgICAgICAgICAgICAgICAgICAgICAgICAKICAgICAgICAgICAgICAgICAgICAgICAgICAgICAgICAgICAgICAgICAgICAgICAgICAgICAgICAgICAgICAgICAgICAgICAgICAgICAgICAgICAgICAgICAgICAgICAgICAgIAogICAgICAgICAgICAgICAgICAgICAgICAgICAgICAgICAgICAgICAgICAgICAgICAgICAgICAgICAgICAgICAgICAgICAgICAgICAgICAgICAgICAgICAgICAgICAgICAgICAgCiAgICAgICAgICAgICAgICAgICAgICAgICAgICAgICAgICAgICAgICAgICAgICAgICAgICAgICAgICAgICAgICAgICAgICAgICAgICAgICAgICAgICAgICAgICAgICAgICAgICAKICAgICAgICAgICAgICAgICAgICAgICAgICAgICAgICAgICAgICAgICAgICAgICAgICAgICAgICAgICAgICAgICAgICAgICAgICAgICAgICAgICAgICAgICAgICAgICAgICAgIAogICAgICAgICAgICAgICAgICAgICAgICAgICAgICAgICAgICAgICAgICAgICAgICAgICAgICAgICAgICAgICAgICAgICAgICAgICAgICAgICAgICAgICAgICAgICAgICAgICAgCiAgICAgICAgICAgICAgICAgICAgICAgICAgICAgICAgICAgICAgICAgICAgICAgICAgICAgICAgICAgICAgICAgICAgICAgICAgICAgICAgICAgICAgICAgICAgICAgICAgICAKICAgICAgICAgICAgICAgICAgICAgICAgICAgICAgICAgICAgICAgICAgICAgICAgICAgICAgICAgICAgICAgICAgICAgICAgICAgICAgICAgICAgICAgICAgICAgICAgICAgIAogICAgICAgICAgICAgICAgICAgICAgICAgICAgICAgICAgICAgICAgICAgICAgICAgICAgICAgICAgICAgICAgICAgICAgICAgICAgICAgICAgICAgICAgICAgICAgICAgICAgCiAgICAgICAgICAgICAgICAgICAgICAgICAgICAgICAgICAgICAgICAgICAgICAgICAgICAgICAgICAgICAgICAgICAgICAgICAgICAgICAgICAgICAgICAgICAgICAgICAgICAKICAgICAgICAgICAgICAgICAgICAgICAgICAgCjw/eHBhY2tldCBlbmQ9InciPz5IQlWQAAAAA3NCSVQICAjb4U/gAAAgAElEQVR42uzdeXxU1f3/8c85595Zsy8kJCTsm+wgIIp7tSjqT1BQWRTc0LbuW6vVWqviilKttbXVuosLxRVFtCiiAgKyKISdBEjIvsxMZubec87vjwv5RkQlK5Pk/Xz48IEJmOHOfc0598yde5nWmgCgxXBsAgA0BoDGAACNARwRRiv/PCml1pox1obWWpxHyznnHC9J0PD9B+uKAO1kHHOGr8cff3xn/q54n18q1SY2kCZtCqOsouLUU06ZOHGiUgqjGcR0YwsXLhw9YEjfXv1UsJZx1uxBUHP/L5VUZpLvvbfe/vyLpWgMYroxxhgRZWdlXzrtkm7DB7TcuNPMmWkiRq4obdi9HbsLxHRjDtuyysrLcsNSVwWaa0DQWnPTJI+bQrWU4KfqIEmlm6k0KW2WnlBZVSWlxO4CbaAxIhJCcCFICGqWxrRiHk/xnr1vLHjL7XJLKS+dOs30+pgtiTVDZ4KICYH5ITRa2991GLds67a778jJ6jJh+oXbd+687S93k89NWC8FNNYs00RymYF9pStWrx501FGpqamTJ0xYu34dRe1mGcQAMI4RhSPJ3boM6NP3oitnVhYWf7r084lnnUMeE+/7ARprlokiI8aoNvrCcy9kpKf36NfXsqK/vfVGqggwHEEBGmtG1dVVx44eM23yBc+++tLyxZ9RnIfayHvcgMZi/ohMKUr0zH5wdkZap78+8/RZp53x5wfuJ8PAUwsxIgb2Ra1J6/2zvkb8aSJGVFpeHg6Hw1a0R7duSrXSG1lKKSLCsj7E9jimiVwmxceR20WNaoNzToHovX/8U3llxev/ekHa1r1/uJNqI62wruicia+1xvoKxOo4phQl+ua/Om/F6pXXX3N9Ztdcqgw0eEBjjCJW1569br/9rmhlhSs1lcLRFl27d0683LNnz+zZsy+88MKxY8c6YxoGNIi5cUxKKYVevfZbzsT/Fn/y/vz/ks9LnDd4uYIxCocpFHL5/VQTINsi1qKvDEpKWVRUtGvXrpKSkqeffrqsrIxzjpOtIMYa01r4/YKLeL9/5LARF82a6TZd/33zNSkYJcU1+CwNxolzkoo4b+lZohBCCJGcnNypU6cJEyb8+te/fv/993ft2iWEwP4EMTNX1Jpc5vdr12wtK9ywaeOewr0iyednxpbtO6ZdMu36a64bPeoYikRj8FwNxlh5efmyZcu2b9++Y8eOBQsWeL1ezvmtt9567LHHXn311aZpMpxiAjHRmMf1+dfLXpz/5r69ew3TXL9lk4xYcXFxodra995/b/TI0TE67nO+b9++uXPnVlZW7tmz5/HHH1dKuVwuwzA+/vjjCRMm5ObmOgds2LfgiDbGOVXWXDXrd1fddP0/H30iOytz/EWTyCZyZlthTaFQbJ5wKKXs37//4sWLd+/e/de//vWhhx465FiHHQuOdGMHFip0mGZOncoY06WBumMw1vLHVE0vLTMz85577qm/zsEYw9IixFJjRMQ5IzLd3v2zx7bDWd4wcDYJHM5ufuQfgnOeRxuEt56hjTTWZuG4C9AYABoDQGMAgMYA0BgAGgOAltDa1+JmjHHOiBNxTqINFM60dh523ePHTgMt1ZhSSmlNxKhRV6NxzpSVUkajlh22dTTaJs48ktJmltu2bSmlLZUdldpgjSiViBgjzjkq7WgO6/5jTh5TpkwpKS1MTUmxG3nBDM0ZX7lijcGF1+fVqs2cJMEFLy+vSEiKHzxogGVFG3EJca2122Xu2LZr/Fn/749//KNt2zgPC+PYIUQitTfcfPaA4YN0ONToIUhpsm1bO+MhNWNmzDm3qQUGCUakGeOG4Nz4hTFca02cMf3jwVAa3pRXn59XWlSDfQ6N/SSf35fbNSs7rStRoGmLJawhv1MRsXpB/vgrRESaFCODyCCKalKsRdZy9M9+TzESRCaRpUmxg/+OklFq56yM6gob+xwa+7njsUgkqimsdIQz3vz76UFjB5Ft2abpI4pIJQUXRGRZtsv0EClLRg1hHBgNFSdvMFReXlaZk9OZyFRUy4g172SU/dxfSnPyhCPVJcUVnbPSDWEoUvV/v1RS8Eg0GtUaB2No7Of3M8aYs8bW2KvSNGQIY9+s3PjYo6/07Nnl6msuzM3pRKQ3bsx/7JGXvF73NddP7d+/GyNbE3HyL/ls2aeLvunZu/eK5S/97rrz+/frp6iWt8o7E05giz5emr9jz4YNO3cXFD/30l3x/jhNsm4r1W037HAdUCyv7Oljjz1625Y9ObkZXXN6K2lpkkMGjyjZV+nxuAf0H6J0lIgYiZpg5QP3vTD1knEzZkwfNbr/nX942rkQfis8REWKUdzHi5Z+tWzdpVdOefyvNz085xqP20WkW+cBABpr4h4sU9IS4+N8RLbzSDXZScnxSUnxiuy64U5rmZ9ftCWvgJGrS24nrXWzrqb80iIHmfNe+7hf/+6CEizb6t69u2mYrfYAoL3NFVsZIyZtqZSqm2MyYlJKJfcvKjBiUlkJcRmXzjzr6lkP2NL4fsPG626aoonp1htJdGpq4hOPzzv112NTkjyKIvwwfq5zdeGDlmf1gfe7sV9iHIshgnNF1bfcdt2MGWdNmnDdvn3lJxx/sqZQ6xyMccY1Ba+/eRoX7JzTf/PJJ2uIhD6MQeyQF/+oO5sE0FhMHK3VOyLyLVn6iTCNj5c8+967X/z9qWc4JchWuTcSI6YpmpnReeLEk/949+WnnDqSE/3iOwec8+Li4qVLl1K9CxZEIpFvv/02Go0SrmKAxlr18XEuhKj/ODlnXPADl4kjrTUj9z//Nn/UqP6/OnH6bb+/ZP5bnxFJxltpzYOT/9s1a158fuGZZ55pUMKu/L0VFZU/P5pxzhcsWPDcc88RkVLKsiwppWmaVVVVTz75JHZKNNaqamoC77zzeWFxAWeG8+oeDkcXfbR82648zoy6q+307pO79PNvv9/y9a6de8+ffDKRaK1VB6bJ6tS5U00geMvNf37ib/9+/90v/ImJ9RfuD8nr9V566aXOnSjWrFnzzjvvcM5PPPHE9evXb9myhTGGoQxrHq2x+yqK3nzr9IFDemZ0SnBOdySqnXnZWRmZqd27Zjjr4wYTmqrvuueKjz748rv1X542btRJJx1DFGil4zFimqzszM7vvPfo2ws+S4hzTb7odBcXmuyffy9w+PDhq1evdu758q9//evzzz/3+/179uxZvXq13+/HfonGWumIyyA++YKziRRRZP/hD1lnn3M6ERGF6x0UaUbsjDN/RSSJhKZga743xYhpivTr37df/yHO0Etk//wDsCxrwIABq1atuuyyy3bt2rVx48YXXnjhyy+/fP3112+44YasrCzcaQmNtd6yhqIgEau3Gs4UhYjoR8OUlhRgxIg0b/UJMCOmqFbrEGkmOP/Fs1mcqeDFF188aNCgrVu3HnfccVlZWaeeeuqdd95Zd8CGXRONtdrxIv/FrzjE/q+zI/Y4WQN+uJPZsGHDhg0bRgdue+t8EYGhMWim0Y8xpZQTVV1XeH8MjUGzjn4YsjrCs4xNAIDGANAYAKCxIw5nb6AxaFlSSo/HTTjlF41BCw1jUqrFiz8lIiEEMkNj0JwEE4oqpsw4b8xxOdOmX8I5dz6jiS2DxqAZN7T2Cn3f7Ds6Z8lp0y523mtGZmgMmnOuqElJqpz94F2du6jp0y9xvorM0Bg0X2TEOJGkitkP3JnVRU+fhszQGLRUZpX3P3BnVg4yQ2PQkqOZk9m06RcjMzQGLZhZdg5Nn4bM0Bi0XGaz78zKRWZoDFo+s2lTkRkag5bKrPz+2Xdmd8VohsagZTJjRLYu3z+aTbvYuWIBMkNj0AwUKaklJ9Ng5v7RLJemTZ2Os0DQGDTX1vcLllxeWb63cB8nwz4waZw6ZRoyQ2PQVLaUc+b864tly8effsOS/33DyE9SO0sgOV0ZMkNj0LTAbNsQKabLdfLYGaf9+pgpUyZLWWkIw1lpvHf2ndnd2NQpmDSiMWgUqaVhxBUW57/95pLJF56xYd3W3YW7hIh3rpK/f0H//juzu1FdZqpVbkMDaKw90KQEi99XVnrW6b8be+KwV1/9z8TJv7p02l1bduzQ5HJuTVg/sylTpzn3JcNohsbgcALTRK5tu3aedsIVx4wZfN0tU7/46p3klOSk5Pi89XmcXM4dlRgxcSCzLrlsKlYa0RgcPkbiyUdf7No1a/zZxy58d2k0Eu3dM/0/L/9p/DmnEgXrXWn8B2eBILM2/IwfznOmtWaMTZ120U23nTl40FD1g10BGjyYRaK22+XWxBl5iGwiRWQf8pZlmrQiEpR8+x/+smcXvfzKi4e8kTRgHIMfvK65XW4ipcmSukpRSFNEkzrk7ZScSaNyRrOuNHXKdMIVvNEYHM6yhybixAQTnLhzOtXPNMmcT0/PvjO7K118yYxgIGRLpZTGPz//T4xMq3FPiSNySNbQ3884aanK75995003/un4E47r379XxLK4xk1eDk0x7TbNvLxt9957/7hx46SUQgg0Br+UGSdNVY/OuXHHzgLTEFpTa93z+ufH5P0PLxYeTB0pleFNvuu2h2uqgxjHoAGZESki3r1bz9ioSzNiRAaRIlIHRmj9w18cscoYpWRkphmGgcagYaFp0prCLCYCcxHJouK9cX5fnD9ekaWUMriLiNkqIrg4koUpKXgkGrVi4ZgMjbW9YzlGRzgxRZqTd9v2bYsXrygvC3326Yo77pp5/PHH5u/e9eB9z1ZVBu78y6x+fbrSod6NaKWtxBhz/oU1D2hzNBEjo7SidO6cebfdMSO7c87UqafGxfsUhbrl9rVtyTnv32eQVOUC7zGgMWjMIKaU4Imff/pxdXWgS+dBEWtXbm5XIil1lJj0+Twuw9AksaHq4JUGGsHKyEz9eNHKr79Z7DK9SoU12c4cTWktpTris1k0Bm2Y4FxT8NjjRlxw0akXTbz9ySdesaQkYjiNEnNFaL5DMqU5d5074cSMTikzrzzfbQoizpRNYv96A3rDOAZNwjgjsm++4a+n/3p0vLtnIBjcubOAC4OIOCepJGaKaAyaNo4REYnu3bNuuO6x51945rFHXmHCIOJEWkq9csXGTVu+59zQhPEMjUHjxjEiTdFnnv/jueedvG/f3ikXn9E1p4tWNlFo+sVnvDLvL7175RBh5QPHY9D4xhiRneCPv/76WUSMKKQpwjknskaPHkFERBFsJTQGTQ1Nk610ORFxxg8MWUxRLRHjGMHQGDTLaCaY+NGxB44+cDwGgMYA0BgAoDEANAaAxgAAjQGgMQA0BgBoDACNAcQyrXX9WyWq1rpaN85XhI4SmHOrROfXdfe+cb6OcQygGQKrqalZuXKl82vO+e7du8vKylrhBqVoDNo/IUReXt6ECRPuvvvumTNnlpeX33///SeffPKUKVOWLVvGGGvR221jrgjtH2Psww8/vPnmm8eNG7d27dpp06Zt27btueeeS09P//DDD0eNGtWil8XHOAbtepZ44Bdut3vcuHHOrz/55JNzzz137Nixffv2TU1NDYfDLTpjxDgG7XoEO/CLlJSUm266KS0tbc6cOQ8++GBGRsbUqVNDodBJJ50UHx+vlGq5u5OiMWj/pJSTJk2qqKj4/PPP586dO2XKFCJKTU2tqKiYNGkStfDtf9EYdJRDslmzZs2aNYuIlFKMsdNPP711fjQagw40mjnHXc59a6WURNQK97BFY9BRHJRTq90hGuuKAGgMAI0BABoDQGMAaAwA0BgAGgNAYwCAxgDQGACgMQA0BoDGAACNAaAxADQGAGgMAI0BoDEAQGMAaAwAiHDtN2jfpJS2bUspm3I5e855Uy4kjMag/Q4ghkhNTTEMo0Vvy4LGoCPSikiw4uKKx+c+sXzlimgk2riByDBEeXn5tGlThwwZ0uj7TqAxaIe44EShqdPHfbd+mz+u0rblT96P1plCHuq7SirTk/j2u+8NHjQYjQH8sDFiRJFTTznpV6eM06QO3RARkaqX2o8vzS05pe4pyPd6/UTU6NtGozFor5hUAa1r2E+MPUpqw/AwEkSMiEtZcdAqu5RSGLqmOtTEO9miMWi3xE9P7TRpYXg25uWtXPH9mm/yhgzrPWPGuZosVn/EEyRIcM6a+DDQGHQ4ihQn/9Ivvvzqi/WTLzk7Iz1lz95iIsWItcSPQ2PQ8SaRxIjk35946+6/XNGtc9dunbOITKLqFjs4BOiIjamdOwtXr8pjFEcUlrqi5X4cGoMORypF5Jlw3snXXfPonXfes23nXsZcmnQL/TjMFaHDEZwrCtxy6+XbthbE+10JiUmcNBGnlskMjUGHo0hxSnz3nfddpuu23/9RUUU4UioMbgpXS2SGuSJ0vMakJjKK9pV98P6yrbu+WbH8qwXzP2PCrTGOATTPTi8EUeX0mWetXbPtjlse792762+vn2QQJy2JMTQG0Cy0x3A/+dTdtqwyhF+TTWS1RGBoDDpwZCSVqjaEoaiWEVHLvAGNxqDjYsQEZ5o0b7G6HFjzgA5eWotDYwBoDACNAQAaA0BjAGgMANAYABoDQGMAgMYA0BgAoDEANAaAxgAAjQGgMQA0BgBoDACNAaAxAEBjAGgMANAYABoDQGMAgMYA0BgAGgMANAaAxgDQGACgMQA0BgBoDACNAaAxAEBjAG22MU1akdKksR0BWqQxRgYnH5FLkcKmBGjOxhQpIv+bbyy6/fY5+0pKOcVhQANozsaklJL46jV5hjA+XfTVBws/5eRhxDGgATRLY9oQPpNS43y+UaOPmjb1GpdLLPjvIkmckx+jGUB9RiMCY2Ru2PD9jp1ff//9juLickVen4/lbcqfd+HtN94y9egRAzVZjBg2LkDjG1v62bfzXv3f3j1Fpmlu2LBLWtG4eF9tKPzBO1+MHDEQAxlAUxrjigJX/3bKb397w7+f/Xu/fl3HHnuOon1EBhEjihCFMYgBNPF4jCkdtqm4U3rSsqVry2s3E0lLlktdoShMCAygyY2R1pqR5+uvvyssKn3vzY+Xr1xrikTOOPICaJbGtMFdguJcLuPkk4+ePv2SbVsLFn6wmJGHkZuwrgjQtMY0kdizt2j9pm+LCyvWfrv5u815I0b1z99Z9Ptb5+zIL9BkYPkeoE5j1hU5eV59ZdFL//moqqraMMSC/y7VUsYl+MpKK0nrBx6+AYUBNKUxrih4481Tbr75mtn3PtatZ9aUiy5UVMaIE3FNNlEU64oATWnMmWJyoqrfXHueYRiaKhkxIk0kGXEcjwE0Q2NERCQTExKdX9Rbr0dgAM3WGNMkiRhmhgAt1BihLoDDOLACADQGgMYAAI0BoDEANAYAaAwAjQGgMQBAYwBoDADQGAAaA0BjAIDGANAYABoDADQGgMYA0BgAoDEANAYAaAwAjQGgMQBAYwBoDACNAQAaA0BjAGgMANAYABoDADQGgMYA0BgAoDEANAaAxgAAjQGgMQA0BgBoDACNAQAaA0BjAGgMANAYABoDQGMAgMYA0BgAGgMANAaAxgAAjQGgMQA0BgBoDACNAaAxAEBjAGgMAI0BABoDQGMAgMYA0BgAGgMANAaAxgDQGACgMQA0BoDGAACNAaAxAEBjAGgMAI0BABoDQGMAbZDWGo0BtCDGmFLqMEtDYwANE4lESktLOeeMscPJDI0BHC4pJREtXrz4kksuWbRokW3bzoCGxgCah1LKsqzi4uIBAwYkJiY++uijW7du5Zz/fGYGNhzAYTJNk4jS09P37NkzevTooUOHvv/++7W1tYMGDdJaM8bQGEDjcc6XLl367LPPFhQUVFZWbtu2zeVyKaVuvfXWc88998EHH+ScE9GPS0NjAIfL5/NlZ2dXVFQEAoHu3bvbtm0YxuWXX56cnGzbttvtPuQSCBoDONyDsREjRowYMeK7774rKCgYN27cj3/PIaeLaAzgsAghli5d6vF4Ro4cOWDAAMuyGGPff//9li1bJkyY4EwUDz3JxLYDOEyrV6++6qqrNm7cWDdk9ezZs7Cw8LHHHnMGOjQG0CRa60GDBm3fvn3hwoWGYRiG4ff7p0+f/u6771ZVVXHOD3k8hsYAGnBI5nK5xo8fX1ZWdu+99zoD2ty5cysqKn5qwQPHYwANG8cKCwu11tOmTZs/f/6NN964efPmcDj8xBNPeDweKaUQAo0BND6w6dOn+3y+/Pz8nJyciRMnnnHGGZs3b87MzMzIyCCiQwaGxgAaMFHs1KnT1VdfLaXknEspvV7vkCFDnG/9zLoiGgNowFCmlHLGKyGE1to5hepnAkNjAA3AGKs/IWSM/dQ5ivVhXRGgZaExADQGgMYAAI0BoDEANAYAaAwAjQGgMQBAYwBoDADQGAAaA0BjAIDGANAYABoDADQGgMYA0BgAoDEANAYAaAwAjQGgMQBAYwBoDACNAQAaA0BjAGgMANAYABoDADQGgMYA0BgAoDEANAaAxgAAjQGgMQA0BgBoDACNAQAaA0BjAGgMANAYABoDQGMAgMYA0BgAGgMANAaAxgAAjQG0FuPwf6vWJG0lSUpLcq6x7drMcywENkLbaMw0jdS0JIPShekhwtMW+zQRI1JEVdgWbaOxosJ9Tz41r3vv5coKM2LYdrGNMU62Jb1u36Uzz+ZcEGHqEfONSVuVLeLJ641ay2AajcX+FNEoq6pcWrlo+iXj3NzQhOcs5hvLzsy6bsSVw/uOjoRrBGsPiyVaK6W1IQytNRFJrbRSjDHBObXxgVprbRruPaWFJV/vwpyjzTRmWXZZsLyqpqQmHOBtvzGppN/lM4VZXFPKiTPOvKbHZ3ij0gpEg051bbgxpV2mq7SmNByJYi9vM40xxgQTggnBBW/ji/6KVKo/Zf2e75bu+LJbStcTexxnk/wmf826vRs6x2ce1+MYv8sntWrDjXFtcCGYwRhGsSOsI74/JrVMdie+9s2bf/rwvn6d+ozpOkqRNrjhMsy737+/JFCa6EmwlcTOAa09jrUPilS8O+7z7V8++cU/Flz+Wm6nvmWVBREZdXEzNymnR3r3AZ37m4ZZK7F2ChjHGhuZi5uPf/63gZlHLdmy9M4Fvy8LVHgMt1IqIiOWjIatcFs/GAM0duSOUrQ2hVFUU7xh78ZuqbmDsgdsK9sx/aXLLWnXHbfgAAbQWJMIISprK21pndBz7LCuo+4a9/udFflf7Vwe74nTSjsdYrcANNb4v64l7TR/Gme8LFgeqa0yhJkRl+50pUlzLvymD0MZoLFGYppJKdP9qWcNPOPd7z9wu+M2FeWl+lNG5R4diAQNYZQFy5ZsXxqIBDk+kQBorJF/Yc4rI9V3jft9j7Tuj34y5+udK+45849xbr+yldb6zAG/7t+5nyKFPQOai9EB/85KKRc3bz35+tJgmd/0uQxXrRVmjCV5kx4/90HBRMAK4qgM0FgTZoyM2SRrooE4l19qFbJr604NC1hBUsQ5JoqAxpp8YMaIOWdL1T/04oQDMcDxGAAaAwA0BoDGANAYAKAxADQGgMYAAI0BoDEANAYAaAwAjQEAGgNAYwBoDADQGAAaA0BjAIDGANAYABoDADQGgMYAoDkaO+SlqjXD9atjmiZ9mF+EZtTI6wSbwojIqHPDrrrATG5ig8YsRoyI2yp60K3kTcMkZBZTjTmD1bd715/Q/VjT8JAzdmlNwrUmf2W6L83tciuF+57E1vhFxAPBmt279/XvO4a4Xf9723es7d49lwj3mI+ZxpRSftP33voPn1jydJIv0Va2M9/wGJ7VBd9OPfqC3429sqK2CrdliLXO3F7X/X953jBfdLldWkoiRkSM0ddfbnjmudtHjhyhKISL/cfQXNEQgjjZ2raldG46GYqGhmQP8gpPyK7FfShjk2lyTSRtWx2Y5HPGxp4wLBQKE265FjuNCSYCkeA5A888uutwt3BrrYiIEVdaKq0iMhqMhNBYrB2KETErEr39jzN69Rxef1qoSRFpolqiCAaxGBrHFKmh2YOD4WCZVc4FJyKttMd0CyZCdq1gAps19iif19uzZx9J+5StSDBSREwL7mWklI5yPGstpsEvXVprt3B9sHHRvuriRF8CEXHOfab3650rv9jxVZzLjztQxuZYFrWs999bLLU2DDdnzBAG58ZHCz/bvGUHZ36s4MdQY4qUz+1777uFN79zx75ASbwrTtoyqqyBWUct2vTp2+vfj/fE4X7KMbbeQUTaNN0PPfjin2//Z9hWjFy2shixfgN6P/7Ya5s25THyKGQWI43VHZX169T3f3mfrS74NiMxnYi6JGb9ut+pL6+aZ0ubaRyPxeBBmY6L8/Tonf3Wa+8VlZUZPE1pu3vukD59cp/79ztEXq3xyhgzjXHNbG2nx6dOHXnBkq1L537695pwIBgNvbDiVaZJcIETPmJ0uhiVgwf3Ov2MU/751zfm//dtxnhFYOe8VxYlJPjxNnRsNcYYs5W9t6rIIzxXjb08ZIdmvHLl4AeO+WrXihtOukbh5TBWhWvD+bv2dUrtcu2NFyxftu74Y64c0meiEOLy35ynKVB343loXkYjAgtEg1cfd/my7V/vLN+V6E245eTrzh18VkHFnl6pPTMTOoWitXi2Ym2aSKSJxJ1/vnxfUZlFpUmJyQ8+ctvmLRsrKwLDju5rcC9RlBFm+LHRGCcetiNDswYPzRocjIRsJcvDlV2Ssnukdo/YkaAdQmCx2Zkm6/TTTiKKKrKIbEXRPr37EAmiWo3AYqoxZygL2bVMM8MwtNaCiYgVDdsRphkCi+XMFAUZMU6CSDPiisJEmhFDYDHXmDOaEfu/T7gwxhjhmYr9g2/nFfDAiVTECM9ZbK55AAAaA0BjAGgMANAYABoDQGMAgMYA0BgAoDEANAaAxgAAjQGgMQA0BgBoDACNAaAxAEBjAGgMANAYABoDQGMAgMYA0BgAGgMANAaAxgAAjQGgMQA0BgBoDACNAaAxAGioht2rVrv5B3IAACAASURBVGoptZRKaqax7WKZVtpWUmpbay2llEJqqXCz7obt7VKSIZXSrdeYaRqpcSmJ8elu020wgecgphvT2jTcVtj2+bw+VwojvxYKm6VBhGFzSotP8HHOW74xTcSoYHfBv7Y833/71+FomDHcqzvWGzO4UV5TuXLLmqf+/h+Xy60VGmsYpZTLnfDxh1/27nais0lbsjFGRDRx0nl79+2t9IW11ESYK8Y+i2vPWYPPqyhOZoxpPGUNZwpx3JgzBg0eSESNHs1Yo+sEgGY+HpNStqcglVIul4uIrKjFOGOMCSHqvqXay8xKax07E3vGmNbaMAwism3b+U8icr7isG071rYh57wph2QddBxTSnHOd+zYsWTJktzc3JNOOomINmzYsHbt2szMzOOPP97r9eIFuCWCJ6KdO3cGAoEBAwY4/ymEKCkpWbduXTQazcjIGD58eDv7W/MOG9iCBQuuv/76rKysMWPGMMacF/vf/va3+fn5QgiFFYIWIKVkjC1YsODhhx/mnAshhBBaa6/Xu3Dhwquuuio5OVlr3c5e940OGBhjbNWqVffff/8HH3yQlpZWV12vXr369u07YsQIl8uFxlpiEHPmDhs3biwtLf3yyy9ra2uTk5P79+8fFxc3cODAZcuWde/eXUpZN2lHY234mZ49e/aQIUO++uqrbdu2zZw5MzExkYjC4XA4HA6FQuih5Y4Mv/766+XLl9u2/cILL9i2vWvXrmeffTYnJ6e2tradHfB30Ma01kKI2traVatWXXHFFWlpaa+//vqCBQsWLVrkrH/UTRqhJVYObNu+6KKLSkpKvvnmm6effnrz5s3ffvttdnY2HVgZb5cbn3e0xoiovLzcsqxx48aNGTNmzpw5GzduXL58uTNjrPs3tNxTEAwGiSgajc6fP//MM8+s/612OY51rMacl8nU1FTGWFlZmW3bbrc7Kyurbr3YMIy4uDiU0KJPAWPM6/V+8sknZ555ZlxcnJTS+ZbL5cI41h6eYCmlx+OZMGHCW2+9ZRjGxo0bU1NTR48eTUSmaRYXF3/yySfO8hfenW8hPp9v8eLFKSkpgwcPdlabnLninj17duzY0f4y63Br95xzrfUDDzyQk5Pz9NNPL168+NFHH/X5fM4scfz48X379nWOznFg1kJcLtcxxxwzevRoKWXde7tJSUm9evUKBALt79WtQ79a19TUxMXFOU9q3b/RQIsejDHGKisr/X6/aZr1vxUKhZxXunY4e+qYjTmH186LaN10xfm1s/aIHo6I+s8FGgNo/Asc/WiZvh1PItAYQAsvAWATAKAxADQGAGgMAI0BoDEAQGMAaAwAjQEAGgNAYwCAxgDQGAAaAwA0BoDGANAYAKAxADQGgMYAAI0BoDEAQGMAaAwAjQEAGgNAYwBoDADQGAAaA0BjAIDGANAYAKAxADQGgMYAAI0BoDEANAYAaAwAjQGgMQBAYwBoDADQGAAaA0BjAIDGANAYABoDADQGgMYA0BgAoDEANAYAaAwAjQGgMQD4RUYr/zyllNaaMda2NpPzmDnHSxI0GNNaYysAtIdxTCnFOb/11lvz8/MTExKlkm1lBHOZ5t7CwrPOOuuKK66QUgohsN9ALDbmzA83fb9x/ImnDjx6hAqEWmDGqJr9CFNJKZLj33zplbzNm53ksNNATB+PpaalnXrSyb1GDiGrWXNQRIzIIIoQCaJmjNcmctPuvG0b9+7E7gJtoDFp29XV1TqidFWg2ZYQlCKvh7SurarypneiYJiiFjXTICmlZOnxgUBAKYXdBdpAY0TEOWecM86pWRpTihJ8eWs3vPnOf9PS04sKC6+5YlZKRgZF7WbJjGvNOMeKIjR+F2rbD19rMkQ4ELz93j+dNPb4S383y+Px3PynO8ht4qkFNNZMhIhU1XyXt8nn8ZqGedKxY/cWFZKNeR2gsWbBmI5EE7t2+dXYEy+4/JKNq9d9uvSzmVMuJpcgLAACGmueyjin6tCT//jnCcced9SIIbXh2gsuu5gqgoQjKEBjzXZI5jI2rV/XLbfrEw89+txrr7zz8huU6NNa4tkFNNYciSlFca5HHnu0b68+v7vlxqsuufSJZ54ixplmeHYBje0/piIiauy7T85Rl8t0bduxvaSslHF23KgxxFrpYAxvmkFbaExKYozi/I3LjHNO1eEH7ronJSn5ozfezsnOvvPm31MwQi1/ar9zBibhBCuI3caUoiTvf1575crrr9703QZKiiNiDS6NMbJkQmrqlddeM+2CKdOvuEKYJknVco05Re3cuXPKlCnvvvsuETHGMKBBLDYmpbSV3Lp9a89uPTdu2PDCM/+ylSK3i6RscGZRS1cGSGtdXkMtvLsrpWzbLikpsW3b7/c/8sgjW7du5ZxLiVUWiKnGtBYJCYZhJCYm9unZc8IlFx09dNiCd96qCQYoPb7B724xxjgnIiZES88ShRCGYWRmZiYmJp5yyim/+93v1qxZs2HDBnzmBQ7JOFKBkce95OOPVmxa99mypd98u3pz0e547tq5a9dj/3jqlutuOvf/TaBwaxxTNeLwr7Cw8JVXXtm9e/eGDRsefPBBl8sVjUafeuqpIUOG3HfffT6fjw58kAfgyDWmiIQoLCpctWpVwe4Cr8fr8nms2ojP5+vTq/eO7dv2L4TEHsZYKBRat25dcXFxYWHhunXrtNac8169eoXD4YqKCr/fjyUQiIHGBKOa0EUXz7joyplvPvtS54yM48afVm+UIyoPxmZjUsqePXs+//zzlZWVzzzzzC233HLIDrFjwZFuzFmoCAR1lTr/3ImktSqurr+Pshg+ttFaSynj4+NvueUW27YPOlRDYBAzjRGR8ykyImKMG0Zb2WSMMePAozXazsOGI7abYxMAoDEANAYAaAwAjQGgMQBAYwAxpQFv7zTxFKG6P661Jq211qwtnHNU92jra8r/EG9So7GW2jmcPy44d7vc5GLM42kTl7XhtiTG3KZpGgZjzDRx5UZoscbKysqiSjJhkG7MB7S01oyLymBwx97d/l2dqTrYJi6+K6VkKXF7SkvKA9X7ysst2zIad54X48q24r2++Ph47HYdymHdf0wrxTgff+aZlZu3dkpJOegkvQaMCZxv2l2gtDba1EetGGPhSDQ5zp+b3smSshGjuSbyuMyNBQVnTZ/24AMP2LaNk7Awjh1CvMdzcXzn4enZQSvKDzlvVNq5GBTTRPzQuyJL766JSOtmP62+7sXi4DntgW/839frvsKJDufyVQdu/Klt+VN/r18YDLVOdbn/UxKMuFzY59DYTxJcuF2mx+u2OftxY0przpiHc0YUVkr91A1pW2adQ2nt5tzgPCqVpVX9hyeIaSLGmVZakSYiXu/WSYoa8ngaezAmtXZ7PKbbZeOz0mjs5wcKRaSkUurgK9IorV1cWEp9F6iKKNndF+/hQupWusShJvJwnl8bLI9Gcrz+VJc7LGVd4VUy6mY8ainBmE8Ymqjajpqc21qT1nGGqQ7/dmWNfYFQWiuptNL4+GYH1AyrDlprNxeF4dDLBVs3VFc8szPv5YJtPiFaZ39SWvuFeLsof97eHRVW5P4t65aVF/sNw1mWYUQFoeAV3y57bPt3YbX/s9VlVuSGDSvu2riq0opiJR1iaBz7mSUBxeiZXXkTM3PHpmaek5kblHZISt7yu68mMhnfFw2/unv7QwNGHp2UFlbqnzvzjkvpxA78hlHJaZZSfXwJvfwJ+6Jhrml4UpqL8Uy3b2hiamG01iBkBjE8ju3fy2tD31VX9E1IrrItTRRnmK02JdKM3IxXRKOflRaZjBFRkukS9fIO29IrDM5YVCvn8sERabs4NzmLSJth7gaxP47ZWqW43AFp37957XU9jnILYbbWKVqMyFYq2eW+onvfRzavCysZlvLq7v2cYy1nZsgYU1oT/d/1uRljzoHREZwoOueLHPQOoTO7xvQV49jBe7nU2ivE3f2GfVZa+MjW9QHb4qz1hgfOWLVlzcjpNS239wPrVm4P1QxMSI4oFeN7KmOsLjAnLa01YwyBobFD7y6aKNF0Tcjq9ud+w9Nd3tacgCmtEwxj3p4dUSWXnT5xQ1XFg1vWJ5im+uGKy4/33SO4OwvOt2/f/sYbbxCROvByYFnWF198UVlZSbiAPho7eC9XKsF0PbMzr8a2uvvjQ9JaV13eamdJOQeE7xYVDElIPjY968rufddWlUmlGNV754uxqJL1d1zGmCWVPEK7MuN84cKFS5YscXIKBoORSMQwDK/X+/jjj+Oa3mjsEONYWNonpWZ+tG/3bRtWPrljE2PM5Fy1yh7MiCSjUclpS8v2LS4q2BSompzdwxla64apqJLLy0sKwkGDMa01KS21WlNVtjlYbR7e2WTNLi0tbebMmUQkhFi9evW///1vzvmIESO2bdu2ZcsW54gReyfWPP7viKjGts/unJvt9W8P1QxNSu3tiw+3ytr9/p9uWTNyeq+tLt8VqpnYuetR8UkB23Z+OiOKKnljr4E9fHGppscmLTgPKnlxTu8Mt6eLx2+TZq2+dq+1Hjly5Icffjh48GCl1EMPPbR9+3a/379p06Z169alp6cjMDR2iMEkotTI5LRjUzo5i3utfLAT1WpEUqqzAFP/pzuLh2OT0y1NllbOV6XWo5LTlKboga+0Mtu2e/TokZOTM2PGjC1btoTD4TfffPPzzz9ftWrVww8/nJqaWndnM0BjP8gsaNvOL1p/NcH56ewnljeCUtZf4WBEtVKyI7dK7kwFzz777FGjRu3evXvQoEEul6t///6zZs1yRjkEhsZ+ctp2JI8sf/qn//hb/EgvkTu3BczIyMjIyKAD97x1hi8EhsagmV4UOHfeia57rwx1oTFo/tEMbzq3/xdTbAIANAaAxgAAjR35oy/OSOOj0GgMWiywqG0LlwvnSaExaBFKa5/H/f7ChcFQyDRN5w0xQGPQPARjFeHw+T36/rq45vxJk2qCQc45MkNj0KwbmrFay7pm0IhheQWTJk+uRmZoDJr/kIyxknDtdcNGjthcMBmZoTFooUljSSh07dCRIzblIzM0Bi2Y2XXDRjmZVSEzNAYtkVlxbeja4aNGbC64YPLk6kAAmaExaLFJ4+aCyRdcUIXM0Bi0aGYXIDM0Bi2d2YVYAkFj0KKZDd+yGyuNaAxaBCMqDgavHTry6Dy8b4bGoFlpIqmURwifYTiZjdhcMGnSJGSGxqB5GMTS3Z5NNZUbayq9wtgXCl47dOTIzbsnTZpUEwohMzQGTaK0fmzHdy/v3nbThhXbgzUuwTljJaHQNcNGHr1l9/nnnx+orUVmaAwaydIqze3JcHlv+uaLszt3ndalZ6UVFYztPwtkyMiRm3efd955yAyNQWPYSqUYruXlxa/v2f67o4Z+Vb5vafm+VNNta00HzgK5ZhgyQ2PQ2Cliqsu9vrri+vUrZuT2fnTgqCu69r1r4+qVFSVeIdSBzJxJIzJDY9AwWmuPEMvKi2es+uy0Tp1HJKf/O39LjW0NSEyusKKi3r1mDsosiCUQNAaHhTEiWlSy99TMLselZm6pqcp0e4Ympt7dZ9iJaZmhH97+s+7t6ZGbd088/3ysNLbV5/xwrt+ilWKcTznv/PN3V47Iyg5EoxxXt230UEbkYtzgTGrtZtzWytJka+VclPvHv19qne7zPbFm5co+Xd584414vx93dcE4Bj/7qkZkaRWy7bCUVbYVktLWin76JjL1J42TJ01yPm+GK1uhMfjFOSPjjPHDu969YKwkGLxm2MjhW3ZPmTy5sKhI4zqNaAyal+C8OBi8ZfgxKSs23H3//Zxz3Da6nTemD/uL0IxDX8i2hmdmJickYGu0IUZj/xiLanXQdMXAgXhLZ6YpYkssOLX/xhjRlmDViKQ0g+2PSmvtEmJ9dUWS6TKJKewDLZcZ5gvtvjFJ2iPEwuI9L+/Znmi6pFJEpIl5OP+msuzczrlTs3tU2RZeawEaO44pzYkk6YJQoEyYtlZME3HGNCWbZljKsMIwBtCExgTnQcv6dVrW7b0Hm4zrAxMYIlJah5UM//BkBQA01mBa6/4JydWWxRgzGddah7XkxIiI//R7qQAdUyNXAi2l4k3z/X0F923+dl+kNsl0cSKOO4gDNFdjijRnbEugKsF0La8sebeowOSCM6Zw8gFA0xvTRD7DTHd5/MLsH590c8+BScJcWLxbE8WbJs7xAWjS8ZjS2uR8TUXph5HajYHKwkjIWb7fGqxesHbXZV37jE5Kj2osLQI0tjHNyGDsu5rKT0sLC0IBtxAl0UhU2l5hKq1XVpaOSkrHZgVofGOCWI2U03N63tZ78KPbNmS7vRdmdy+39n+iLKpkUEoMYgCNb4yIGFFYym3B6v+XkcOItoUC9b+FMzwAmtoY1YWEnAB+MRZsAgA0BoDGAACNAaAxADQGAGgMAI0BoDEAQGMAaAxanNZaSln3mT2lFG7sEmsMbII2HRhjTAjh1EVEuJ8LxjFo5sCqq6tff/31TZs2cc4553l5eV9++SU2DsYxaI5XR85LSkpmzZplmuZLL7106623bt269bbbbhs0aNDpp59+6623/tQNzQCNwWERQixfvvzCCy+cPHmybdtXX331ggUL5s+fP3r06BdffHHnzp3dunVDZpgrQpNEo9E+ffoQUX5+/scffzxq1Khhw4a5XC6/3x+JRLB9MI5BkyilBg0aNHv27KSkpJdffvmiiy6aNWvWjBkzysvLhwwZMmnSJNzSFo1Bk0gpe/fufeONN7722mtz58698MILiejJJ5/cvHnzmDFjhBC4CB8agyZhjGmtBw4ceO+999aNbJmZmZmZmXW/AVsJjUFTM1Nq/50WnbV75z7RDBdFR2PQXA464kJdsfgcYRMAoDEANAYAaAwAjQGgMQBAYwBoDACNAQAaA0BjAIDGANAYABoDADQGgMYA0BgAoDEANAaAxgAAjQGgMQCgBl37TRMprSVphQvQNoomYkS8yddm00pJKaWUuMxbazxrWgshmrKpG9CYIUSCYSaZbkOTIDy7DXyqGHFNUSVDSjVl2zEir98vhHBu7QftZRxjjIjy9+59aNv2nIq9EcvCK2iDNzRjZdHImNSM6V161Nh240YzRhQ1xWtvvVVRWBSxLdwyosWfNcMoLCq67tprjzvuuEbfo6MB41hiSvK4P9zeZ9AgFQxxNNYQUimR7H/v3Q/y/rvA3bVPtW035tCZsRrLOj4zO7msxPx8VVuZsTsz5LZIaZ3kdv9t0/qd559/HFFrNJaUlDT++BO7jhhIEaJYmKcwIk1kE5lE9fc3SaQ1MUaxM5myiTwU2FP80dvv6ib8dS2tsty+Xl17toEdlzGlNSMSxCyt+IGZjyJSWnPGYn8Illqnur3LghVen4+acI+OBjQmpaysqckJSV0TOPKzFMZIa2YY5PPq8pp6X2bk85JXUMimmnCM3B9ISpulJ1SHgko39VXF0qoiEon9kUFp7RGGJF1tRzNcnmopneRcXPiFqLWtsFKx3hhpoSkUjaqmPdSG3VOCc86FICHoiDemNXncu7Zu+fCTxVdedoWOWkTEXWYwWPPuf9/csOn7wQMGnXvm2S63m2IgM0HEhGiWFyZGJGJ+oq619hnG1kD1+8W7012eais6PbeXh4moVp+WFn5cvGdUSvq4TtkuxnVM/y2IN8c9OtrsQbNSFGdW19Q89dwzLMnLOyXwTgnEuS8lLTOj031zHh45dLjL76OYf7FsfzSR4Dxk2/dtWTciMXVWt7754eAjWzd4DWFy3tXnf2t7Xk9fvF8YHeRNoLZ5byStyevO+2bd3/71z9ra2jmzH5aRiMvlOmfc+O5DBnTulNk1Nzc3uwvhfbwjNIh5hVhbVZ4fChyT0qlW2hdk97h+3dclPcKJpivBMLOTk9NMd8fZIG12HNOkDS4M4bxF6E9M/N+ypUVFhSQoYllSyqgVxe5+ZA9mAla0VtoeLjq7PWHb2heuNTmXSttKSepAL39tcxxjjMKRfkMHXnP5rFVr11x3643Fm3dmJKeMOfFEqlUG54Q7tR7Bl23GQlIOjk/O8vrvy1t7Q68BHxfvlVrHG6bSugM+L212HGNMS1VSWsoYq62ofP7Vl0895RSyZb3jNRyJHblBTGuPEE8OHpNouhYV711WXpzti8v0+Cy5/0lRaKxtVKY5F8Lt9nz49gennXhyUudMFYk6p6QIIXxx8YSh7MgNZREpO3t8jw8aPSWnZ36oZlb3fi7BnUUOzpibcd1hnp22fTKOx+3+ZvU3Hp9n6JhjqSq4f3GcsV35+fPffsuqDZPA2UZHap7BIkouKS28Zu1Xk7r0OCczp9qyBOdEVF5Z+f6+grBtd5B5Y1u+57rSbrf7iotnnnHm2RQMEeekFCkV5/Vde+XVffv2N0yDFJYWjwxN9G1V2fc1lbO69R2Vkl4VjXLGlNYmY38YeszxqRkGYx3kuWmzjXFOgdqB/Qc89uhcilr7T57inMKR3Nxuc//2FNmaQrXY149cZHpIQsqJaZlSaycwIpKkE13uy3J7R5SMdph3Voy2/fAZo3CEGPvBoRcjXVHDnOTgyM0VTcaqLeugj8xprStti3ek5UWjHTyZh/gaPlsVG9PFQ34+Q3SwtSi80gOgMQA0BgBoDACNAaAxAEBjAGgMAI0BABoDQGPwS/TP/iegMWgSpbVBTB+4WYcm4kS4Xwcag+bBiOIMo9qOujk3iHk4d3NORH7D0MisfTGwCY7I/JAx9tCW9SsrS7M9vj/0HVIVjd65cbXJ+WVd+5yUmhHCfY/QGDS+Ma3jDGNJaVGtlA8PHLUlUPVc/pZPivcOT0o9KzN3Wfm+gfFJCYbLJo3I0Bg0XqUdvTi314jE1KP8iXO3fc+J/jHkuHjDUFrvDYdSEtw2rpKAxqDRlNYppvuNvTsrrMgjW7/jnF2W2/f6dV938noLgoHf9x4cbdp9ACGmYM2jtTHGgkqOSe6U4nI/sHl9nDCeGnTMhdnd+yck7Q4FJ2d3jzNNrC5iHIMmNEbENNmkruja58Ks7nGGYSldbVlTcnrOzOldI60wFjzQGDSLGssSjAVtm4g4Y1XRqNJaNMfNeKBdNOZcaw2aMk1nTNW7Lj9nDHcARmP1mAbZ1g8uW641Gcb+X8Bhzxuh/b+YNu6wffU3K8kfR6kH/kmKo/T4bdu3RmqDZOC6awBNGceUonjf6+/Mv+P+e7IyOlu2RcQ0abfHvXzFit9eduVVN12nS2twhUOAJswVpYrzxXfpnJWSnCKl7QxtnNgZvzo9KSmJAhGGC/QCNL4xzqkmMOW8ST1GDDzEdyNEgSCWQwCaNo4R9ejVS5XUsHofeWJEWmvOOa4yD9AMjdUtOdcNWExrZppYVAQ4eObXuD+2eeP3LD2+/j/UKaGkuEjZNm6rB9C0cUwp8vteeeuNor8/2Tkz07IsRkxr7fJ6l3z+vysunnHRpZfqcqwrAjS6MU1kMMu2t+/aWR0I2JblzBg55ympqVVVNRS2sK4I0ITGBKfqwIUTzrvvoYfooLFKEYXt/TfdA4BGNkZERIMGD6HKwCG+cdAtLQHQWCP/nC2xRg9wOBrbCQYrgJZtDADQGAAaA0BjAIDGANAYABoDADQG0Bbh+oqtSmstSSvSrBU/Z4dLyqGxDjNn4NzvcqW4vYpItNZ+r5SqsSxsfDTW/ocvRlQbDC4vyH/Vm1AVjfCWTkwzRiRJ+/2+sWmdMZChsXaOcU5R2Te3W++zztzYKd22FWvhmz9rIs5FdW3wy48+Gp2U7sF9KtBY+2+sJjz25FPHnnV646NxrsrckM+X64rQed+eom1JLhcutYLG2n1njMJhFWzwPVmUUsLjJtMklyCbdHnN4c5OXWZpWVlUSWx7NNaBMuNGAze40iLeV5i/a+U333yzdvXo4SPHnzmebPmLny1iWpMQQggciR1xeH8shmlNcZ71a9Y899ILXY7qlZaa+r9ln5PCHXMwjkEzNsbo7/96+tKpFw8fPnz4sOEkiapD2DBoDJopMNOgypq8bVsy0zupoG1XVRmmi+OiepgrQnMdvJEtKT6OM/aXOQ9xv+HKSuU+b1OWB/WP/ixjTGO9EY113JFMKRLs3rvueeu9d44eMuyR+x7MW7+O3I284DkjctcbA53/RVRJNwZGNNZxRzIhqLp29Kkn5K1YM2ni+f9+4bkVq1eR36WValirjBhjtlL35H1bbkVMxonIICaI7QzWLCrZazKOsQzHYx31kMzr2rMur6ikePwZZ9jR6ISzz6GaaCMuw2wylh+p3RepTTZcllZRrfaFa3vEJQyIT/q0rMjLxSnpnWssC2cPYxzrcIdk0rLuefTB3/7hpktnXdEjt1tc5wwdacxlmLXWbi5OSMtMdXv8hiGIPbBl3e5QINfrF8TWVpU7gxtgHOtwjfGo/di9s33JKaQUcU5VocbdrCOqVGefn8rpld3bhielzd323dZA9bzd2+ds3bC8vPjxIWMiOB0EjXXMuSJzmT6vm6IWEZG2G/fus/NZNVupszNynt+97fUNKwVnjw8+ppvX/+qeHROzuo1KSgvZNiaKaKyjHpJZB9JqQgOMMamUS4jrevS/LLe3i3NGZGl9c6+BEWkHbJshMDTWkWeMzfO/IZJaV1uWYCyilNaaM1YSCTN8UBqNQbPV6rzpfOAX1Iofx+7IsJoEgMYA0BgANM/xmFRKSaml5DiRNLZprZnkUkqc8tuWGjNNMzUpifsEuRMJ55HGNmdlI1WnmgaWtdpOY0WFhfP+O7/f1kEyFMKZNzE/kBEzzMqqqn1VlZSSg+3RNhobc+yxeXt2FVaXSkw/2sJckXNeEwpVhYLEmfPRMazTx25jznspf/rTn7C92habaNIxY8iSZLoYXhljfxyTsl2dNqqUMk2z/l9NHDjdVivV1q/4qbVmjJVVVVk2TvZtO42JdvSBWSew8vLyJUuW2ptNJQAACL1JREFUJCcnn3jiiUS0efPm/Pz8+Pj4oUOHut3udtCYEAInIh5xHXHtQinFOV+6dOnll19uWdaQIUOcr1dWVk6cOHHFihXO78HOAa09jrWbwBhjeXl5N91008svv9y7d++6V/1Bgwb16tVr7NixbrcbjQHGsSZNou67776BAwcWFRW9+uqr1oFbB4VCIcuygsEgdgtAY40PjHMeiUSWLVvWpUuXYDA4b968SZMm1R+1OMd7f4C5YtMaKy0tjUQi55xzztFHHz1w4MBhw4atXLnymGOOcUrDyUeAcazxnEW25ORkrXVNTY1lWQkJCdnZ2YFAwPkNQgifz4fdAtBY4xuTUvp8vlNPPfXdd981TXPXrl0JCQkjR44kImc1f/ny5c66CAY0QGON+gtzrrWeM2eOEOLZZ5+dP3/+X/7yl8TERCKSUo4cOTIuLk5KyRjDO0uA47HGTxfT0tIefvjhvXv3JiYm+v1+Z7ExKSnprbfewj4BaKwZOPPArKwsOvCWNB04kUVKKXAJeMBcsemjWd0R10GL9QgM0FgzzxsB0BgAGgMANAaAxgDQGACgMQA0BoDGAOBHlFI/PlNca/3zp4/jIrIAhz0i1TslyDnHlQ7jTAaMYwCHG9hbb701f/58InI+maG1Li8vf/vtt2tqauinP92LxgB+gZMOY2zRokVKKefz8oWFhbZtJyYm+ny+p556Co0BNF7dXHDYsGGnn34651wI8eKLL86bN08IMXr06C+//NKyLOejiTgeA2i8kSNHvvjii2eccUZ+fv7cuXNHjx793XffffTRRwMHDjRNs+5DUhjHABrDtu0RI0akp6dfd91111577cSJE1999dVu3bqNHz9+zpw59NOLHxjHAA5vxsiYlHLy5MmTJ0+uG7JmzZpV/zegMYDG01obhrF27donn3xy3bp1FRUVXq83Nzf3qquuGj9+fN1SPhoDaCQhxOrVq++4447hw4dfeumlfr/fsqyioqK//vWvFRUV06ZN+6njMTQGcLhzxbVr17744otpaWn1v/6HP/zhmWeeCYVCPp/vkKMZ1jwAGjBd/P777w/6Yl5enm3bhmH81HQR4xjAYVFKnXbaab/5zW8efvjh5ORk0zSj0Wh5eXkoFHrooYdcLpdz6dsf/0GMYwCH21hOTs6bb7557rnnmqZZXFyslDrhhBPmzZs3cuRI51YKh/yDGMcADvd4TGvtdrsvu+yyyy677KD8fuZ2P2gMoGGZOecrOr/WWgshfv5+WmgMoGGZNfQqtzgeA2hZaAwAjQGgMQBAYwBoDACNAQAaA0BjAGgMANAYABoDADQGgMYA0BgAoDEANAaAxgAAjQGgMQA0BgBoDACNAQAaA0BjAGgMANAYEBGRPuwvQjPC9e47CkbEGLOVOugOWQbnUmuGDYTGoPHDFyPOWI20K63ogIRkS0rnVnSMyNJqU7C6hzfe0gqZoTFo0iCmie7etCbT4+OMtNZEJIgFldwRrPnH0GPTXF5khuMxaGpmcaZpcMYZE5wLzon///bu4KWRKw7g+HtvZkw0qTXGxa26Nha2aAsueOmCIhYsYim0Qike/Q9Kj9uD/QN68NazeuylIHQvKV5y2rBWLO12QYvKtjbrkoRk3TGZmfdeD1lkWbwYbbDp93McT3nxO7/3koHIpOvdebO3HAZn4YE5hqa2i0IIIb6+fefdZHdkjBDCnBWlpB9GdWOUZIzRGJqbYFZoa5OOl3C943pNCOFImXTdxi9BvogibQmMxnCZISaFI2VZ112pOpXjCOmb6Lvd3x8/r7zX3fPFQOZmvKumNZlxHkPzOqT8+9R/UH6WdF0hxL1HD396djTclXxaP/32j9+K9ZonFacx5hiaF2gzknjj+6ODyZ4bdWvijvvj3Y+EECkvlj3+6+dK6eP+wZMoEowy5hiaO49Fwqa8jrupG1/++uBJzf8wfTPpep2O+8JEe/7zLsdhiDHHcLlbqZTVMPzsreFKGNx79FBYu/H0ScJxj2r+rc7Ep6MTp8ZIhhiN4fKZLb19eyrdf//4z92TqhDik/5bnw9kOpQTGk1jNIYryKwSBEPxxFfvvK+NkVIqKSthEFqGGI3h6jILjK4FupGUFcIhLxrD1ZJSOqxCK+9rLAFAYwCNAaAxgMYAGgNAYwCNATQGgMYAGgNAYwCNATQGgMYAGgNoDACNATQG0BgAGgNoDACNATQG0BgAGgNoDKAxADQG0BhAYwBoDKAxADQG0BhAYwBoDKAxgMYA0BhAYwCNAaAxgMYA0BhAYwCNAaAxgMYAGgNAYwCNATQGgMYAGgNAYwCNATQGgMYAGgNoDEDTXJagvVkhtLDaWmMtq3EhWlgtrmDVaKytSRnz3HRHrDMeN9qwHhdrzJq+WDzheUopGsP5TBjsHBx84x7HYjHm2MW3ADbhddx//MsH1aoQwja7gNKy9O2rXq//sLFhHUcpxdvcBKWUX63OTE5mRkastVJKGgOuHfaKbS6Koubuvv8ex3GEEFrr1668PAW9cv1a7BitdRznMmvIHEMLz4fGCCG2trZKpdLs7KwxRimllCoUCtlstlQqTUxMTE9Pt9uGkzceLaO1Vkrlcrn19XXHcTzPa0ywdDq9t7e3srIyPj7e6JC9ItDkpiufz+dyuWKxuLa25vt+X1/f3Nxcd3d3JpMZGhrq6em5bntF5hj+Y4rFYqlU8n3/8PCwUCisrq6enJwIIYIgCMOwLV8ycwwtIqXUWs/Pz+/v7+fz+eXl5e3t7ampqYGBgcZf2/WFM8fQUsaYcrkspaxUKtlsdmZm5mxzaK1tv8MYjaHl/3BKeZ5nrd3c3FxcXPQ876yrWCx2yaeWaAx42VI2mx0dHR0eHm58fN9ob3d3d2dnp/02jTSGlh7JhBC9vb1LS0tjY2ONj/IbFwcHBxcWFlKplJTt9p0t30Gj1aIocl33tcf/mn4akMaAc5xb1KtjjcYAcB4DaAygMQA0BtAY8H/2D4QBRgSxRjUYAAAAAElFTkSuQmCC;connectable=0;recursiveResize=0;expand=0;editable=0;" parent="1" vertex="1">
          <mxGeometry x="240" y="-172.98" width="261" height="842.98" as="geometry" />
        </mxCell>
        <mxCell id="ppncYABJLe93gj94P2A9-2" value="Untitled Layer" parent="0" />
        <mxCell id="bA9mAQXY4b4NPgS__x4M-79" value="" style="rounded=0;whiteSpace=wrap;html=1;fillColor=#000000;strokeWidth=2;strokeColor=#666666;" vertex="1" parent="ppncYABJLe93gj94P2A9-2">
          <mxGeometry x="235" y="-188" width="265" height="852" as="geometry" />
        </mxCell>
        <mxCell id="bA9mAQXY4b4NPgS__x4M-77" value="" style="rounded=0;whiteSpace=wrap;html=1;fillColor=#000000;strokeColor=#006E00;" vertex="1" parent="ppncYABJLe93gj94P2A9-2">
          <mxGeometry x="253" y="417" width="132" height="103" as="geometry" />
        </mxCell>
        <mxCell id="bA9mAQXY4b4NPgS__x4M-78" value="" style="rounded=0;whiteSpace=wrap;html=1;strokeColor=#00FF00;fillColor=#000000;" vertex="1" parent="ppncYABJLe93gj94P2A9-2">
          <mxGeometry x="350" y="416" width="35" height="83" as="geometry" />
        </mxCell>
        <mxCell id="bA9mAQXY4b4NPgS__x4M-73" value="" style="rounded=0;whiteSpace=wrap;html=1;fillColor=#000000;strokeColor=#00FF00;" vertex="1" parent="ppncYABJLe93gj94P2A9-2">
          <mxGeometry x="412" y="444" width="70" height="80" as="geometry" />
        </mxCell>
        <mxCell id="bA9mAQXY4b4NPgS__x4M-8" value="" style="rounded=0;whiteSpace=wrap;html=1;strokeColor=#00FF00;fillColor=#000000;" vertex="1" parent="ppncYABJLe93gj94P2A9-2">
          <mxGeometry x="253" y="-41" width="229" height="291" as="geometry" />
        </mxCell>
        <mxCell id="ppncYABJLe93gj94P2A9-6" value="" style="rounded=0;whiteSpace=wrap;html=1;strokeColor=#00FF00;fillColor=#000000;" parent="ppncYABJLe93gj94P2A9-2" vertex="1">
          <mxGeometry x="384" y="-41" width="98" height="60" as="geometry" />
        </mxCell>
        <mxCell id="ppncYABJLe93gj94P2A9-8" value="" style="rounded=0;whiteSpace=wrap;html=1;strokeColor=#00FF00;fillColor=#000000;" parent="ppncYABJLe93gj94P2A9-2" vertex="1">
          <mxGeometry x="384" y="-4" width="23" height="34" as="geometry" />
        </mxCell>
        <mxCell id="ppncYABJLe93gj94P2A9-11" value="" style="endArrow=none;html=1;rounded=0;strokeColor=#00FF00;" parent="ppncYABJLe93gj94P2A9-2" edge="1">
          <mxGeometry width="50" height="50" relative="1" as="geometry">
            <mxPoint x="384" y="54" as="sourcePoint" />
            <mxPoint x="384" y="54" as="targetPoint" />
            <Array as="points">
              <mxPoint x="412" y="54" />
              <mxPoint x="422" y="46" />
              <mxPoint x="422" y="19" />
              <mxPoint x="407" y="19" />
              <mxPoint x="407" y="30" />
              <mxPoint x="384" y="30" />
            </Array>
          </mxGeometry>
        </mxCell>
        <mxCell id="ppncYABJLe93gj94P2A9-15" value="" style="rounded=0;whiteSpace=wrap;html=1;strokeColor=#00FF00;fillColor=#000000;" parent="ppncYABJLe93gj94P2A9-2" vertex="1">
          <mxGeometry x="444" y="81" width="38" height="42" as="geometry" />
        </mxCell>
        <mxCell id="ppncYABJLe93gj94P2A9-16" value="" style="rounded=0;whiteSpace=wrap;html=1;strokeColor=#00FF00;fillColor=#000000;" parent="ppncYABJLe93gj94P2A9-2" vertex="1">
          <mxGeometry x="384" y="96" width="38" height="42" as="geometry" />
        </mxCell>
        <mxCell id="ppncYABJLe93gj94P2A9-17" value="" style="rounded=0;whiteSpace=wrap;html=1;strokeColor=#00FF00;fillColor=#000000;" parent="ppncYABJLe93gj94P2A9-2" vertex="1">
          <mxGeometry x="454" y="-4" width="28" height="49" as="geometry" />
        </mxCell>
        <mxCell id="ppncYABJLe93gj94P2A9-18" value="" style="rounded=0;whiteSpace=wrap;html=1;strokeColor=#00FF00;fillColor=#000000;" parent="ppncYABJLe93gj94P2A9-2" vertex="1">
          <mxGeometry x="422" y="19" width="32" height="26" as="geometry" />
        </mxCell>
        <mxCell id="bA9mAQXY4b4NPgS__x4M-1" value="" style="rounded=0;whiteSpace=wrap;html=1;dashed=1;strokeColor=#00FF00;fillColor=#000000;" vertex="1" parent="ppncYABJLe93gj94P2A9-2">
          <mxGeometry x="385" y="55" width="14" height="40" as="geometry" />
        </mxCell>
        <mxCell id="bA9mAQXY4b4NPgS__x4M-3" value="" style="rounded=0;whiteSpace=wrap;html=1;strokeColor=#00FF00;fillColor=#000000;" vertex="1" parent="ppncYABJLe93gj94P2A9-2">
          <mxGeometry x="253" y="-41" width="97" height="90" as="geometry" />
        </mxCell>
        <mxCell id="bA9mAQXY4b4NPgS__x4M-6" value="" style="rounded=0;whiteSpace=wrap;html=1;rotation=-45;strokeColor=#00FF00;fillColor=#000000;" vertex="1" parent="ppncYABJLe93gj94P2A9-2">
          <mxGeometry x="252.99" y="57.49" width="29" height="12" as="geometry" />
        </mxCell>
        <mxCell id="bA9mAQXY4b4NPgS__x4M-10" value="" style="rounded=0;whiteSpace=wrap;html=1;strokeColor=#00FF00;fillColor=#000000;" vertex="1" parent="ppncYABJLe93gj94P2A9-2">
          <mxGeometry x="253" y="-138" width="97" height="97" as="geometry" />
        </mxCell>
        <mxCell id="bA9mAQXY4b4NPgS__x4M-11" value="" style="rounded=0;whiteSpace=wrap;html=1;strokeColor=#00FF00;fillColor=#000000;" vertex="1" parent="ppncYABJLe93gj94P2A9-2">
          <mxGeometry x="350" y="-97" width="111" height="56" as="geometry" />
        </mxCell>
        <mxCell id="bA9mAQXY4b4NPgS__x4M-13" value="" style="rounded=0;whiteSpace=wrap;html=1;fillColor=#000000;strokeColor=#006E00;" vertex="1" parent="ppncYABJLe93gj94P2A9-2">
          <mxGeometry x="274" y="-167" width="56" height="28" as="geometry" />
        </mxCell>
        <mxCell id="bA9mAQXY4b4NPgS__x4M-14" value="" style="rounded=0;whiteSpace=wrap;html=1;fillColor=#000000;strokeColor=#006E00;" vertex="1" parent="ppncYABJLe93gj94P2A9-2">
          <mxGeometry x="274" y="318" width="56" height="28" as="geometry" />
        </mxCell>
        <mxCell id="bA9mAQXY4b4NPgS__x4M-15" value="" style="rounded=0;whiteSpace=wrap;html=1;strokeColor=#00FF00;fillColor=#000000;" vertex="1" parent="ppncYABJLe93gj94P2A9-2">
          <mxGeometry x="253" y="347" width="97" height="97" as="geometry" />
        </mxCell>
        <mxCell id="bA9mAQXY4b4NPgS__x4M-17" value="" style="verticalLabelPosition=bottom;verticalAlign=top;html=1;shape=mxgraph.basic.orthogonal_triangle;strokeColor=#00FF00;fillColor=#000000;" vertex="1" parent="ppncYABJLe93gj94P2A9-2">
          <mxGeometry x="350" y="367" width="19" height="20" as="geometry" />
        </mxCell>
        <mxCell id="bA9mAQXY4b4NPgS__x4M-18" value="" style="verticalLabelPosition=bottom;verticalAlign=top;html=1;shape=mxgraph.basic.orthogonal_triangle;strokeColor=none;fillColor=#000000;" vertex="1" parent="ppncYABJLe93gj94P2A9-2">
          <mxGeometry x="349" y="367" width="18" height="20" as="geometry" />
        </mxCell>
        <mxCell id="bA9mAQXY4b4NPgS__x4M-19" value="" style="rounded=0;whiteSpace=wrap;html=1;strokeColor=#00FF00;fillColor=#000000;" vertex="1" parent="ppncYABJLe93gj94P2A9-2">
          <mxGeometry x="350" y="388" width="21" height="28" as="geometry" />
        </mxCell>
        <mxCell id="bA9mAQXY4b4NPgS__x4M-22" value="" style="rounded=0;whiteSpace=wrap;html=1;strokeColor=#00FF00;fillColor=#000000;" vertex="1" parent="ppncYABJLe93gj94P2A9-2">
          <mxGeometry x="371" y="415" width="7" height="28" as="geometry" />
        </mxCell>
        <mxCell id="bA9mAQXY4b4NPgS__x4M-27" value="" style="rounded=0;whiteSpace=wrap;html=1;strokeColor=#00FF00;fillColor=#000000;" vertex="1" parent="ppncYABJLe93gj94P2A9-2">
          <mxGeometry x="378" y="415" width="7" height="28" as="geometry" />
        </mxCell>
        <mxCell id="bA9mAQXY4b4NPgS__x4M-28" value="" style="rounded=0;whiteSpace=wrap;html=1;strokeColor=#00FF00;fillColor=#000000;" vertex="1" parent="ppncYABJLe93gj94P2A9-2">
          <mxGeometry x="385" y="415" width="7" height="28" as="geometry" />
        </mxCell>
        <mxCell id="bA9mAQXY4b4NPgS__x4M-29" value="" style="rounded=0;whiteSpace=wrap;html=1;strokeColor=#00FF00;fillColor=#000000;" vertex="1" parent="ppncYABJLe93gj94P2A9-2">
          <mxGeometry x="392" y="415" width="7" height="28" as="geometry" />
        </mxCell>
        <mxCell id="bA9mAQXY4b4NPgS__x4M-30" value="" style="rounded=0;whiteSpace=wrap;html=1;strokeColor=#00FF00;fillColor=#000000;" vertex="1" parent="ppncYABJLe93gj94P2A9-2">
          <mxGeometry x="399" y="415" width="7" height="28" as="geometry" />
        </mxCell>
        <mxCell id="bA9mAQXY4b4NPgS__x4M-31" value="" style="rounded=0;whiteSpace=wrap;html=1;strokeColor=#00FF00;fillColor=#000000;" vertex="1" parent="ppncYABJLe93gj94P2A9-2">
          <mxGeometry x="406" y="415" width="7" height="28" as="geometry" />
        </mxCell>
        <mxCell id="bA9mAQXY4b4NPgS__x4M-32" value="" style="rounded=0;whiteSpace=wrap;html=1;strokeColor=#00FF00;fillColor=#000000;" vertex="1" parent="ppncYABJLe93gj94P2A9-2">
          <mxGeometry x="413" y="415" width="7" height="28" as="geometry" />
        </mxCell>
        <mxCell id="bA9mAQXY4b4NPgS__x4M-33" value="" style="rounded=0;whiteSpace=wrap;html=1;strokeColor=#00FF00;fillColor=#000000;" vertex="1" parent="ppncYABJLe93gj94P2A9-2">
          <mxGeometry x="420" y="415" width="7" height="28" as="geometry" />
        </mxCell>
        <mxCell id="bA9mAQXY4b4NPgS__x4M-34" value="" style="rounded=0;whiteSpace=wrap;html=1;strokeColor=#00FF00;fillColor=#000000;" vertex="1" parent="ppncYABJLe93gj94P2A9-2">
          <mxGeometry x="427" y="415" width="7" height="28" as="geometry" />
        </mxCell>
        <mxCell id="bA9mAQXY4b4NPgS__x4M-35" value="" style="rounded=0;whiteSpace=wrap;html=1;strokeColor=#00FF00;fillColor=#000000;" vertex="1" parent="ppncYABJLe93gj94P2A9-2">
          <mxGeometry x="371" y="388" width="7" height="28" as="geometry" />
        </mxCell>
        <mxCell id="bA9mAQXY4b4NPgS__x4M-36" value="" style="rounded=0;whiteSpace=wrap;html=1;strokeColor=#00FF00;fillColor=#000000;" vertex="1" parent="ppncYABJLe93gj94P2A9-2">
          <mxGeometry x="378" y="388" width="7" height="28" as="geometry" />
        </mxCell>
        <mxCell id="bA9mAQXY4b4NPgS__x4M-37" value="" style="rounded=0;whiteSpace=wrap;html=1;strokeColor=#00FF00;fillColor=#000000;" vertex="1" parent="ppncYABJLe93gj94P2A9-2">
          <mxGeometry x="385" y="388" width="7" height="28" as="geometry" />
        </mxCell>
        <mxCell id="bA9mAQXY4b4NPgS__x4M-38" value="" style="rounded=0;whiteSpace=wrap;html=1;strokeColor=#00FF00;fillColor=#000000;" vertex="1" parent="ppncYABJLe93gj94P2A9-2">
          <mxGeometry x="392" y="388" width="7" height="28" as="geometry" />
        </mxCell>
        <mxCell id="bA9mAQXY4b4NPgS__x4M-39" value="" style="rounded=0;whiteSpace=wrap;html=1;strokeColor=#00FF00;fillColor=#000000;" vertex="1" parent="ppncYABJLe93gj94P2A9-2">
          <mxGeometry x="399" y="388" width="7" height="28" as="geometry" />
        </mxCell>
        <mxCell id="bA9mAQXY4b4NPgS__x4M-40" value="" style="rounded=0;whiteSpace=wrap;html=1;strokeColor=#00FF00;fillColor=#000000;" vertex="1" parent="ppncYABJLe93gj94P2A9-2">
          <mxGeometry x="406" y="388" width="7" height="28" as="geometry" />
        </mxCell>
        <mxCell id="bA9mAQXY4b4NPgS__x4M-41" value="" style="rounded=0;whiteSpace=wrap;html=1;strokeColor=#00FF00;fillColor=#000000;" vertex="1" parent="ppncYABJLe93gj94P2A9-2">
          <mxGeometry x="413" y="388" width="7" height="28" as="geometry" />
        </mxCell>
        <mxCell id="bA9mAQXY4b4NPgS__x4M-42" value="" style="rounded=0;whiteSpace=wrap;html=1;strokeColor=#00FF00;fillColor=#000000;" vertex="1" parent="ppncYABJLe93gj94P2A9-2">
          <mxGeometry x="420" y="388" width="7" height="28" as="geometry" />
        </mxCell>
        <mxCell id="bA9mAQXY4b4NPgS__x4M-43" value="" style="rounded=0;whiteSpace=wrap;html=1;strokeColor=#00FF00;fillColor=#000000;" vertex="1" parent="ppncYABJLe93gj94P2A9-2">
          <mxGeometry x="427" y="388" width="7" height="28" as="geometry" />
        </mxCell>
        <mxCell id="bA9mAQXY4b4NPgS__x4M-44" value="" style="rounded=0;whiteSpace=wrap;html=1;strokeColor=#00FF00;fillColor=#000000;" vertex="1" parent="ppncYABJLe93gj94P2A9-2">
          <mxGeometry x="434" y="388" width="27" height="55" as="geometry" />
        </mxCell>
        <mxCell id="bA9mAQXY4b4NPgS__x4M-46" value="" style="rounded=0;whiteSpace=wrap;html=1;strokeColor=#00FF00;fillColor=#000000;" vertex="1" parent="ppncYABJLe93gj94P2A9-2">
          <mxGeometry x="384" y="-69" width="7" height="27" as="geometry" />
        </mxCell>
        <mxCell id="bA9mAQXY4b4NPgS__x4M-47" value="" style="rounded=0;whiteSpace=wrap;html=1;strokeColor=#00FF00;fillColor=#000000;" vertex="1" parent="ppncYABJLe93gj94P2A9-2">
          <mxGeometry x="391" y="-69" width="7" height="27" as="geometry" />
        </mxCell>
        <mxCell id="bA9mAQXY4b4NPgS__x4M-48" value="" style="rounded=0;whiteSpace=wrap;html=1;strokeColor=#00FF00;fillColor=#000000;" vertex="1" parent="ppncYABJLe93gj94P2A9-2">
          <mxGeometry x="398" y="-69" width="7" height="27" as="geometry" />
        </mxCell>
        <mxCell id="bA9mAQXY4b4NPgS__x4M-49" value="" style="rounded=0;whiteSpace=wrap;html=1;strokeColor=#00FF00;fillColor=#000000;" vertex="1" parent="ppncYABJLe93gj94P2A9-2">
          <mxGeometry x="405" y="-69" width="7" height="27" as="geometry" />
        </mxCell>
        <mxCell id="bA9mAQXY4b4NPgS__x4M-50" value="" style="rounded=0;whiteSpace=wrap;html=1;strokeColor=#00FF00;fillColor=#000000;" vertex="1" parent="ppncYABJLe93gj94P2A9-2">
          <mxGeometry x="412" y="-69" width="7" height="27" as="geometry" />
        </mxCell>
        <mxCell id="bA9mAQXY4b4NPgS__x4M-51" value="" style="rounded=0;whiteSpace=wrap;html=1;strokeColor=#00FF00;fillColor=#000000;" vertex="1" parent="ppncYABJLe93gj94P2A9-2">
          <mxGeometry x="419" y="-69" width="7" height="27" as="geometry" />
        </mxCell>
        <mxCell id="bA9mAQXY4b4NPgS__x4M-52" value="" style="rounded=0;whiteSpace=wrap;html=1;strokeColor=#00FF00;fillColor=#000000;" vertex="1" parent="ppncYABJLe93gj94P2A9-2">
          <mxGeometry x="426" y="-69" width="7" height="27" as="geometry" />
        </mxCell>
        <mxCell id="bA9mAQXY4b4NPgS__x4M-53" value="" style="rounded=0;whiteSpace=wrap;html=1;strokeColor=#00FF00;fillColor=#000000;" vertex="1" parent="ppncYABJLe93gj94P2A9-2">
          <mxGeometry x="433" y="-69" width="7" height="27" as="geometry" />
        </mxCell>
        <mxCell id="bA9mAQXY4b4NPgS__x4M-55" value="" style="rounded=0;whiteSpace=wrap;html=1;strokeColor=#00FF00;fillColor=#000000;" vertex="1" parent="ppncYABJLe93gj94P2A9-2">
          <mxGeometry x="384" y="-96" width="7" height="27" as="geometry" />
        </mxCell>
        <mxCell id="bA9mAQXY4b4NPgS__x4M-56" value="" style="rounded=0;whiteSpace=wrap;html=1;strokeColor=#00FF00;fillColor=#000000;" vertex="1" parent="ppncYABJLe93gj94P2A9-2">
          <mxGeometry x="391" y="-96" width="7" height="27" as="geometry" />
        </mxCell>
        <mxCell id="bA9mAQXY4b4NPgS__x4M-57" value="" style="rounded=0;whiteSpace=wrap;html=1;strokeColor=#00FF00;fillColor=#000000;" vertex="1" parent="ppncYABJLe93gj94P2A9-2">
          <mxGeometry x="398" y="-96" width="7" height="27" as="geometry" />
        </mxCell>
        <mxCell id="bA9mAQXY4b4NPgS__x4M-58" value="" style="rounded=0;whiteSpace=wrap;html=1;strokeColor=#00FF00;fillColor=#000000;" vertex="1" parent="ppncYABJLe93gj94P2A9-2">
          <mxGeometry x="405" y="-96" width="7" height="27" as="geometry" />
        </mxCell>
        <mxCell id="bA9mAQXY4b4NPgS__x4M-59" value="" style="rounded=0;whiteSpace=wrap;html=1;strokeColor=#00FF00;fillColor=#000000;" vertex="1" parent="ppncYABJLe93gj94P2A9-2">
          <mxGeometry x="412" y="-96" width="7" height="27" as="geometry" />
        </mxCell>
        <mxCell id="bA9mAQXY4b4NPgS__x4M-60" value="" style="rounded=0;whiteSpace=wrap;html=1;strokeColor=#00FF00;fillColor=#000000;" vertex="1" parent="ppncYABJLe93gj94P2A9-2">
          <mxGeometry x="419" y="-96" width="7" height="27" as="geometry" />
        </mxCell>
        <mxCell id="bA9mAQXY4b4NPgS__x4M-61" value="" style="rounded=0;whiteSpace=wrap;html=1;strokeColor=#00FF00;fillColor=#000000;" vertex="1" parent="ppncYABJLe93gj94P2A9-2">
          <mxGeometry x="426" y="-96" width="7" height="27" as="geometry" />
        </mxCell>
        <mxCell id="bA9mAQXY4b4NPgS__x4M-62" value="" style="rounded=0;whiteSpace=wrap;html=1;strokeColor=#00FF00;fillColor=#000000;" vertex="1" parent="ppncYABJLe93gj94P2A9-2">
          <mxGeometry x="433" y="-96" width="7" height="27" as="geometry" />
        </mxCell>
        <mxCell id="bA9mAQXY4b4NPgS__x4M-63" value="" style="rounded=0;whiteSpace=wrap;html=1;strokeColor=#00FF00;fillColor=#000000;" vertex="1" parent="ppncYABJLe93gj94P2A9-2">
          <mxGeometry x="433" y="-96" width="28" height="54" as="geometry" />
        </mxCell>
        <mxCell id="bA9mAQXY4b4NPgS__x4M-64" value="" style="rounded=0;whiteSpace=wrap;html=1;strokeColor=none;fillColor=#000000;" vertex="1" parent="ppncYABJLe93gj94P2A9-2">
          <mxGeometry x="351" y="-75" width="32" height="60" as="geometry" />
        </mxCell>
        <mxCell id="bA9mAQXY4b4NPgS__x4M-65" value="" style="rounded=0;whiteSpace=wrap;html=1;rotation=-45;fontColor=#333333;strokeColor=none;fillColor=#000000;" vertex="1" parent="ppncYABJLe93gj94P2A9-2">
          <mxGeometry x="251.99" y="57.49000000000001" width="27" height="7" as="geometry" />
        </mxCell>
        <mxCell id="bA9mAQXY4b4NPgS__x4M-66" value="" style="verticalLabelPosition=bottom;verticalAlign=top;html=1;shape=mxgraph.basic.orthogonal_triangle;strokeColor=#00FF00;fillColor=#000000;" vertex="1" parent="ppncYABJLe93gj94P2A9-2">
          <mxGeometry x="350" y="-117" width="19" height="20" as="geometry" />
        </mxCell>
        <mxCell id="bA9mAQXY4b4NPgS__x4M-67" value="" style="verticalLabelPosition=bottom;verticalAlign=top;html=1;shape=mxgraph.basic.orthogonal_triangle;strokeColor=none;fillColor=#000000;" vertex="1" parent="ppncYABJLe93gj94P2A9-2">
          <mxGeometry x="351" y="-114" width="20" height="20" as="geometry" />
        </mxCell>
        <mxCell id="bA9mAQXY4b4NPgS__x4M-68" value="" style="rounded=0;whiteSpace=wrap;html=1;strokeColor=#00FF00;fillColor=#000000;" vertex="1" parent="ppncYABJLe93gj94P2A9-2">
          <mxGeometry x="385" y="568" width="97" height="84" as="geometry" />
        </mxCell>
        <mxCell id="bA9mAQXY4b4NPgS__x4M-69" value="" style="rounded=0;whiteSpace=wrap;html=1;strokeColor=#00FF00;fillColor=#000000;" vertex="1" parent="ppncYABJLe93gj94P2A9-2">
          <mxGeometry x="385" y="464" width="27" height="104" as="geometry" />
        </mxCell>
        <mxCell id="bA9mAQXY4b4NPgS__x4M-70" value="" style="rounded=0;whiteSpace=wrap;html=1;strokeColor=#00FF00;fillColor=#000000;" vertex="1" parent="ppncYABJLe93gj94P2A9-2">
          <mxGeometry x="412" y="524" width="70" height="44" as="geometry" />
        </mxCell>
        <mxCell id="bA9mAQXY4b4NPgS__x4M-71" value="" style="shape=card;whiteSpace=wrap;html=1;rotation=-90;size=13;strokeColor=#00FF00;fillColor=#000000;" vertex="1" parent="ppncYABJLe93gj94P2A9-2">
          <mxGeometry x="451.24" y="445.4" width="32.16" height="28.38" as="geometry" />
        </mxCell>
        <mxCell id="bA9mAQXY4b4NPgS__x4M-72" value="" style="rounded=0;whiteSpace=wrap;html=1;strokeColor=#00FF00;fillColor=#000000;" vertex="1" parent="ppncYABJLe93gj94P2A9-2">
          <mxGeometry x="370" y="444" width="42" height="20" as="geometry" />
        </mxCell>
        <mxCell id="bA9mAQXY4b4NPgS__x4M-74" value="" style="rounded=0;whiteSpace=wrap;html=1;dashed=1;strokeColor=#00FF00;fillColor=#000000;" vertex="1" parent="ppncYABJLe93gj94P2A9-2">
          <mxGeometry x="413" y="444" width="40" height="18" as="geometry" />
        </mxCell>
        <mxCell id="bA9mAQXY4b4NPgS__x4M-75" value="" style="rounded=0;whiteSpace=wrap;html=1;dashed=1;strokeColor=#00FF00;fillColor=#000000;" vertex="1" parent="ppncYABJLe93gj94P2A9-2">
          <mxGeometry x="433" y="505" width="48" height="18" as="geometry" />
        </mxCell>
        <mxCell id="bA9mAQXY4b4NPgS__x4M-76" value="" style="rounded=0;whiteSpace=wrap;html=1;strokeColor=#00FF00;fillColor=#000000;" vertex="1" parent="ppncYABJLe93gj94P2A9-2">
          <mxGeometry x="412" y="504" width="20" height="20" as="geometry" />
        </mxCell>
        <mxCell id="bA9mAQXY4b4NPgS__x4M-80" value="" style="rounded=0;whiteSpace=wrap;html=1;strokeColor=#00FF00;fillColor=none;" vertex="1" parent="ppncYABJLe93gj94P2A9-2">
          <mxGeometry x="384" y="-41" width="98" height="291" as="geometry" />
        </mxCell>
        <mxCell id="bA9mAQXY4b4NPgS__x4M-81" value="" style="rounded=0;whiteSpace=wrap;html=1;fillColor=#000000;strokeColor=#00FF00;" vertex="1" parent="ppncYABJLe93gj94P2A9-2">
          <mxGeometry x="253" y="166" width="131" height="83" as="geometry" />
        </mxCell>
        <mxCell id="bA9mAQXY4b4NPgS__x4M-7" value="" style="rounded=0;whiteSpace=wrap;html=1;fillColor=#000000;strokeColor=#005400;" vertex="1" parent="ppncYABJLe93gj94P2A9-2">
          <mxGeometry x="253" y="167" width="130" height="83" as="geometry" />
        </mxCell>
        <mxCell id="bA9mAQXY4b4NPgS__x4M-82" value="" style="shape=card;whiteSpace=wrap;html=1;strokeWidth=1;fillColor=none;size=14;dashed=1;strokeColor=#00FF00;" vertex="1" parent="ppncYABJLe93gj94P2A9-2">
          <mxGeometry x="445" y="58" width="36" height="22" as="geometry" />
        </mxCell>
        <mxCell id="bA9mAQXY4b4NPgS__x4M-83" value="" style="shape=card;whiteSpace=wrap;html=1;strokeWidth=1;fillColor=none;size=11;strokeColor=#00FF00;rotation=90;" vertex="1" parent="ppncYABJLe93gj94P2A9-2">
          <mxGeometry x="447.75" y="26.25" width="25" height="12.5" as="geometry" />
        </mxCell>
      </root>
    </mxGraphModel>
  </diagram>
  <diagram name="Floor 1" id="ioy6876v57RVQchW4MHB">
    <mxGraphModel dx="1350" dy="804" grid="0" gridSize="10" guides="0" tooltips="1" connect="0" arrows="0" fold="1" page="1" pageScale="1" pageWidth="850" pageHeight="1100" background="#000000" math="0" shadow="0">
      <root>
        <mxCell id="b-Og6RxiusYoXk2nJn2m-0" />
        <mxCell id="b-Og6RxiusYoXk2nJn2m-1" value="Background" visible="0" parent="b-Og6RxiusYoXk2nJn2m-0" />
        <mxCell id="b-Og6RxiusYoXk2nJn2m-2" value="" style="shape=image;imageAspect=0;aspect=fixed;verticalLabelPosition=bottom;verticalAlign=top;strokeColor=#00FF00;strokeWidth=1;fillColor=none;image=data:image/png,iVBORw0KGgoAAAANSUhEUgAAAR4AAAHoCAIAAAAQYBeFAAAAinpUWHRSYXcgcHJvZmlsZSB0eXBlIGV4aWYAAHjaVY7ZCcQwDET/VcWWoMs6ylmCDekg5a8cmw15H9KMEMNAv84BnwmhgjYPSzMsNDX5WyJwIYjESHPXXOwtVIrLbg/CS1iGoz6PqviiiYUNV3drdtjBlc5d5J4kCPfXDJtV8gmivpW87z3+3VaTHwAXLUhERZAPAAAKBmlUWHRYTUw6Y29tLmFkb2JlLnhtcAAAAAAAPD94cGFja2V0IGJlZ2luPSLvu78iIGlkPSJXNU0wTXBDZWhpSHpyZVN6TlRjemtjOWQiPz4KPHg6eG1wbWV0YSB4bWxuczp4PSJhZG9iZTpuczptZXRhLyIgeDp4bXB0az0iWE1QIENvcmUgNC40LjAtRXhpdjIiPgogPHJkZjpSREYgeG1sbnM6cmRmPSJodHRwOi8vd3d3LnczLm9yZy8xOTk5LzAyLzIyLXJkZi1zeW50YXgtbnMjIj4KICA8cmRmOkRlc2NyaXB0aW9uIHJkZjphYm91dD0iIgogICAgeG1sbnM6ZXhpZj0iaHR0cDovL25zLmFkb2JlLmNvbS9leGlmLzEuMC8iCiAgICB4bWxuczp0aWZmPSJodHRwOi8vbnMuYWRvYmUuY29tL3RpZmYvMS4wLyIKICAgZXhpZjpQaXhlbFhEaW1lbnNpb249IjI4NiIKICAgZXhpZjpQaXhlbFlEaW1lbnNpb249IjQ4OCIKICAgdGlmZjpJbWFnZVdpZHRoPSIyODYiCiAgIHRpZmY6SW1hZ2VIZWlnaHQ9IjQ4OCIKICAgdGlmZjpPcmllbnRhdGlvbj0iMSIvPgogPC9yZGY6UkRGPgo8L3g6eG1wbWV0YT4KICAgICAgICAgICAgICAgICAgICAgICAgICAgICAgICAgICAgICAgICAgICAgICAgICAgICAgICAgICAgICAgICAgICAgICAgICAgICAgICAgICAgICAgICAgICAgICAgICAgIAogICAgICAgICAgICAgICAgICAgICAgICAgICAgICAgICAgICAgICAgICAgICAgICAgICAgICAgICAgICAgICAgICAgICAgICAgICAgICAgICAgICAgICAgICAgICAgICAgICAgCiAgICAgICAgICAgICAgICAgICAgICAgICAgICAgICAgICAgICAgICAgICAgICAgICAgICAgICAgICAgICAgICAgICAgICAgICAgICAgICAgICAgICAgICAgICAgICAgICAgICAKICAgICAgICAgICAgICAgICAgICAgICAgICAgICAgICAgICAgICAgICAgICAgICAgICAgICAgICAgICAgICAgICAgICAgICAgICAgICAgICAgICAgICAgICAgICAgICAgICAgIAogICAgICAgICAgICAgICAgICAgICAgICAgICAgICAgICAgICAgICAgICAgICAgICAgICAgICAgICAgICAgICAgICAgICAgICAgICAgICAgICAgICAgICAgICAgICAgICAgICAgCiAgICAgICAgICAgICAgICAgICAgICAgICAgICAgICAgICAgICAgICAgICAgICAgICAgICAgICAgICAgICAgICAgICAgICAgICAgICAgICAgICAgICAgICAgICAgICAgICAgICAKICAgICAgICAgICAgICAgICAgICAgICAgICAgICAgICAgICAgICAgICAgICAgICAgICAgICAgICAgICAgICAgICAgICAgICAgICAgICAgICAgICAgICAgICAgICAgICAgICAgIAogICAgICAgICAgICAgICAgICAgICAgICAgICAgICAgICAgICAgICAgICAgICAgICAgICAgICAgICAgICAgICAgICAgICAgICAgICAgICAgICAgICAgICAgICAgICAgICAgICAgCiAgICAgICAgICAgICAgICAgICAgICAgICAgICAgICAgICAgICAgICAgICAgICAgICAgICAgICAgICAgICAgICAgICAgICAgICAgICAgICAgICAgICAgICAgICAgICAgICAgICAKICAgICAgICAgICAgICAgICAgICAgICAgICAgICAgICAgICAgICAgICAgICAgICAgICAgICAgICAgICAgICAgICAgICAgICAgICAgICAgICAgICAgICAgICAgICAgICAgICAgIAogICAgICAgICAgICAgICAgICAgICAgICAgICAgICAgICAgICAgICAgICAgICAgICAgICAgICAgICAgICAgICAgICAgICAgICAgICAgICAgICAgICAgICAgICAgICAgICAgICAgCiAgICAgICAgICAgICAgICAgICAgICAgICAgICAgICAgICAgICAgICAgICAgICAgICAgICAgICAgICAgICAgICAgICAgICAgICAgICAgICAgICAgICAgICAgICAgICAgICAgICAKICAgICAgICAgICAgICAgICAgICAgICAgICAgICAgICAgICAgICAgICAgICAgICAgICAgICAgICAgICAgICAgICAgICAgICAgICAgICAgICAgICAgICAgICAgICAgICAgICAgIAogICAgICAgICAgICAgICAgICAgICAgICAgICAgICAgICAgICAgICAgICAgICAgICAgICAgICAgICAgICAgICAgICAgICAgICAgICAgICAgICAgICAgICAgICAgICAgICAgICAgCiAgICAgICAgICAgICAgICAgICAgICAgICAgICAgICAgICAgICAgICAgICAgICAgICAgICAgICAgICAgICAgICAgICAgICAgICAgICAgICAgICAgICAgICAgICAgICAgICAgICAKICAgICAgICAgICAgICAgICAgICAgICAgICAgICAgICAgICAgICAgICAgICAgICAgICAgICAgICAgICAgICAgICAgICAgICAgICAgICAgICAgICAgICAgICAgICAgICAgICAgIAogICAgICAgICAgICAgICAgICAgICAgICAgICAgICAgICAgICAgICAgICAgICAgICAgICAgICAgICAgICAgICAgICAgICAgICAgICAgICAgICAgICAgICAgICAgICAgICAgICAgCiAgICAgICAgICAgICAgICAgICAgICAgICAgICAgICAgICAgICAgICAgICAgICAgICAgICAgICAgICAgICAgICAgICAgICAgICAgICAgICAgICAgICAgICAgICAgICAgICAgICAKICAgICAgICAgICAgICAgICAgICAgICAgICAgICAgICAgICAgICAgICAgICAgICAgICAgICAgICAgICAgICAgICAgICAgICAgICAgICAgICAgICAgICAgICAgICAgICAgICAgIAogICAgICAgICAgICAgICAgICAgICAgICAgICAgICAgICAgICAgICAgICAgICAgICAgICAgICAgICAgICAgICAgICAgICAgICAgICAgICAgICAgICAgICAgICAgICAgICAgICAgCiAgICAgICAgICAgICAgICAgICAgICAgICAgIAo8P3hwYWNrZXQgZW5kPSJ3Ij8+SSjx2wAAAANzQklUCAgI2+FP4AAAH6VJREFUeNrt3Xl8FdXB8PFzzszdcm+Smw0IAYKggCyCyI64VVxRUSAg2Gqp2mprW5+nb6lPXXmfR1tLK+3bYrWf1trqW/eirVSfLk/VFlyq4ELCImBZQwhku/vMnPP8cSEiUkhIAuHy+378VHuNNp07v3vOnJk7I40xAkBnU2wCgLQA0gJICwBpAaQFkBYA0gJICyAtAKQFkBZAWgBICyAtgLQAkBZAWgBpASCtbo37jpzI5EHffmOM0Zqtc4TbVAhPa9vny25JKSXbhLSE53mWZd10002rqqt7lpc7jsM2ai/btht27y70+5957rlAMKi1VorZwYm3Gxz01Xg8Puy6z55xwQWJ5mZ2i3bPA7UOhsN//vkjs2fPfuKJJ4KhEHWR1l6hvLzSioqKin6x4lj32ScOnFxJKYVo3Wu71YGNMebaexb+euE9c2bPfuLJJ6mLtPbSWmcymYxxM+lUN9khpJS2P5BJp/YfHIw2wUgkGYtJJWU323EbUsnP3nkXdZ2w1CF25W5CCOHzB3Zv2/7IzV/JLq4YraWU2tNvPvfb7027/NVfPuplnOxe231+bWVZDY31n73zLt/YMXNmz04lk0opzeIQaXWjlRZP+wIBJUT1q6/mFRSGCwrDhVHL9oUikcFTzlyz4vURU6eGi4u11t1tLW5vXXfc6acu0uqGSwK+vLyNb731+De/lY4nfjr/+iXzr//JtZ+veeUVfyAopYxEo76Av9ueKpBKNTTWX3PHnb4xZ1AXaXWrfVO6Tqa4b9/Tp10ayMsbP2vGuZ+/NhjOk5YlhJDGaM/rzmdmpZRKqezM0D92zGzqIq3us2t6rhvt1WvYuef4gsFJl14eyi8YMnnyiM98JpWIi+NiVUDK1rErMHbM7KqqdCpFXaTVLfZM13ESjY22z9625aNVL7008qIL04n4x0uC3f56Irl/XePGVs2alU6nqYu0usfnvmUbKd9a+vyoiy7Ki0Y91937f0Apadvd/2KiA+uaOTNDXaTVHVi2vW3d+pKKin6jRiZjLVIpIaU0pnHXrhVPPpVsalJKdfPLYQ+oa9bMmZlMhrpI61juklrrQCg497/+78hLLk42NynLklJqrX3B4PwfLZ589Rw7FDwuLoRtXdXYW9eMGY7jUBdpHbtjrUy6sHf5hV/5sudkWvvRrhMuLjrvizcW9e59PF2n/8m6Zl51FWMXaR1LRutkrOXAF41JNDY4mfRxttWz12o07W4du6iLtI7p73qwpfbs5PC43PT7xi5/ti5WNUgLnbb1910JlV3V4HwXaaGT6/r4fBd1kRaoC6R1nNXFdYakhS6oa/y42VVV1EVa6Oy6br8jMH5cVVVVMpGgLtJCJ70f2RX52+8Ijh83Z/Zs6iItdAKjtcmOXbvrsmMXdZEWOtyVMYFQXiCUZ4wJFhTs2bOLukgLnTBe+YOhjStXfv/KGc/ctbDmtdeCkUhrXbOpi7RwZOOVEcJJJR/+/PV9hw+vum3B9uqa9StWhPLzs3WFGLtIC0cQlhAiWljiJFOxhoZzr5/ft0d5+aBTVjz1tN8XFEo2NNbPu/2OIGMXaaFdXSnbZ7Re/vxz1a++prXeuX796uoPnrz9rtK+fY0wct+a4bzb7whNGD+HFXnSQpvKEsKy7V99/d//8tDPUi0t4aLoK7967MUlS0ZPu/Sir94Sb2lUltX6/a553749OHHCnKqqJGeTSQuHPsTy+QMN27bFdu/+96XPTZ9/ffmgQQPPGH3Lj5dcdce3Pc/9+Ef3ffN/3rdvD04YP4croUgLhyCldJ1MQc+ew88798M33njvvVVbV1f3PnVIk5tu2bPn0z/cOjMMTpwwe9asFFfxkhYOMXAJISbNvXrHuvVL773v/C/deNrUqelE3Pb7Dt7ifjPD2Xy/q5t/dB700XU33Hhj0RXTxl96aaypkYdrdHVdlu2zbNto7QsEPn2Tgk//vNG6KFr6+H/9Z2LF688++6w/EOAZKIxaOMhQ5LlOJpV0Mul4c1Nbfr51VSNv4gS++U9aOFQte58b1MaR55NrhtRFWujMHLPfQGmtiztdkxY6782zrIam3dm6qmbMYFWDtNB5799+M8OZM2eyIk9a6NSxa9+qxmzqIi10RV3Z811cq0Fa6OS6rsnWNWsWV/GSFjqzrj37xi7uWkNa6JKZYXjihDlVVQnqIi10bl1zv317YNKEq6uqEvG4UsqwXUgLnfCmZu+49h+3BydOmDt37p76euF5RmthTC7/0c3Y7Ig5SEqlVPa469d33TnlnHMGjRjhZjLi+Hxa0mEY4w8ENqxf982v3Tr3mnmu69q2TVro2rqaWhquXPB/xlfNPDqPIDNCHP12tecVlpT85p6FseZmIUT3edgaaeVwXFIY43lu31NO6fqRwwghbJ/PdRxhjMxeZyyl8TzZxd920Z5XFIqU9ir3+3xMCHH08hJCpFPJru7K5w8IIWo3bSoqL1dKpRNxKaX2dDAcTicTpjW2rkjL9VKhiJvJmG52uEVaJ8bw1ZVd+QPBPdu2/fmhn/UbMnjL2nVnXjOv9+BByVhs7d/+9uL3F5924dTzvjDfH87TWnfFbyKVlN1pHthKtWXbtfFFnICMMb5A4Ok77w4XRa+cf31Z/8onvn27EcIO+AdNnLjlgw8Gjhub37On57oyJxdROpKWZfu05+3/h+e4fF0crUPWzk2bPnz9jTHTr6h106Mvv2zze+9vr1njDwSNMcH8fF8gILQWJ1hXh0vLGKlU7br1ocJofrS0IFpaEC3Nj5YUFZc17Kj1nBPucwifTsvy+eo2bkzFY5GiIu26gXCelHJbdbVt+40xRnsn7ATnUMdaWuu8SP4ff/pTJ5UuLCvLnhgxxth+f80rr8646/ZRF1+cbGmWjGAn9oFcOh7P/lW2IWlZ6XhcihP9Y/cwyxhGSuN5jTt3upmMdt3WrVla2S+2pyH7HABGrhO3q+zad69eQsp0IhEqLNSe1q4T7V2uhSdJ619OFpVKtDSff9NN/U4b4bcDRhghhBZ7x3cnlUzFYxx0neBjlpNJ9xo8qLCsbHtNzSknnbyquiYQyqscOTKTTkulstMc0jrIhvM8r/+okU463dTcLC0ljLFs2/M87XqWz+ZYi9mg57p50aJL/u3W15/97cDBQ/7y8MNnXfe5aEVFqqXZGONmMm8vfaHv0KF2KGi6ZvH9uEwr+5zCd19+Ob+4uP/pp6eTCeXzxfc05EULw8WFqXiMJXgopZLNTZPnXl12Uv9VK1acfuklI6ZOTbU0S6WklF/4yY8HjB3jCwWNMSfaB7F9iLCyk+kX7rv/vBuvP2X8hERLSyi/4Jd3fLW5vv6ir391wOjRtt9HXZBSZpKJIWeemV1STsZapJRGa18oOGb6FU4q9YlHQ5w4HzqH+HuWtOINDaeefdaY6Ze3NO7xh0KpeKz6lVfHXnXliv//xLIHfpgfiXqOy76FbFGpeCzR0tw6OhljEs1NnuucoOP5oQ60tBsuLi4bcNKW1dWF0dJIXv4L990fb2o6//PX5UWjLfW7LPYp7DczlEodsKyVfT4YyxgHqcvNpIefd+6yHyx+7dFf1W366KNVqz7/o8X50hbGeJ7nCSMUKxlAO9OSUrquW9iz54yFd9X89ZXmnXWfXfyD8pNPro03XfJvX6/buLG5pdGyGLqA9o5aQkgpnUzasqwzrrjCFlYqFU/FWqRSkZKSaK9emS7+tgKQs2ll6zLGJJsas9+6yV7W5LmO52S4xAk48rT2BqY+cVAlpRScLwb+NYYdgLQA0gJICwBpAaQFHCvGGK1167Xjxpijfx05N0tDDnYlpcxeJZyNKntlo9b6aH5zl1ELOdhVKpV68803M5mMlFIpVVtbu3PnTqXU0Ry7SAu5dYSj1NatW2fOnHnXXXd97nOfq6ure+ihhyZPnjxnzpw//OEPUsqj9rQxJoTItbRefvnla6+9dtasWWvWrPnyl7/81ltvPfjgg4MHD166dOlZZ52Vl5d3dL7yTFrIQdOmTRNCBIPBP/3pT9OnT7/44ouFEL17947H4+Fw+OhMC0kLuaaiouJb3/pW3759Fy1adPPNN0+YMGHu3LmO4wwfPnz27NlHbTGDtJBTXNe96KKLdu/evWzZsoULF954441CiIKCgi1btsyaNeto3vqGtJBTst+Bmjdv3rx588S+xfezzz57/x8gLeAI6/I8L9uYZVnZVcHs2S1GLaBDDrivxDG5xzPntQDSAkgLIC0ApAWQFkBaAEgLIC2AtACQFkBaAGkBIC2AtADSAkBaAGkBpAWAtADSAkgLQEdxszTkCM/zXNf1PK8jt3RXSnXWndVIC7lAKhWNFtq2bdvdZZcmLRzfjDZSiFRL86OPPrZh83Ynk5FHMOwYY9l2w576y6+4bPLkyZ3yyAXSwvFflxC2HdgTW1nfEm9pTilLCH2wVQX9L9cWtCfyCwPL/vBer169SQvITgWFEcIfyZ9yzqC5Xxi/Z0/CtpQUQn/qiEtJqY2RQh7sOE0Xl+a1NDj5kSgTQmD/aaGOx9K76+PJRKb6/bry3vk9e0ecjFZCeEYHgr4N63cbY/qfVJRKeVLJT6VlhBQt8ZQ2HmkBnxyUlJBKBgP27vrED7/3914VBa6jpRRGGJ/Pqt0R69On4J7vfEZZSslPLSEaaVlSdepzTEgLOUUL4wtYE86s7Fkeyaa1Nx2l8iP+eMzxB6yj8rxV0kIuDVxSplPuoEElU87uH8rzab1fQ8ZobRKJzNF5kPEh01KWEZZUtlRcsYHufJhlZHY1QwgphadFaY9wKuUmk46QUmQ7kkIYIaU4mvvywdPavm3b/3x7wT8e+WkqlVFH8UF6QPvLMv6Q/8OVayum9RLGCGNc1yiV7elYOnhaZWWlQ4bVj5+YH4ulGbQ64+0XSggjD3wx+0GLTjjEumxkYUkkFktblhTCdIdf6eBp+f3+XhXF/U7u1dKUVIo3vwNRCWOM8PmU9oynTXYKYIwRUti20sZo7+BnWtDeLe263icOrrpnWsaYTMZJpzLptENaHSGlCATtXbWxYJ4vnOdLphwhhM+njDH1dbFgni8v5HM+XshCxzZ2d9qM9iF+zX14z46cUvLpx9/PC/sbG9ODBhePndjHc/X2bS1vv7U91pJ5b9WO2XNHjJnQJxF3mHh3whRBHA9poaOzfy0KCvy/fbq65oNd3/nhRavf3/nA/X8/aUBRKOx79snVs64e3rdv4aZNlaGQ7WQ8KWV32zPQ0U9VNkFXforKv/z3xjPGV6TT7qDBpZaSK9/e8c9NTc2NqVMGl8bimX6VhSWlea5rpKQr0kJbojLSsmRzU2pnXSxaHDTGKCXCEf+GDXuCefbKd7a//ea2YNBOpT3HoSvSQnviUkpmUq7n6uyqoDbC77OaGlKnnlp29rkD/vOu/3n2ydWep+kqV3Gs1SWkFJ6nIwWBUNCXTLjGGCVlOu2V9Yzkhe0p51ZGi4LTLh+sbGlZigkhoxbat4wRjvgHDirZuGF3JOJPp9zG5tSIUT1TSe+xX6w67fRe/QcWZdLe9m3NPp80lMWohTYPXDKVdOZee9qvfrZyXc3ud1fu6NunYMKEPsmUU1gU+PXPV7a0pP+5qfGczwzI/jgrhIxaaGNaJp32BpxcfN0XR6+p2eX32zd/bYJR0nW8W74xaezEPps3Nk4+q7Jvv0LH4YiLUQvtPOJKJtzK/tH+A4qUkumU67lGSlNYELzuhtFCyHTKTaddTsqTFto/K1AinfaEEMZkL3AxQgjXNY2NaSmElFyeS1rowNi17z9N61zRoiiOtQCQFkBaAGkBIC2AtADSAkBaAGkBpAWAtADSAkgLAGkBpAWQFgDSAkgLIC0ApAWQFkBaAEgLIC2AtACQFkBaAGkBIC2AtADSAkBaAGkBpAWAtADSAkgLAGkBpAWQFgDSAkgLIC0ApAWQFkBaAEgLIC2AtACQFkBaAGkBIC2AtADSAkgLAGkBpAWQFgDSAkgLIC0ApAWQFkBaAEgLIC2AtACQFkBaAGkBIC2AtADSAkBaAGkBpAWAtADSAkgLAGkBpAWQFgDSAkgLIC0ApAWQFkBaAEgLIC2AtACQFtBltNZt/EmbjQUcmjFGSul5nhDCsixGLeAI2bb92GOPLVq0SAjheZ6U0hiTTCafeuqp9evXZ2MjLaB9Q1T2T9XV1f3798+OVBs2bGhpaYlEIuPGjVuyZInjOJ0zakkpLSk/8c8oKaVsQ7fAcWfvrj5y5MgzzjjDsizLsp5++um7775bCBGNRqurq+PxeHYc61BaUspMxkumXCmlEMIYKaWMxZ1M2vP7lDGStwI5uVYxceLExx57bNmyZY888sjixYsbGhpuuOGGcePG9e7dOxqNaq2llEe+jKG1juT7f3Dfa8NG9Lz48kGNDSmfTxljfEr+8Q/rx4zv06dvQTqjpWT8Qk7xPK9fv36XXXbZQw89tHHjxq997Wu33XbbO++8c8EFF0ybNi075Bz+gO3QQ1Y66RghBg0pibVkAgHr/VW1Jw8uLe0RHnRq2Yu/W3vzLeON8SRDF3KLUsp13VGjRj344IN7j8CMGT169OjRo1vT6OixllTy5FNK8sL+aFEovyD4zJPVTz3+vpCydmds29Zm19OSsJBzLMt6/vnnFy9enJ27ZTIZIcS77757//33b9++XXTKCqE2ZuiIHs89tfrF3625+1t//nDtrki+/9abfv/Q/3tj8pmV2fkh7wRyT21t7W9+85u//vWvQgi/3+84zsiRI0eMGHHPPfcYY9qy2x9mQphJe/1Pip47dcDLv1+vlPiPheeNHVcxemxvI8TAgcWJhKNYvUcucl130qRJvXr1WrJkyTXXXBONRoUQQ4YMWbVqVSqVCoVC2fPIR5jW3sOttB4wsPjWBZONEJm029CQHDiwWFoylXSZDCJXOY4Tj8eHDBnS1NS0YMGCoUOHDhgw4N577y0tLQ2FQp7nHfayjMMPOlprrU0slonHMq6rAwHL0yaZoCvksj59+tTX17e0tIwfP/7OO+/86KOP7rjjjsrKyp///OfZdY4OTQiNMT6fWvH3Lf0qCyMRv9ZGCGG0CYbs15dvHTa8R3lFfobFd+Qcz/PmzJkzZMiQeDweDocrKioeeOCBA2ZzHUpLeyYUtN9fueMnD6yIFoU81whphJGWLevrYtNnDb/uhtHpdJrhCzkmu0oxatSo1v+aPUdsjFFKtXFV/FBpKSlTKefU4T3GjO8TDvtcbVonkVLKcL4/EU+zjIFcpbXOTvyklG2/4L1NaUlLZhx9xviKaEFw70HZvu+qGCm0pzMZjzcAuUp1bNw4/Pe1ggE7njjIpb5SCqaCwJGnZYxh1ge0e9BjEwCkBZAWQFoASAsgLYC0AJAWQFoAaQEgLYC0ANICQFoAaQGkBYC0ANICSAsAaQGkBZAWANICSAsgLQCkBZAWQFoASAsgLYC0AJAWQFoAaQEgLYC0ANICQFoAaQGkBYC0ANICSAsAaQGkBZAWANICSAsgLQCkBZAWQFoASAsgLYC0AJAWQFoAaQEgLYC0ANICQFoAaQGkBYC0ANICSAsAaQGkBZAWANICSAsgLQCkBZAWQFoASAsgLYC0AJAWQFoAaQEgLYC0ANICQFoAaQGkBZAWANICSAsgLQCkBZAWQFoASAsgLYC0AJAWQFoAaQEgLYC0ANICQFoAaQGkBYC0gG7J/ld/w3xMspmQ27I7ujBdn5aU0hewA0FfJuMqi7SQ4zzXBEK27VNSyq5NK51O79zctHltfSyWUpK0kOtpadNSH9xTl3Bdp2vTqt+z+4/Vm1/doTOpjORwDDk/IfRMMByoWbnjrEnNXZtWeXl55pu9h04ZlRJJIRi1upwUIjvTN2LvJEGK7MzftL6CLkxL6AJR4N73XFEk2rVpCSGkq4UwUmuheGe7mDZSSZ+wjVBGeJ7wpDFGSp/wKSE94WnjsZbU1TNCbXlCd+Y6hs1WPeZdWcp2jVv3wdb07kTRsF7+sjwlLSFM/brtqS3NBUPKwhWFonNXr9D1OJA6pvMQY5Sy43XNNT9c3rJ290ePv/f+91/1i0A6mar5yYrGVbVbf7921Z1/0nR1HGLUOqaHWEZY0nr/O6/0u3LoKVNOGzBzVDqTVELWPLC84KTikVVnJqpSGS+pjGBCyKiFdnQllUqnE3XLN+efUpIWGVdnLL/tCq/2zxvz+kcd4Wa8pLIsuiIttPc4S/sDIV/Yv3z+cw1bdnopV2hjCRWpjL75ld/Vrvunm3QMs0HSQvsOtKSQRhhhJj9yVXxz05vfWJZuSEqlXOGMXXyJHfG/fvMLya3NSihjqItjLbSzLiGE53iVM4aefs9US9haeEYYo03PM/sPXzAlr6DAFS4bilEL7eSZsMhb/7N/NLy3s0wUpzPJHa9sCIrQ5qU1W19eV1LQwxXuzr9t0klXcuKetNCOlQwlkyLV76qhe97dsezWX6+87Y/SVkboHuf095LuSzc8+o9vLHMaU/68kDaazcWEEG3/ZJMZky4fN+Civ1y/590d0RE9owN6pnQy2r/Hha98YdfyLQUDiouHV3jClVztRFpo38AlpaszBf1Lo/17auF5OiOU1NqJlBYWXF6ihXZNhq5IC0c4dnna8YRjpJDZKzaVdI0rjZudNLKFSAtHXpf45FcMpGTl4jh/S9kEAGkBpAWQFgDSAkgLIC0ApAWQFkBaAEgLIC2AtACQFkBaAGkBOHppSW6DhxNPB2//qNr0PyDlgXVpakPOkjL7GKYDv+attW57b4dKSwqhlLXjjx868bQlfUpYUlhSqIAI7fjLhuTOmBQWbwNyj2VZK1as2LJlywGvr1y5srq6uo0D2qHujaGFtoVvx39v+PsXfusL+7W391Z40pbx2paR3zx79G0XZDxHWhywIdesW7fuqquuKigo8DwvO4jZtr1nz54LLrjg8ccfP+iY1o60pJCucKOje42f1DcQDWnH2xe1lJYK9MhzRUYpxdQQuad3797f/e53KysrM5lMNiQppW3b4XDYGKPU4YeTQ9/RSXraqbzs1GB+RAiphFJCeUIbobPP3nWFw12HkHu01hMnTszPz+/Iv+TwN0uz8gNGCClEoqUp05iyCvyRwqgQwtVpHnOMXE2rtat0Ol1XVxcMBsvKyrJHWW284+ph0jLGKGFvembVmgffiP2z0Uu7KmCFKwqGfHnCwKrTXeNwY1fknuwqxfLly7/3ve+tXr06mUxallVSUnLNNdfccsstlmWJ7I0iO5CW8VmBj154f9Nv3j15/ui8igLlszzXS21v+eiJ96QRA2ef4XgpljGQY2zbXrly5aJFi84///ybb745FApprXft2rV06dJFixYtWLCgE5YxPOEmd8bOf/Y6n/BlhCOEEUL6he+Uq8eueXSF46aUbfHYQuQYKWVNTc0vfvGLaDS6/+szZsx4/PHH6+vry8rKDlvXoQYcI4wUlpdxP/r9+0mRtIRlC58UMikSm55/V7jCZweM5uE0yEHBYPCZZ55JJBL7v7hixYodO3YUFhZ2wqhlhFd55bAVNz//3ndfUT5LWUo7nptwwv0KJ/z4ci204c7kyDme51144YW33nrrL3/5S8uybNv2PC+RSITD4UWLFvn9fq11h9IyQmjXi/QuOnfpNduXrd399vZUXSxQFi4+vXe/y05VwvK0w3M0kJPLGOFw+OGHH37ttdeWL1++bdu2/Pz8oUOHTp8+vbPOawmpZHYZcMAlIwdecrontCWUFjojUq6hK+RyXUKIKVOmTJkyZf/XtdZt6Uq05bxWduBLeZ+YdEpLseyO3F7JEJ+6Hlcp1cauRNufr8UKO05AbQ/pIP8smw/okizZBABpAaQFkBYA0gJICyAtAKQFkBZAWgBICyAtgLQAkBZAWgBpASAtgLQA0gJAWgBpAaQFgLQA0gJIC0BH/MsbU2tPG6G1p6Xh3u7IcdrTxjJGmy5Py7LtcEmoVBQ0+CweoIWcZyzTQxQEC0KWsro2rZ07at/62T+bJtWl42kGLZwAw5YJFeX944V3qi4+r6vSyj77ZPpl04etWVfwUYH2eJ4qToBRSxi73h47qs+YCWNExx5Q8nFK+z8+CEDXTgg9zyO5o0QKo43P52t9wXVdYw58he10dLTr4XSMWt17KmKMlHLTpk1vvfVWTU3NpEmTpk6dKoSora194403Vq1aNXTo0FmzZrGhjr9K2QTH8uBZaynl8uXLn3rqqUGDBpWXl69evVoIsWbNmocffriysnLw4MFr1qzRWot9T9fFcTMd4Q07tkOWEGLu3Ln33nvvSSed1Pr6l770pblz55511llsIkYtHOFU0HXdmpqaurq6/Q+rampqtm7d2nrcy7Y6Hll33303W+HYTBik9DzPtu1Vq1bdd9994XC4vLw8Eokoperq6u6++27Lsnr06FFcXCz2nRTBccRmExzLOYNSxpgf/ehHVVVVW7dulVJalqW1XrBgwYcffvjhhx9mV6voirTQ7mUMy7JeeumlYcOGLVy4UAjhOI7P53v77bdt216yZEl23ph9kc3FsRbat4zxzjvvvPTSS83NzR988MHzzz8vhFi7du2LL75YV1e3efPmJ598ktOMx+WEn/fsmK9k7Ny5c/78+ZFIpF+/frfcckvfvn1jsdhNN93U0tJSWVn5xS9+cdiwYdmfZIuRFtqtrq6uR48e+79SX19fUlJCUaSFDk0LswllRydjjDEmu4bBeEVa6ITJ4aFfAWkBJzpWCAHSAkgLIC0ApAWQFkBaAEgLIC2AtACQFkBaAGkBIC2AtADSAkBaAGkBpAWAtIDu6n8BEtt+LwNX+lcAAAAASUVORK5CYII=;" vertex="1" parent="b-Og6RxiusYoXk2nJn2m-1">
          <mxGeometry x="250" y="81" width="257.87" height="440" as="geometry" />
        </mxCell>
        <mxCell id="b-Og6RxiusYoXk2nJn2m-3" value="Untitled Layer" parent="b-Og6RxiusYoXk2nJn2m-0" />
        <mxCell id="b-Og6RxiusYoXk2nJn2m-4" value="" style="rounded=0;whiteSpace=wrap;html=1;strokeWidth=2;strokeColor=#666666;fillColor=none;" vertex="1" parent="b-Og6RxiusYoXk2nJn2m-3">
          <mxGeometry x="239" y="82" width="265" height="425" as="geometry" />
        </mxCell>
        <mxCell id="b-Og6RxiusYoXk2nJn2m-9" value="" style="rounded=0;whiteSpace=wrap;html=1;strokeColor=#00FF00;fillColor=#000000;" vertex="1" parent="b-Og6RxiusYoXk2nJn2m-3">
          <mxGeometry x="257" y="101" width="97" height="97" as="geometry" />
        </mxCell>
        <mxCell id="b-Og6RxiusYoXk2nJn2m-10" value="" style="verticalLabelPosition=bottom;verticalAlign=top;html=1;shape=mxgraph.basic.orthogonal_triangle;strokeColor=#00FF00;fillColor=#000000;" vertex="1" parent="b-Og6RxiusYoXk2nJn2m-3">
          <mxGeometry x="354" y="120" width="22" height="22" as="geometry" />
        </mxCell>
        <mxCell id="b-Og6RxiusYoXk2nJn2m-11" value="" style="verticalLabelPosition=bottom;verticalAlign=top;html=1;shape=mxgraph.basic.orthogonal_triangle;strokeColor=none;fillColor=#000000;" vertex="1" parent="b-Og6RxiusYoXk2nJn2m-3">
          <mxGeometry x="353" y="121" width="22" height="22" as="geometry" />
        </mxCell>
        <mxCell id="b-Og6RxiusYoXk2nJn2m-13" value="" style="rounded=0;whiteSpace=wrap;html=1;strokeColor=#00FF00;fillColor=#000000;" vertex="1" parent="b-Og6RxiusYoXk2nJn2m-3">
          <mxGeometry x="375" y="169" width="7" height="28" as="geometry" />
        </mxCell>
        <mxCell id="b-Og6RxiusYoXk2nJn2m-14" value="" style="rounded=0;whiteSpace=wrap;html=1;strokeColor=#00FF00;fillColor=#000000;" vertex="1" parent="b-Og6RxiusYoXk2nJn2m-3">
          <mxGeometry x="382" y="169" width="7" height="28" as="geometry" />
        </mxCell>
        <mxCell id="b-Og6RxiusYoXk2nJn2m-15" value="" style="rounded=0;whiteSpace=wrap;html=1;strokeColor=#00FF00;fillColor=#000000;" vertex="1" parent="b-Og6RxiusYoXk2nJn2m-3">
          <mxGeometry x="389" y="169" width="7" height="28" as="geometry" />
        </mxCell>
        <mxCell id="b-Og6RxiusYoXk2nJn2m-16" value="" style="rounded=0;whiteSpace=wrap;html=1;strokeColor=#00FF00;fillColor=#000000;" vertex="1" parent="b-Og6RxiusYoXk2nJn2m-3">
          <mxGeometry x="396" y="169" width="7" height="28" as="geometry" />
        </mxCell>
        <mxCell id="b-Og6RxiusYoXk2nJn2m-17" value="" style="rounded=0;whiteSpace=wrap;html=1;strokeColor=#00FF00;fillColor=#000000;" vertex="1" parent="b-Og6RxiusYoXk2nJn2m-3">
          <mxGeometry x="403" y="169" width="7" height="28" as="geometry" />
        </mxCell>
        <mxCell id="b-Og6RxiusYoXk2nJn2m-18" value="" style="rounded=0;whiteSpace=wrap;html=1;strokeColor=#00FF00;fillColor=#000000;" vertex="1" parent="b-Og6RxiusYoXk2nJn2m-3">
          <mxGeometry x="410" y="169" width="7" height="28" as="geometry" />
        </mxCell>
        <mxCell id="b-Og6RxiusYoXk2nJn2m-19" value="" style="rounded=0;whiteSpace=wrap;html=1;strokeColor=#00FF00;fillColor=#000000;" vertex="1" parent="b-Og6RxiusYoXk2nJn2m-3">
          <mxGeometry x="417" y="169" width="7" height="28" as="geometry" />
        </mxCell>
        <mxCell id="b-Og6RxiusYoXk2nJn2m-20" value="" style="rounded=0;whiteSpace=wrap;html=1;strokeColor=#00FF00;fillColor=#000000;" vertex="1" parent="b-Og6RxiusYoXk2nJn2m-3">
          <mxGeometry x="424" y="169" width="7" height="28" as="geometry" />
        </mxCell>
        <mxCell id="b-Og6RxiusYoXk2nJn2m-21" value="" style="rounded=0;whiteSpace=wrap;html=1;strokeColor=#00FF00;fillColor=#000000;" vertex="1" parent="b-Og6RxiusYoXk2nJn2m-3">
          <mxGeometry x="431" y="169" width="7" height="28" as="geometry" />
        </mxCell>
        <mxCell id="b-Og6RxiusYoXk2nJn2m-22" value="" style="rounded=0;whiteSpace=wrap;html=1;strokeColor=#00FF00;fillColor=#000000;" vertex="1" parent="b-Og6RxiusYoXk2nJn2m-3">
          <mxGeometry x="375" y="142" width="7" height="28" as="geometry" />
        </mxCell>
        <mxCell id="b-Og6RxiusYoXk2nJn2m-23" value="" style="rounded=0;whiteSpace=wrap;html=1;strokeColor=#00FF00;fillColor=#000000;" vertex="1" parent="b-Og6RxiusYoXk2nJn2m-3">
          <mxGeometry x="382" y="142" width="7" height="28" as="geometry" />
        </mxCell>
        <mxCell id="b-Og6RxiusYoXk2nJn2m-24" value="" style="rounded=0;whiteSpace=wrap;html=1;strokeColor=#00FF00;fillColor=#000000;" vertex="1" parent="b-Og6RxiusYoXk2nJn2m-3">
          <mxGeometry x="389" y="142" width="7" height="28" as="geometry" />
        </mxCell>
        <mxCell id="b-Og6RxiusYoXk2nJn2m-25" value="" style="rounded=0;whiteSpace=wrap;html=1;strokeColor=#00FF00;fillColor=#000000;" vertex="1" parent="b-Og6RxiusYoXk2nJn2m-3">
          <mxGeometry x="396" y="142" width="7" height="28" as="geometry" />
        </mxCell>
        <mxCell id="b-Og6RxiusYoXk2nJn2m-26" value="" style="rounded=0;whiteSpace=wrap;html=1;strokeColor=#00FF00;fillColor=#000000;" vertex="1" parent="b-Og6RxiusYoXk2nJn2m-3">
          <mxGeometry x="403" y="142" width="7" height="28" as="geometry" />
        </mxCell>
        <mxCell id="b-Og6RxiusYoXk2nJn2m-27" value="" style="rounded=0;whiteSpace=wrap;html=1;strokeColor=#00FF00;fillColor=#000000;" vertex="1" parent="b-Og6RxiusYoXk2nJn2m-3">
          <mxGeometry x="410" y="142" width="7" height="28" as="geometry" />
        </mxCell>
        <mxCell id="b-Og6RxiusYoXk2nJn2m-28" value="" style="rounded=0;whiteSpace=wrap;html=1;strokeColor=#00FF00;fillColor=#000000;" vertex="1" parent="b-Og6RxiusYoXk2nJn2m-3">
          <mxGeometry x="417" y="142" width="7" height="28" as="geometry" />
        </mxCell>
        <mxCell id="b-Og6RxiusYoXk2nJn2m-29" value="" style="rounded=0;whiteSpace=wrap;html=1;strokeColor=#00FF00;fillColor=#000000;" vertex="1" parent="b-Og6RxiusYoXk2nJn2m-3">
          <mxGeometry x="424" y="142" width="7" height="28" as="geometry" />
        </mxCell>
        <mxCell id="b-Og6RxiusYoXk2nJn2m-30" value="" style="rounded=0;whiteSpace=wrap;html=1;strokeColor=#00FF00;fillColor=#000000;" vertex="1" parent="b-Og6RxiusYoXk2nJn2m-3">
          <mxGeometry x="431" y="142" width="7" height="28" as="geometry" />
        </mxCell>
        <mxCell id="b-Og6RxiusYoXk2nJn2m-31" value="" style="rounded=0;whiteSpace=wrap;html=1;strokeColor=#00FF00;fillColor=#000000;" vertex="1" parent="b-Og6RxiusYoXk2nJn2m-3">
          <mxGeometry x="438" y="142" width="27" height="55" as="geometry" />
        </mxCell>
        <mxCell id="b-Og6RxiusYoXk2nJn2m-32" value="" style="rounded=0;whiteSpace=wrap;html=1;strokeColor=#00FF00;fillColor=#000000;" vertex="1" parent="b-Og6RxiusYoXk2nJn2m-3">
          <mxGeometry x="256" y="419" width="230" height="70" as="geometry" />
        </mxCell>
        <mxCell id="mtfrp1fZqgVqzwV_61nj-0" value="" style="rounded=0;whiteSpace=wrap;html=1;strokeColor=#00FF00;fillColor=#000000;" vertex="1" parent="b-Og6RxiusYoXk2nJn2m-3">
          <mxGeometry x="256" y="197" width="230" height="222" as="geometry" />
        </mxCell>
        <mxCell id="mtfrp1fZqgVqzwV_61nj-1" value="" style="rounded=0;whiteSpace=wrap;html=1;fillColor=#000000;strokeColor=none;" vertex="1" parent="b-Og6RxiusYoXk2nJn2m-3">
          <mxGeometry x="348" y="141.5" width="27" height="55" as="geometry" />
        </mxCell>
      </root>
    </mxGraphModel>
  </diagram>
  <diagram name="Floor 2" id="hLDtGaKMgj8moOtduDd2">
    <mxGraphModel dx="1350" dy="804" grid="0" gridSize="10" guides="0" tooltips="1" connect="0" arrows="0" fold="1" page="1" pageScale="1" pageWidth="850" pageHeight="1100" background="#000000" math="0" shadow="0">
      <root>
        <mxCell id="3qUbQweHZjMcJ-lY2vsP-0" />
        <mxCell id="3qUbQweHZjMcJ-lY2vsP-1" style="locked=1;" visible="0" parent="3qUbQweHZjMcJ-lY2vsP-0" />
        <mxCell id="3qUbQweHZjMcJ-lY2vsP-2" value="" style="shape=image;imageAspect=0;aspect=fixed;verticalLabelPosition=bottom;verticalAlign=top;image=data:image/png,iVBORw0KGgoAAAANSUhEUgAAASEAAAOlCAIAAACtwcarAAAAiXpUWHRSYXcgcHJvZmlsZSB0eXBlIGV4aWYAAHjaVY7LDYBACETvVGEJ/BaWcoxxEzuwfNlPNL7DzEDIBDjvq8HWIVTQ4tXCDBMNDd4zVJwIIjFS99TJcqFMnOOaQXgGi+qo36Eq/ihi1ZqruxU77OBs51NkKAnCuOpl/ZX4iphWkv9+L+O/F3gA97ktEGv7IVcAAAoGaVRYdFhNTDpjb20uYWRvYmUueG1wAAAAAAA8P3hwYWNrZXQgYmVnaW49Iu+7vyIgaWQ9Ilc1TTBNcENlaGlIenJlU3pOVGN6a2M5ZCI/Pgo8eDp4bXBtZXRhIHhtbG5zOng9ImFkb2JlOm5zOm1ldGEvIiB4OnhtcHRrPSJYTVAgQ29yZSA0LjQuMC1FeGl2MiI+CiA8cmRmOlJERiB4bWxuczpyZGY9Imh0dHA6Ly93d3cudzMub3JnLzE5OTkvMDIvMjItcmRmLXN5bnRheC1ucyMiPgogIDxyZGY6RGVzY3JpcHRpb24gcmRmOmFib3V0PSIiCiAgICB4bWxuczpleGlmPSJodHRwOi8vbnMuYWRvYmUuY29tL2V4aWYvMS4wLyIKICAgIHhtbG5zOnRpZmY9Imh0dHA6Ly9ucy5hZG9iZS5jb20vdGlmZi8xLjAvIgogICBleGlmOlBpeGVsWERpbWVuc2lvbj0iMjg5IgogICBleGlmOlBpeGVsWURpbWVuc2lvbj0iOTMzIgogICB0aWZmOkltYWdlV2lkdGg9IjI4OSIKICAgdGlmZjpJbWFnZUhlaWdodD0iOTMzIgogICB0aWZmOk9yaWVudGF0aW9uPSIxIi8+CiA8L3JkZjpSREY+CjwveDp4bXBtZXRhPgogICAgICAgICAgICAgICAgICAgICAgICAgICAgICAgICAgICAgICAgICAgICAgICAgICAgICAgICAgICAgICAgICAgICAgICAgICAgICAgICAgICAgICAgICAgICAgICAgICAgCiAgICAgICAgICAgICAgICAgICAgICAgICAgICAgICAgICAgICAgICAgICAgICAgICAgICAgICAgICAgICAgICAgICAgICAgICAgICAgICAgICAgICAgICAgICAgICAgICAgICAKICAgICAgICAgICAgICAgICAgICAgICAgICAgICAgICAgICAgICAgICAgICAgICAgICAgICAgICAgICAgICAgICAgICAgICAgICAgICAgICAgICAgICAgICAgICAgICAgICAgIAogICAgICAgICAgICAgICAgICAgICAgICAgICAgICAgICAgICAgICAgICAgICAgICAgICAgICAgICAgICAgICAgICAgICAgICAgICAgICAgICAgICAgICAgICAgICAgICAgICAgCiAgICAgICAgICAgICAgICAgICAgICAgICAgICAgICAgICAgICAgICAgICAgICAgICAgICAgICAgICAgICAgICAgICAgICAgICAgICAgICAgICAgICAgICAgICAgICAgICAgICAKICAgICAgICAgICAgICAgICAgICAgICAgICAgICAgICAgICAgICAgICAgICAgICAgICAgICAgICAgICAgICAgICAgICAgICAgICAgICAgICAgICAgICAgICAgICAgICAgICAgIAogICAgICAgICAgICAgICAgICAgICAgICAgICAgICAgICAgICAgICAgICAgICAgICAgICAgICAgICAgICAgICAgICAgICAgICAgICAgICAgICAgICAgICAgICAgICAgICAgICAgCiAgICAgICAgICAgICAgICAgICAgICAgICAgICAgICAgICAgICAgICAgICAgICAgICAgICAgICAgICAgICAgICAgICAgICAgICAgICAgICAgICAgICAgICAgICAgICAgICAgICAKICAgICAgICAgICAgICAgICAgICAgICAgICAgICAgICAgICAgICAgICAgICAgICAgICAgICAgICAgICAgICAgICAgICAgICAgICAgICAgICAgICAgICAgICAgICAgICAgICAgIAogICAgICAgICAgICAgICAgICAgICAgICAgICAgICAgICAgICAgICAgICAgICAgICAgICAgICAgICAgICAgICAgICAgICAgICAgICAgICAgICAgICAgICAgICAgICAgICAgICAgCiAgICAgICAgICAgICAgICAgICAgICAgICAgICAgICAgICAgICAgICAgICAgICAgICAgICAgICAgICAgICAgICAgICAgICAgICAgICAgICAgICAgICAgICAgICAgICAgICAgICAKICAgICAgICAgICAgICAgICAgICAgICAgICAgICAgICAgICAgICAgICAgICAgICAgICAgICAgICAgICAgICAgICAgICAgICAgICAgICAgICAgICAgICAgICAgICAgICAgICAgIAogICAgICAgICAgICAgICAgICAgICAgICAgICAgICAgICAgICAgICAgICAgICAgICAgICAgICAgICAgICAgICAgICAgICAgICAgICAgICAgICAgICAgICAgICAgICAgICAgICAgCiAgICAgICAgICAgICAgICAgICAgICAgICAgICAgICAgICAgICAgICAgICAgICAgICAgICAgICAgICAgICAgICAgICAgICAgICAgICAgICAgICAgICAgICAgICAgICAgICAgICAKICAgICAgICAgICAgICAgICAgICAgICAgICAgICAgICAgICAgICAgICAgICAgICAgICAgICAgICAgICAgICAgICAgICAgICAgICAgICAgICAgICAgICAgICAgICAgICAgICAgIAogICAgICAgICAgICAgICAgICAgICAgICAgICAgICAgICAgICAgICAgICAgICAgICAgICAgICAgICAgICAgICAgICAgICAgICAgICAgICAgICAgICAgICAgICAgICAgICAgICAgCiAgICAgICAgICAgICAgICAgICAgICAgICAgICAgICAgICAgICAgICAgICAgICAgICAgICAgICAgICAgICAgICAgICAgICAgICAgICAgICAgICAgICAgICAgICAgICAgICAgICAKICAgICAgICAgICAgICAgICAgICAgICAgICAgICAgICAgICAgICAgICAgICAgICAgICAgICAgICAgICAgICAgICAgICAgICAgICAgICAgICAgICAgICAgICAgICAgICAgICAgIAogICAgICAgICAgICAgICAgICAgICAgICAgICAgICAgICAgICAgICAgICAgICAgICAgICAgICAgICAgICAgICAgICAgICAgICAgICAgICAgICAgICAgICAgICAgICAgICAgICAgCiAgICAgICAgICAgICAgICAgICAgICAgICAgICAgICAgICAgICAgICAgICAgICAgICAgICAgICAgICAgICAgICAgICAgICAgICAgICAgICAgICAgICAgICAgICAgICAgICAgICAKICAgICAgICAgICAgICAgICAgICAgICAgICAgCjw/eHBhY2tldCBlbmQ9InciPz5IQlWQAAAAA3NCSVQICAjb4U/gAAAgAElEQVR42uzdeXxU1f3/8c85595Zsy8kJCTsm+wgIIp7tSjqT1BQWRTc0LbuW6vVWqviilKttbXVuosLxRVFtCiiAgKyKISdBEjIvsxMZubec87vjwv5RkQlK5Pk/Xz48IEJmOHOfc0598yde5nWmgCgxXBsAgA0BoDGAACNARwRRiv/PCml1pox1obWWpxHyznnHC9J0PD9B+uKAO1kHHOGr8cff3xn/q54n18q1SY2kCZtCqOsouLUU06ZOHGiUgqjGcR0YwsXLhw9YEjfXv1UsJZx1uxBUHP/L5VUZpLvvbfe/vyLpWgMYroxxhgRZWdlXzrtkm7DB7TcuNPMmWkiRq4obdi9HbsLxHRjDtuyysrLcsNSVwWaa0DQWnPTJI+bQrWU4KfqIEmlm6k0KW2WnlBZVSWlxO4CbaAxIhJCcCFICGqWxrRiHk/xnr1vLHjL7XJLKS+dOs30+pgtiTVDZ4KICYH5ITRa2991GLds67a778jJ6jJh+oXbd+687S93k89NWC8FNNYs00RymYF9pStWrx501FGpqamTJ0xYu34dRe1mGcQAMI4RhSPJ3boM6NP3oitnVhYWf7r084lnnUMeE+/7ARprlokiI8aoNvrCcy9kpKf36NfXsqK/vfVGqggwHEEBGmtG1dVVx44eM23yBc+++tLyxZ9RnIfayHvcgMZi/ohMKUr0zH5wdkZap78+8/RZp53x5wfuJ8PAUwsxIgb2Ra1J6/2zvkb8aSJGVFpeHg6Hw1a0R7duSrXSG1lKKSLCsj7E9jimiVwmxceR20WNaoNzToHovX/8U3llxev/ekHa1r1/uJNqI62wruicia+1xvoKxOo4phQl+ua/Om/F6pXXX3N9Ztdcqgw0eEBjjCJW1569br/9rmhlhSs1lcLRFl27d0683LNnz+zZsy+88MKxY8c6YxoGNIi5cUxKKYVevfZbzsT/Fn/y/vz/ks9LnDd4uYIxCocpFHL5/VQTINsi1qKvDEpKWVRUtGvXrpKSkqeffrqsrIxzjpOtIMYa01r4/YKLeL9/5LARF82a6TZd/33zNSkYJcU1+CwNxolzkoo4b+lZohBCCJGcnNypU6cJEyb8+te/fv/993ft2iWEwP4EMTNX1Jpc5vdr12wtK9ywaeOewr0iyednxpbtO6ZdMu36a64bPeoYikRj8FwNxlh5efmyZcu2b9++Y8eOBQsWeL1ezvmtt9567LHHXn311aZpMpxiAjHRmMf1+dfLXpz/5r69ew3TXL9lk4xYcXFxodra995/b/TI0TE67nO+b9++uXPnVlZW7tmz5/HHH1dKuVwuwzA+/vjjCRMm5ObmOgds2LfgiDbGOVXWXDXrd1fddP0/H30iOytz/EWTyCZyZlthTaFQbJ5wKKXs37//4sWLd+/e/de//vWhhx465FiHHQuOdGMHFip0mGZOncoY06WBumMw1vLHVE0vLTMz85577qm/zsEYw9IixFJjRMQ5IzLd3v2zx7bDWd4wcDYJHM5ufuQfgnOeRxuEt56hjTTWZuG4C9AYABoDQGMAgMYA0BgAGgOAltDa1+JmjHHOiBNxTqINFM60dh523ePHTgMt1ZhSSmlNxKhRV6NxzpSVUkajlh22dTTaJs48ktJmltu2bSmlLZUdldpgjSiViBgjzjkq7WgO6/5jTh5TpkwpKS1MTUmxG3nBDM0ZX7lijcGF1+fVqs2cJMEFLy+vSEiKHzxogGVFG3EJca2122Xu2LZr/Fn/749//KNt2zgPC+PYIUQitTfcfPaA4YN0ONToIUhpsm1bO+MhNWNmzDm3qQUGCUakGeOG4Nz4hTFca02cMf3jwVAa3pRXn59XWlSDfQ6N/SSf35fbNSs7rStRoGmLJawhv1MRsXpB/vgrRESaFCODyCCKalKsRdZy9M9+TzESRCaRpUmxg/+OklFq56yM6gob+xwa+7njsUgkqimsdIQz3vz76UFjB5Ft2abpI4pIJQUXRGRZtsv0EClLRg1hHBgNFSdvMFReXlaZk9OZyFRUy4g172SU/dxfSnPyhCPVJcUVnbPSDWEoUvV/v1RS8Eg0GtUaB2No7Of3M8aYs8bW2KvSNGQIY9+s3PjYo6/07Nnl6msuzM3pRKQ3bsx/7JGXvF73NddP7d+/GyNbE3HyL/ls2aeLvunZu/eK5S/97rrz+/frp6iWt8o7E05giz5emr9jz4YNO3cXFD/30l3x/jhNsm4r1W037HAdUCyv7Oljjz1625Y9ObkZXXN6K2lpkkMGjyjZV+nxuAf0H6J0lIgYiZpg5QP3vTD1knEzZkwfNbr/nX942rkQfis8REWKUdzHi5Z+tWzdpVdOefyvNz085xqP20WkW+cBABpr4h4sU9IS4+N8RLbzSDXZScnxSUnxiuy64U5rmZ9ftCWvgJGrS24nrXWzrqb80iIHmfNe+7hf/+6CEizb6t69u2mYrfYAoL3NFVsZIyZtqZSqm2MyYlJKJfcvKjBiUlkJcRmXzjzr6lkP2NL4fsPG626aoonp1htJdGpq4hOPzzv112NTkjyKIvwwfq5zdeGDlmf1gfe7sV9iHIshgnNF1bfcdt2MGWdNmnDdvn3lJxx/sqZQ6xyMccY1Ba+/eRoX7JzTf/PJJ2uIhD6MQeyQF/+oO5sE0FhMHK3VOyLyLVn6iTCNj5c8+967X/z9qWc4JchWuTcSI6YpmpnReeLEk/949+WnnDqSE/3iOwec8+Li4qVLl1K9CxZEIpFvv/02Go0SrmKAxlr18XEuhKj/ODlnXPADl4kjrTUj9z//Nn/UqP6/OnH6bb+/ZP5bnxFJxltpzYOT/9s1a158fuGZZ55pUMKu/L0VFZU/P5pxzhcsWPDcc88RkVLKsiwppWmaVVVVTz75JHZKNNaqamoC77zzeWFxAWeG8+oeDkcXfbR82648zoy6q+307pO79PNvv9/y9a6de8+ffDKRaK1VB6bJ6tS5U00geMvNf37ib/9+/90v/ImJ9RfuD8nr9V566aXOnSjWrFnzzjvvcM5PPPHE9evXb9myhTGGoQxrHq2x+yqK3nzr9IFDemZ0SnBOdySqnXnZWRmZqd27Zjjr4wYTmqrvuueKjz748rv1X542btRJJx1DFGil4zFimqzszM7vvPfo2ws+S4hzTb7odBcXmuyffy9w+PDhq1evdu758q9//evzzz/3+/179uxZvXq13+/HfonGWumIyyA++YKziRRRZP/hD1lnn3M6ERGF6x0UaUbsjDN/RSSJhKZga743xYhpivTr37df/yHO0Etk//wDsCxrwIABq1atuuyyy3bt2rVx48YXXnjhyy+/fP3112+44YasrCzcaQmNtd6yhqIgEau3Gs4UhYjoR8OUlhRgxIg0b/UJMCOmqFbrEGkmOP/Fs1mcqeDFF188aNCgrVu3HnfccVlZWaeeeuqdd95Zd8CGXRONtdrxIv/FrzjE/q+zI/Y4WQN+uJPZsGHDhg0bRgdue+t8EYGhMWim0Y8xpZQTVV1XeH8MjUGzjn4YsjrCs4xNAIDGANAYAKCxIw5nb6AxaFlSSo/HTTjlF41BCw1jUqrFiz8lIiEEMkNj0JwEE4oqpsw4b8xxOdOmX8I5dz6jiS2DxqAZN7T2Cn3f7Ds6Z8lp0y523mtGZmgMmnOuqElJqpz94F2du6jp0y9xvorM0Bg0X2TEOJGkitkP3JnVRU+fhszQGLRUZpX3P3BnVg4yQ2PQkqOZk9m06RcjMzQGLZhZdg5Nn4bM0Bi0XGaz78zKRWZoDFo+s2lTkRkag5bKrPz+2Xdmd8VohsagZTJjRLYu3z+aTbvYuWIBMkNj0AwUKaklJ9Ng5v7RLJemTZ2Os0DQGDTX1vcLllxeWb63cB8nwz4waZw6ZRoyQ2PQVLaUc+b864tly8effsOS/33DyE9SO0sgOV0ZMkNj0LTAbNsQKabLdfLYGaf9+pgpUyZLWWkIw1lpvHf2ndnd2NQpmDSiMWgUqaVhxBUW57/95pLJF56xYd3W3YW7hIh3rpK/f0H//juzu1FdZqpVbkMDaKw90KQEi99XVnrW6b8be+KwV1/9z8TJv7p02l1bduzQ5HJuTVg/sylTpzn3JcNohsbgcALTRK5tu3aedsIVx4wZfN0tU7/46p3klOSk5Pi89XmcXM4dlRgxcSCzLrlsKlYa0RgcPkbiyUdf7No1a/zZxy58d2k0Eu3dM/0/L/9p/DmnEgXrXWn8B2eBILM2/IwfznOmtWaMTZ120U23nTl40FD1g10BGjyYRaK22+XWxBl5iGwiRWQf8pZlmrQiEpR8+x/+smcXvfzKi4e8kTRgHIMfvK65XW4ipcmSukpRSFNEkzrk7ZScSaNyRrOuNHXKdMIVvNEYHM6yhybixAQTnLhzOtXPNMmcT0/PvjO7K118yYxgIGRLpZTGPz//T4xMq3FPiSNySNbQ3884aanK75995003/un4E47r379XxLK4xk1eDk0x7TbNvLxt9957/7hx46SUQgg0Br+UGSdNVY/OuXHHzgLTEFpTa93z+ufH5P0PLxYeTB0pleFNvuu2h2uqgxjHoAGZESki3r1bz9ioSzNiRAaRIlIHRmj9w18cscoYpWRkphmGgcagYaFp0prCLCYCcxHJouK9cX5fnD9ekaWUMriLiNkqIrg4koUpKXgkGrVi4ZgMjbW9YzlGRzgxRZqTd9v2bYsXrygvC3326Yo77pp5/PHH5u/e9eB9z1ZVBu78y6x+fbrSod6NaKWtxBhz/oU1D2hzNBEjo7SidO6cebfdMSO7c87UqafGxfsUhbrl9rVtyTnv32eQVOUC7zGgMWjMIKaU4Imff/pxdXWgS+dBEWtXbm5XIil1lJj0+Twuw9AksaHq4JUGGsHKyEz9eNHKr79Z7DK9SoU12c4cTWktpTris1k0Bm2Y4FxT8NjjRlxw0akXTbz9ySdesaQkYjiNEnNFaL5DMqU5d5074cSMTikzrzzfbQoizpRNYv96A3rDOAZNwjgjsm++4a+n/3p0vLtnIBjcubOAC4OIOCepJGaKaAyaNo4REYnu3bNuuO6x51945rFHXmHCIOJEWkq9csXGTVu+59zQhPEMjUHjxjEiTdFnnv/jueedvG/f3ikXn9E1p4tWNlFo+sVnvDLvL7175RBh5QPHY9D4xhiRneCPv/76WUSMKKQpwjknskaPHkFERBFsJTQGTQ1Nk610ORFxxg8MWUxRLRHjGMHQGDTLaCaY+NGxB44+cDwGgMYA0BgAoDEANAaAxgAAjQGgMQA0BgBoDACNAcQyrXX9WyWq1rpaN85XhI4SmHOrROfXdfe+cb6OcQygGQKrqalZuXKl82vO+e7du8vKylrhBqVoDNo/IUReXt6ECRPuvvvumTNnlpeX33///SeffPKUKVOWLVvGGGvR221jrgjtH2Psww8/vPnmm8eNG7d27dpp06Zt27btueeeS09P//DDD0eNGtWil8XHOAbtepZ44Bdut3vcuHHOrz/55JNzzz137Nixffv2TU1NDYfDLTpjxDgG7XoEO/CLlJSUm266KS0tbc6cOQ8++GBGRsbUqVNDodBJJ50UHx+vlGq5u5OiMWj/pJSTJk2qqKj4/PPP586dO2XKFCJKTU2tqKiYNGkStfDtf9EYdJRDslmzZs2aNYuIlFKMsdNPP711fjQagw40mjnHXc59a6WURNQK97BFY9BRHJRTq90hGuuKAGgMAI0BABoDQGMAaAwA0BgAGgNAYwCAxgDQGACgMQA0BoDGAACNAaAxADQGAGgMAI0BoDEAQGMAaAwAiHDtN2jfpJS2bUspm3I5e855Uy4kjMag/Q4ghkhNTTEMo0Vvy4LGoCPSikiw4uKKx+c+sXzlimgk2riByDBEeXn5tGlThwwZ0uj7TqAxaIe44EShqdPHfbd+mz+u0rblT96P1plCHuq7SirTk/j2u+8NHjQYjQH8sDFiRJFTTznpV6eM06QO3RARkaqX2o8vzS05pe4pyPd6/UTU6NtGozFor5hUAa1r2E+MPUpqw/AwEkSMiEtZcdAqu5RSGLqmOtTEO9miMWi3xE9P7TRpYXg25uWtXPH9mm/yhgzrPWPGuZosVn/EEyRIcM6a+DDQGHQ4ihQn/9Ivvvzqi/WTLzk7Iz1lz95iIsWItcSPQ2PQ8SaRxIjk35946+6/XNGtc9dunbOITKLqFjs4BOiIjamdOwtXr8pjFEcUlrqi5X4cGoMORypF5Jlw3snXXfPonXfes23nXsZcmnQL/TjMFaHDEZwrCtxy6+XbthbE+10JiUmcNBGnlskMjUGHo0hxSnz3nfddpuu23/9RUUU4UioMbgpXS2SGuSJ0vMakJjKK9pV98P6yrbu+WbH8qwXzP2PCrTGOATTPTi8EUeX0mWetXbPtjlse792762+vn2QQJy2JMTQG0Cy0x3A/+dTdtqwyhF+TTWS1RGBoDDpwZCSVqjaEoaiWEVHLvAGNxqDjYsQEZ5o0b7G6HFjzgA5eWotDYwBoDACNAQAaA0BjAGgMANAYABoDQGMAgMYA0BgAoDEANAaAxgAAjQGgMQA0BgBoDACNAaAxAEBjAGgMANAYABoDQGMAgMYA0BgAGgMANAaAxgDQGACgMQA0BgBoDACNAaAxAEBjAG22MU1akdKksR0BWqQxRgYnH5FLkcKmBGjOxhQpIv+bbyy6/fY5+0pKOcVhQANozsaklJL46jV5hjA+XfTVBws/5eRhxDGgATRLY9oQPpNS43y+UaOPmjb1GpdLLPjvIkmckx+jGUB9RiMCY2Ru2PD9jp1ff//9juLickVen4/lbcqfd+HtN94y9egRAzVZjBg2LkDjG1v62bfzXv3f3j1Fpmlu2LBLWtG4eF9tKPzBO1+MHDEQAxlAUxrjigJX/3bKb397w7+f/Xu/fl3HHnuOon1EBhEjihCFMYgBNPF4jCkdtqm4U3rSsqVry2s3E0lLlktdoShMCAygyY2R1pqR5+uvvyssKn3vzY+Xr1xrikTOOPICaJbGtMFdguJcLuPkk4+ePv2SbVsLFn6wmJGHkZuwrgjQtMY0kdizt2j9pm+LCyvWfrv5u815I0b1z99Z9Ptb5+zIL9BkYPkeoE5j1hU5eV59ZdFL//moqqraMMSC/y7VUsYl+MpKK0nrBx6+AYUBNKUxrih4481Tbr75mtn3PtatZ9aUiy5UVMaIE3FNNlEU64oATWnMmWJyoqrfXHueYRiaKhkxIk0kGXEcjwE0Q2NERCQTExKdX9Rbr0dgAM3WGNMkiRhmhgAt1BihLoDDOLACADQGgMYAAI0BoDEANAYAaAwAjQGgMQBAYwBoDADQGAAaA0BjAIDGANAYABoDADQGgMYA0BgAoDEANAYAaAwAjQGgMQBAYwBoDACNAQAaA0BjAGgMANAYABoDADQGgMYA0BgAoDEANAaAxgAAjQGgMQA0BgBoDACNAQAaA0BjAGgMANAYABoDQGMAgMYA0BgAGgMANAaAxgAAjQGgMQA0BgBoDACNAaAxAEBjAGgMAI0BABoDQGMAgMYA0BgAGgMANAaAxgDQGACgMQA0BoDGAACNAaAxAEBjAGgMAI0BABoDQGMAbZDWGo0BtCDGmFLqMEtDYwANE4lESktLOeeMscPJDI0BHC4pJREtXrz4kksuWbRokW3bzoCGxgCah1LKsqzi4uIBAwYkJiY++uijW7du5Zz/fGYGNhzAYTJNk4jS09P37NkzevTooUOHvv/++7W1tYMGDdJaM8bQGEDjcc6XLl367LPPFhQUVFZWbtu2zeVyKaVuvfXWc88998EHH+ScE9GPS0NjAIfL5/NlZ2dXVFQEAoHu3bvbtm0YxuWXX56cnGzbttvtPuQSCBoDONyDsREjRowYMeK7774rKCgYN27cj3/PIaeLaAzgsAghli5d6vF4Ro4cOWDAAMuyGGPff//9li1bJkyY4EwUDz3JxLYDOEyrV6++6qqrNm7cWDdk9ezZs7Cw8LHHHnMGOjQG0CRa60GDBm3fvn3hwoWGYRiG4ff7p0+f/u6771ZVVXHOD3k8hsYAGnBI5nK5xo8fX1ZWdu+99zoD2ty5cysqKn5qwQPHYwANG8cKCwu11tOmTZs/f/6NN964efPmcDj8xBNPeDweKaUQAo0BND6w6dOn+3y+/Pz8nJyciRMnnnHGGZs3b87MzMzIyCCiQwaGxgAaMFHs1KnT1VdfLaXknEspvV7vkCFDnG/9zLoiGgNowFCmlHLGKyGE1to5hepnAkNjAA3AGKs/IWSM/dQ5ivVhXRGgZaExADQGgMYAAI0BoDEANAYAaAwAjQGgMQBAYwBoDADQGAAaA0BjAIDGANAYABoDADQGgMYA0BgAoDEANAYAaAwAjQGgMQBAYwBoDACNAQAaA0BjAGgMANAYABoDADQGgMYA0BgAoDEANAaAxgAAjQGgMQA0BgBoDACNAQAaA0BjAGgMANAYABoDQGMAgMYA0BgAGgMANAaAxgAAjQG0FuPwf6vWJG0lSUpLcq6x7drMcywENkLbaMw0jdS0JIPShekhwtMW+zQRI1JEVdgWbaOxosJ9Tz41r3vv5coKM2LYdrGNMU62Jb1u36Uzz+ZcEGHqEfONSVuVLeLJ641ay2AajcX+FNEoq6pcWrlo+iXj3NzQhOcs5hvLzsy6bsSVw/uOjoRrBGsPiyVaK6W1IQytNRFJrbRSjDHBObXxgVprbRruPaWFJV/vwpyjzTRmWXZZsLyqpqQmHOBtvzGppN/lM4VZXFPKiTPOvKbHZ3ij0gpEg051bbgxpV2mq7SmNByJYi9vM40xxgQTggnBBW/ji/6KVKo/Zf2e75bu+LJbStcTexxnk/wmf826vRs6x2ce1+MYv8sntWrDjXFtcCGYwRhGsSOsI74/JrVMdie+9s2bf/rwvn6d+ozpOkqRNrjhMsy737+/JFCa6EmwlcTOAa09jrUPilS8O+7z7V8++cU/Flz+Wm6nvmWVBREZdXEzNymnR3r3AZ37m4ZZK7F2ChjHGhuZi5uPf/63gZlHLdmy9M4Fvy8LVHgMt1IqIiOWjIatcFs/GAM0duSOUrQ2hVFUU7xh78ZuqbmDsgdsK9sx/aXLLWnXHbfgAAbQWJMIISprK21pndBz7LCuo+4a9/udFflf7Vwe74nTSjsdYrcANNb4v64l7TR/Gme8LFgeqa0yhJkRl+50pUlzLvymD0MZoLFGYppJKdP9qWcNPOPd7z9wu+M2FeWl+lNG5R4diAQNYZQFy5ZsXxqIBDk+kQBorJF/Yc4rI9V3jft9j7Tuj34y5+udK+45849xbr+yldb6zAG/7t+5nyKFPQOai9EB/85KKRc3bz35+tJgmd/0uQxXrRVmjCV5kx4/90HBRMAK4qgM0FgTZoyM2SRrooE4l19qFbJr604NC1hBUsQ5JoqAxpp8YMaIOWdL1T/04oQDMcDxGAAaAwA0BoDGANAYAKAxADQGgMYAAI0BoDEANAYAaAwAjQEAGgNAYwBoDADQGAAaA0BjAIDGANAYABoDADQGgMYAoDkaO+SlqjXD9atjmiZ9mF+EZtTI6wSbwojIqHPDrrrATG5ig8YsRoyI2yp60K3kTcMkZBZTjTmD1bd715/Q/VjT8JAzdmlNwrUmf2W6L83tciuF+57E1vhFxAPBmt279/XvO4a4Xf9723es7d49lwj3mI+ZxpRSftP33voPn1jydJIv0Va2M9/wGJ7VBd9OPfqC3429sqK2CrdliLXO3F7X/X953jBfdLldWkoiRkSM0ddfbnjmudtHjhyhKISL/cfQXNEQgjjZ2raldG46GYqGhmQP8gpPyK7FfShjk2lyTSRtWx2Y5HPGxp4wLBQKE265FjuNCSYCkeA5A888uutwt3BrrYiIEVdaKq0iMhqMhNBYrB2KETErEr39jzN69Rxef1qoSRFpolqiCAaxGBrHFKmh2YOD4WCZVc4FJyKttMd0CyZCdq1gAps19iif19uzZx9J+5StSDBSREwL7mWklI5yPGstpsEvXVprt3B9sHHRvuriRF8CEXHOfab3650rv9jxVZzLjztQxuZYFrWs999bLLU2DDdnzBAG58ZHCz/bvGUHZ36s4MdQY4qUz+1777uFN79zx75ASbwrTtoyqqyBWUct2vTp2+vfj/fE4X7KMbbeQUTaNN0PPfjin2//Z9hWjFy2shixfgN6P/7Ya5s25THyKGQWI43VHZX169T3f3mfrS74NiMxnYi6JGb9ut+pL6+aZ0ubaRyPxeBBmY6L8/Tonf3Wa+8VlZUZPE1pu3vukD59cp/79ztEXq3xyhgzjXHNbG2nx6dOHXnBkq1L537695pwIBgNvbDiVaZJcIETPmJ0uhiVgwf3Ov2MU/751zfm//dtxnhFYOe8VxYlJPjxNnRsNcYYs5W9t6rIIzxXjb08ZIdmvHLl4AeO+WrXihtOukbh5TBWhWvD+bv2dUrtcu2NFyxftu74Y64c0meiEOLy35ynKVB343loXkYjAgtEg1cfd/my7V/vLN+V6E245eTrzh18VkHFnl6pPTMTOoWitXi2Ym2aSKSJxJ1/vnxfUZlFpUmJyQ8+ctvmLRsrKwLDju5rcC9RlBFm+LHRGCcetiNDswYPzRocjIRsJcvDlV2Ssnukdo/YkaAdQmCx2Zkm6/TTTiKKKrKIbEXRPr37EAmiWo3AYqoxZygL2bVMM8MwtNaCiYgVDdsRphkCi+XMFAUZMU6CSDPiisJEmhFDYDHXmDOaEfu/T7gwxhjhmYr9g2/nFfDAiVTECM9ZbK55AAAaA0BjAGgMANAYABoDQGMAgMYA0BgAoDEANAaAxgAAjQGgMQA0BgBoDACNAaAxAEBjAGgMANAYABoDQGMAgMYA0BgAGgMANAaAxgAAjQGgMQA0BgBoDACNAaAxAGioht2rVrv5B3IAACAASURBVGoptZRKaqax7WKZVtpWUmpbay2llEJqqXCz7obt7VKSIZXSrdeYaRqpcSmJ8elu020wgecgphvT2jTcVtj2+bw+VwojvxYKm6VBhGFzSotP8HHOW74xTcSoYHfBv7Y833/71+FomDHcqzvWGzO4UV5TuXLLmqf+/h+Xy60VGmsYpZTLnfDxh1/27nais0lbsjFGRDRx0nl79+2t9IW11ESYK8Y+i2vPWYPPqyhOZoxpPGUNZwpx3JgzBg0eSESNHs1Yo+sEgGY+HpNStqcglVIul4uIrKjFOGOMCSHqvqXay8xKax07E3vGmNbaMAwism3b+U8icr7isG071rYh57wph2QddBxTSnHOd+zYsWTJktzc3JNOOomINmzYsHbt2szMzOOPP97r9eIFuCWCJ6KdO3cGAoEBAwY4/ymEKCkpWbduXTQazcjIGD58eDv7W/MOG9iCBQuuv/76rKysMWPGMMacF/vf/va3+fn5QgiFFYIWIKVkjC1YsODhhx/mnAshhBBaa6/Xu3Dhwquuuio5OVlr3c5e940OGBhjbNWqVffff/8HH3yQlpZWV12vXr369u07YsQIl8uFxlpiEHPmDhs3biwtLf3yyy9ra2uTk5P79+8fFxc3cODAZcuWde/eXUpZN2lHY234mZ49e/aQIUO++uqrbdu2zZw5MzExkYjC4XA4HA6FQuih5Y4Mv/766+XLl9u2/cILL9i2vWvXrmeffTYnJ6e2tradHfB30Ma01kKI2traVatWXXHFFWlpaa+//vqCBQsWLVrkrH/UTRqhJVYObNu+6KKLSkpKvvnmm6effnrz5s3ffvttdnY2HVgZb5cbn3e0xoiovLzcsqxx48aNGTNmzpw5GzduXL58uTNjrPs3tNxTEAwGiSgajc6fP//MM8+s/612OY51rMacl8nU1FTGWFlZmW3bbrc7Kyurbr3YMIy4uDiU0KJPAWPM6/V+8sknZ555ZlxcnJTS+ZbL5cI41h6eYCmlx+OZMGHCW2+9ZRjGxo0bU1NTR48eTUSmaRYXF3/yySfO8hfenW8hPp9v8eLFKSkpgwcPdlabnLninj17duzY0f4y63Br95xzrfUDDzyQk5Pz9NNPL168+NFHH/X5fM4scfz48X379nWOznFg1kJcLtcxxxwzevRoKWXde7tJSUm9evUKBALt79WtQ79a19TUxMXFOU9q3b/RQIsejDHGKisr/X6/aZr1vxUKhZxXunY4e+qYjTmH186LaN10xfm1s/aIHo6I+s8FGgNo/Asc/WiZvh1PItAYQAsvAWATAKAxADQGAGgMAI0BoDEAQGMAaAwAjQEAGgNAYwCAxgDQGAAaAwA0BoDGANAYAKAxADQGgMYAAI0BoDEAQGMAaAwAjQEAGgNAYwBoDADQGAAaA0BjAIDGANAYAKAxADQGgMYAAI0BoDEANAYAaAwAjQGgMQBAYwBoDADQGAAaA0BjAIDGANAYABoDADQGgMYA0BgAoDEANAYAaAwAjQGgMQD4RUYr/zyllNaaMda2NpPzmDnHSxI0GNNaYysAtIdxTCnFOb/11lvz8/MTExKlkm1lBHOZ5t7CwrPOOuuKK66QUgohsN9ALDbmzA83fb9x/ImnDjx6hAqEWmDGqJr9CFNJKZLj33zplbzNm53ksNNATB+PpaalnXrSyb1GDiGrWXNQRIzIIIoQCaJmjNcmctPuvG0b9+7E7gJtoDFp29XV1TqidFWg2ZYQlCKvh7SurarypneiYJiiFjXTICmlZOnxgUBAKYXdBdpAY0TEOWecM86pWRpTihJ8eWs3vPnOf9PS04sKC6+5YlZKRgZF7WbJjGvNOMeKIjR+F2rbD19rMkQ4ELz93j+dNPb4S383y+Px3PynO8ht4qkFNNZMhIhU1XyXt8nn8ZqGedKxY/cWFZKNeR2gsWbBmI5EE7t2+dXYEy+4/JKNq9d9uvSzmVMuJpcgLAACGmueyjin6tCT//jnCcced9SIIbXh2gsuu5gqgoQjKEBjzXZI5jI2rV/XLbfrEw89+txrr7zz8huU6NNa4tkFNNYciSlFca5HHnu0b68+v7vlxqsuufSJZ54ixplmeHYBje0/piIiauy7T85Rl8t0bduxvaSslHF23KgxxFrpYAxvmkFbaExKYozi/I3LjHNO1eEH7ronJSn5ozfezsnOvvPm31MwQi1/ar9zBibhBCuI3caUoiTvf1575crrr9703QZKiiNiDS6NMbJkQmrqlddeM+2CKdOvuEKYJknVco05Re3cuXPKlCnvvvsuETHGMKBBLDYmpbSV3Lp9a89uPTdu2PDCM/+ylSK3i6RscGZRS1cGSGtdXkMtvLsrpWzbLikpsW3b7/c/8sgjW7du5ZxLiVUWiKnGtBYJCYZhJCYm9unZc8IlFx09dNiCd96qCQYoPb7B724xxjgnIiZES88ShRCGYWRmZiYmJp5yyim/+93v1qxZs2HDBnzmBQ7JOFKBkce95OOPVmxa99mypd98u3pz0e547tq5a9dj/3jqlutuOvf/TaBwaxxTNeLwr7Cw8JVXXtm9e/eGDRsefPBBl8sVjUafeuqpIUOG3HfffT6fjw58kAfgyDWmiIQoLCpctWpVwe4Cr8fr8nms2ojP5+vTq/eO7dv2L4TEHsZYKBRat25dcXFxYWHhunXrtNac8169eoXD4YqKCr/fjyUQiIHGBKOa0EUXz7joyplvPvtS54yM48afVm+UIyoPxmZjUsqePXs+//zzlZWVzzzzzC233HLIDrFjwZFuzFmoCAR1lTr/3ImktSqurr+Pshg+ttFaSynj4+NvueUW27YPOlRDYBAzjRGR8ykyImKMG0Zb2WSMMePAozXazsOGI7abYxMAoDEANAYAaAwAjQGgMQBAYwAxpQFv7zTxFKG6P661Jq211qwtnHNU92jra8r/EG9So7GW2jmcPy44d7vc5GLM42kTl7XhtiTG3KZpGgZjzDRx5UZoscbKysqiSjJhkG7MB7S01oyLymBwx97d/l2dqTrYJi6+K6VkKXF7SkvKA9X7ysst2zIad54X48q24r2++Ph47HYdymHdf0wrxTgff+aZlZu3dkpJOegkvQaMCZxv2l2gtDba1EetGGPhSDQ5zp+b3smSshGjuSbyuMyNBQVnTZ/24AMP2LaNk7Awjh1CvMdzcXzn4enZQSvKDzlvVNq5GBTTRPzQuyJL766JSOtmP62+7sXi4DntgW/839frvsKJDufyVQdu/Klt+VN/r18YDLVOdbn/UxKMuFzY59DYTxJcuF2mx+u2OftxY0przpiHc0YUVkr91A1pW2adQ2nt5tzgPCqVpVX9hyeIaSLGmVZakSYiXu/WSYoa8ngaezAmtXZ7PKbbZeOz0mjs5wcKRaSkUurgK9IorV1cWEp9F6iKKNndF+/hQupWusShJvJwnl8bLI9Gcrz+VJc7LGVd4VUy6mY8ainBmE8Ymqjajpqc21qT1nGGqQ7/dmWNfYFQWiuptNL4+GYH1AyrDlprNxeF4dDLBVs3VFc8szPv5YJtPiFaZ39SWvuFeLsof97eHRVW5P4t65aVF/sNw1mWYUQFoeAV3y57bPt3YbX/s9VlVuSGDSvu2riq0opiJR1iaBz7mSUBxeiZXXkTM3PHpmaek5kblHZISt7yu68mMhnfFw2/unv7QwNGHp2UFlbqnzvzjkvpxA78hlHJaZZSfXwJvfwJ+6Jhrml4UpqL8Uy3b2hiamG01iBkBjE8ju3fy2tD31VX9E1IrrItTRRnmK02JdKM3IxXRKOflRaZjBFRkukS9fIO29IrDM5YVCvn8sERabs4NzmLSJth7gaxP47ZWqW43AFp37957XU9jnILYbbWKVqMyFYq2eW+onvfRzavCysZlvLq7v2cYy1nZsgYU1oT/d/1uRljzoHREZwoOueLHPQOoTO7xvQV49jBe7nU2ivE3f2GfVZa+MjW9QHb4qz1hgfOWLVlzcjpNS239wPrVm4P1QxMSI4oFeN7KmOsLjAnLa01YwyBobFD7y6aKNF0Tcjq9ud+w9Nd3tacgCmtEwxj3p4dUSWXnT5xQ1XFg1vWJ5im+uGKy4/33SO4OwvOt2/f/sYbbxCROvByYFnWF198UVlZSbiAPho7eC9XKsF0PbMzr8a2uvvjQ9JaV13eamdJOQeE7xYVDElIPjY968rufddWlUmlGNV754uxqJL1d1zGmCWVPEK7MuN84cKFS5YscXIKBoORSMQwDK/X+/jjj+Oa3mjsEONYWNonpWZ+tG/3bRtWPrljE2PM5Fy1yh7MiCSjUclpS8v2LS4q2BSompzdwxla64apqJLLy0sKwkGDMa01KS21WlNVtjlYbR7e2WTNLi0tbebMmUQkhFi9evW///1vzvmIESO2bdu2ZcsW54gReyfWPP7viKjGts/unJvt9W8P1QxNSu3tiw+3ytr9/p9uWTNyeq+tLt8VqpnYuetR8UkB23Z+OiOKKnljr4E9fHGppscmLTgPKnlxTu8Mt6eLx2+TZq2+dq+1Hjly5Icffjh48GCl1EMPPbR9+3a/379p06Z169alp6cjMDR2iMEkotTI5LRjUzo5i3utfLAT1WpEUqqzAFP/pzuLh2OT0y1NllbOV6XWo5LTlKboga+0Mtu2e/TokZOTM2PGjC1btoTD4TfffPPzzz9ftWrVww8/nJqaWndnM0BjP8gsaNvOL1p/NcH56ewnljeCUtZf4WBEtVKyI7dK7kwFzz777FGjRu3evXvQoEEul6t///6zZs1yRjkEhsZ+ctp2JI8sf/qn//hb/EgvkTu3BczIyMjIyKAD97x1hi8EhsagmV4UOHfeia57rwx1oTFo/tEMbzq3/xdTbAIANAaAxgAAjR35oy/OSOOj0GgMWiywqG0LlwvnSaExaBFKa5/H/f7ChcFQyDRN5w0xQGPQPARjFeHw+T36/rq45vxJk2qCQc45MkNj0KwbmrFay7pm0IhheQWTJk+uRmZoDJr/kIyxknDtdcNGjthcMBmZoTFooUljSSh07dCRIzblIzM0Bi2Y2XXDRjmZVSEzNAYtkVlxbeja4aNGbC64YPLk6kAAmaExaLFJ4+aCyRdcUIXM0Bi0aGYXIDM0Bi2d2YVYAkFj0KKZDd+yGyuNaAxaBCMqDgavHTry6Dy8b4bGoFlpIqmURwifYTiZjdhcMGnSJGSGxqB5GMTS3Z5NNZUbayq9wtgXCl47dOTIzbsnTZpUEwohMzQGTaK0fmzHdy/v3nbThhXbgzUuwTljJaHQNcNGHr1l9/nnnx+orUVmaAwaydIqze3JcHlv+uaLszt3ndalZ6UVFYztPwtkyMiRm3efd955yAyNQWPYSqUYruXlxa/v2f67o4Z+Vb5vafm+VNNta00HzgK5ZhgyQ2PQ2Cliqsu9vrri+vUrZuT2fnTgqCu69r1r4+qVFSVeIdSBzJxJIzJDY9AwWmuPEMvKi2es+uy0Tp1HJKf/O39LjW0NSEyusKKi3r1mDsosiCUQNAaHhTEiWlSy99TMLselZm6pqcp0e4Ympt7dZ9iJaZmhH97+s+7t6ZGbd088/3ysNLbV5/xwrt+ilWKcTznv/PN3V47Iyg5EoxxXt230UEbkYtzgTGrtZtzWytJka+VclPvHv19qne7zPbFm5co+Xd584414vx93dcE4Bj/7qkZkaRWy7bCUVbYVktLWin76JjL1J42TJ01yPm+GK1uhMfjFOSPjjPHDu969YKwkGLxm2MjhW3ZPmTy5sKhI4zqNaAyal+C8OBi8ZfgxKSs23H3//Zxz3Da6nTemD/uL0IxDX8i2hmdmJickYGu0IUZj/xiLanXQdMXAgXhLZ6YpYkssOLX/xhjRlmDViKQ0g+2PSmvtEmJ9dUWS6TKJKewDLZcZ5gvtvjFJ2iPEwuI9L+/Znmi6pFJEpIl5OP+msuzczrlTs3tU2RZeawEaO44pzYkk6YJQoEyYtlZME3HGNCWbZljKsMIwBtCExgTnQcv6dVrW7b0Hm4zrAxMYIlJah5UM//BkBQA01mBa6/4JydWWxRgzGddah7XkxIiI//R7qQAdUyNXAi2l4k3z/X0F923+dl+kNsl0cSKOO4gDNFdjijRnbEugKsF0La8sebeowOSCM6Zw8gFA0xvTRD7DTHd5/MLsH590c8+BScJcWLxbE8WbJs7xAWjS8ZjS2uR8TUXph5HajYHKwkjIWb7fGqxesHbXZV37jE5Kj2osLQI0tjHNyGDsu5rKT0sLC0IBtxAl0UhU2l5hKq1XVpaOSkrHZgVofGOCWI2U03N63tZ78KPbNmS7vRdmdy+39n+iLKpkUEoMYgCNb4yIGFFYym3B6v+XkcOItoUC9b+FMzwAmtoY1YWEnAB+MRZsAgA0BoDGAACNAaAxADQGAGgMAI0BoDEAQGMAaAxanNZaSln3mT2lFG7sEmsMbII2HRhjTAjh1EVEuJ8LxjFo5sCqq6tff/31TZs2cc4553l5eV9++SU2DsYxaI5XR85LSkpmzZplmuZLL7106623bt269bbbbhs0aNDpp59+6623/tQNzQCNwWERQixfvvzCCy+cPHmybdtXX331ggUL5s+fP3r06BdffHHnzp3dunVDZpgrQpNEo9E+ffoQUX5+/scffzxq1Khhw4a5XC6/3x+JRLB9MI5BkyilBg0aNHv27KSkpJdffvmiiy6aNWvWjBkzysvLhwwZMmnSJNzSFo1Bk0gpe/fufeONN7722mtz58698MILiejJJ5/cvHnzmDFjhBC4CB8agyZhjGmtBw4ceO+999aNbJmZmZmZmXW/AVsJjUFTM1Nq/50WnbV75z7RDBdFR2PQXA464kJdsfgcYRMAoDEANAYAaAwAjQGgMQBAYwBoDACNAQAaA0BjAIDGANAYABoDADQGgMYA0BgAoDEANAaAxgAAjQGgMQCgBl37TRMprSVphQvQNoomYkS8yddm00pJKaWUuMxbazxrWgshmrKpG9CYIUSCYSaZbkOTIDy7DXyqGHFNUSVDSjVl2zEir98vhHBu7QftZRxjjIjy9+59aNv2nIq9EcvCK2iDNzRjZdHImNSM6V161Nh240YzRhQ1xWtvvVVRWBSxLdwyosWfNcMoLCq67tprjzvuuEbfo6MB41hiSvK4P9zeZ9AgFQxxNNYQUimR7H/v3Q/y/rvA3bVPtW035tCZsRrLOj4zO7msxPx8VVuZsTsz5LZIaZ3kdv9t0/qd559/HFFrNJaUlDT++BO7jhhIEaJYmKcwIk1kE5lE9fc3SaQ1MUaxM5myiTwU2FP80dvv6ib8dS2tsty+Xl17toEdlzGlNSMSxCyt+IGZjyJSWnPGYn8Illqnur3LghVen4+acI+OBjQmpaysqckJSV0TOPKzFMZIa2YY5PPq8pp6X2bk85JXUMimmnCM3B9ISpulJ1SHgko39VXF0qoiEon9kUFp7RGGJF1tRzNcnmopneRcXPiFqLWtsFKx3hhpoSkUjaqmPdSG3VOCc86FICHoiDemNXncu7Zu+fCTxVdedoWOWkTEXWYwWPPuf9/csOn7wQMGnXvm2S63m2IgM0HEhGiWFyZGJGJ+oq619hnG1kD1+8W7012eais6PbeXh4moVp+WFn5cvGdUSvq4TtkuxnVM/y2IN8c9OtrsQbNSFGdW19Q89dwzLMnLOyXwTgnEuS8lLTOj031zHh45dLjL76OYf7FsfzSR4Dxk2/dtWTciMXVWt7754eAjWzd4DWFy3tXnf2t7Xk9fvF8YHeRNoLZ5byStyevO+2bd3/71z9ra2jmzH5aRiMvlOmfc+O5DBnTulNk1Nzc3uwvhfbwjNIh5hVhbVZ4fChyT0qlW2hdk97h+3dclPcKJpivBMLOTk9NMd8fZIG12HNOkDS4M4bxF6E9M/N+ypUVFhSQoYllSyqgVxe5+ZA9mAla0VtoeLjq7PWHb2heuNTmXSttKSepAL39tcxxjjMKRfkMHXnP5rFVr11x3643Fm3dmJKeMOfFEqlUG54Q7tR7Bl23GQlIOjk/O8vrvy1t7Q68BHxfvlVrHG6bSugM+L212HGNMS1VSWsoYq62ofP7Vl0895RSyZb3jNRyJHblBTGuPEE8OHpNouhYV711WXpzti8v0+Cy5/0lRaKxtVKY5F8Lt9nz49gennXhyUudMFYk6p6QIIXxx8YSh7MgNZREpO3t8jw8aPSWnZ36oZlb3fi7BnUUOzpibcd1hnp22fTKOx+3+ZvU3Hp9n6JhjqSq4f3GcsV35+fPffsuqDZPA2UZHap7BIkouKS28Zu1Xk7r0OCczp9qyBOdEVF5Z+f6+grBtd5B5Y1u+57rSbrf7iotnnnHm2RQMEeekFCkV5/Vde+XVffv2N0yDFJYWjwxN9G1V2fc1lbO69R2Vkl4VjXLGlNYmY38YeszxqRkGYx3kuWmzjXFOgdqB/Qc89uhcilr7T57inMKR3Nxuc//2FNmaQrXY149cZHpIQsqJaZlSaycwIpKkE13uy3J7R5SMdph3Voy2/fAZo3CEGPvBoRcjXVHDnOTgyM0VTcaqLeugj8xprStti3ek5UWjHTyZh/gaPlsVG9PFQ34+Q3SwtSi80gOgMQA0BgBoDACNAaAxAEBjAGgMAI0BABoDQGPwS/TP/iegMWgSpbVBTB+4WYcm4kS4Xwcag+bBiOIMo9qOujk3iHk4d3NORH7D0MisfTGwCY7I/JAx9tCW9SsrS7M9vj/0HVIVjd65cbXJ+WVd+5yUmhHCfY/QGDS+Ma3jDGNJaVGtlA8PHLUlUPVc/pZPivcOT0o9KzN3Wfm+gfFJCYbLJo3I0Bg0XqUdvTi314jE1KP8iXO3fc+J/jHkuHjDUFrvDYdSEtw2rpKAxqDRlNYppvuNvTsrrMgjW7/jnF2W2/f6dV938noLgoHf9x4cbdp9ACGmYM2jtTHGgkqOSe6U4nI/sHl9nDCeGnTMhdnd+yck7Q4FJ2d3jzNNrC5iHIMmNEbENNmkruja58Ks7nGGYSldbVlTcnrOzOldI60wFjzQGDSLGssSjAVtm4g4Y1XRqNJaNMfNeKBdNOZcaw2aMk1nTNW7Lj9nDHcARmP1mAbZ1g8uW641Gcb+X8Bhzxuh/b+YNu6wffU3K8kfR6kH/kmKo/T4bdu3RmqDZOC6awBNGceUonjf6+/Mv+P+e7IyOlu2RcQ0abfHvXzFit9eduVVN12nS2twhUOAJswVpYrzxXfpnJWSnCKl7QxtnNgZvzo9KSmJAhGGC/QCNL4xzqkmMOW8ST1GDDzEdyNEgSCWQwCaNo4R9ejVS5XUsHofeWJEWmvOOa4yD9AMjdUtOdcNWExrZppYVAQ4eObXuD+2eeP3LD2+/j/UKaGkuEjZNm6rB9C0cUwp8vteeeuNor8/2Tkz07IsRkxr7fJ6l3z+vysunnHRpZfqcqwrAjS6MU1kMMu2t+/aWR0I2JblzBg55ympqVVVNRS2sK4I0ITGBKfqwIUTzrvvoYfooLFKEYXt/TfdA4BGNkZERIMGD6HKwCG+cdAtLQHQWCP/nC2xRg9wOBrbCQYrgJZtDADQGAAaA0BjAIDGANAYABoDADQG0Bbh+oqtSmstSSvSrBU/Z4dLyqGxDjNn4NzvcqW4vYpItNZ+r5SqsSxsfDTW/ocvRlQbDC4vyH/Vm1AVjfCWTkwzRiRJ+/2+sWmdMZChsXaOcU5R2Te3W++zztzYKd22FWvhmz9rIs5FdW3wy48+Gp2U7sF9KtBY+2+sJjz25FPHnnV646NxrsrckM+X64rQed+eom1JLhcutYLG2n1njMJhFWzwPVmUUsLjJtMklyCbdHnN4c5OXWZpWVlUSWx7NNaBMuNGAze40iLeV5i/a+U333yzdvXo4SPHnzmebPmLny1iWpMQQggciR1xeH8shmlNcZ71a9Y899ILXY7qlZaa+r9ln5PCHXMwjkEzNsbo7/96+tKpFw8fPnz4sOEkiapD2DBoDJopMNOgypq8bVsy0zupoG1XVRmmi+OiepgrQnMdvJEtKT6OM/aXOQ9xv+HKSuU+b1OWB/WP/ixjTGO9EY113JFMKRLs3rvueeu9d44eMuyR+x7MW7+O3I284DkjctcbA53/RVRJNwZGNNZxRzIhqLp29Kkn5K1YM2ni+f9+4bkVq1eR36WValirjBhjtlL35H1bbkVMxonIICaI7QzWLCrZazKOsQzHYx31kMzr2rMur6ikePwZZ9jR6ISzz6GaaCMuw2wylh+p3RepTTZcllZRrfaFa3vEJQyIT/q0rMjLxSnpnWssC2cPYxzrcIdk0rLuefTB3/7hpktnXdEjt1tc5wwdacxlmLXWbi5OSMtMdXv8hiGIPbBl3e5QINfrF8TWVpU7gxtgHOtwjfGo/di9s33JKaQUcU5VocbdrCOqVGefn8rpld3bhielzd323dZA9bzd2+ds3bC8vPjxIWMiOB0EjXXMuSJzmT6vm6IWEZG2G/fus/NZNVupszNynt+97fUNKwVnjw8+ppvX/+qeHROzuo1KSgvZNiaKaKyjHpJZB9JqQgOMMamUS4jrevS/LLe3i3NGZGl9c6+BEWkHbJshMDTWkWeMzfO/IZJaV1uWYCyilNaaM1YSCTN8UBqNQbPV6rzpfOAX1Iofx+7IsJoEgMYA0BgANM/xmFRKSaml5DiRNLZprZnkUkqc8tuWGjNNMzUpifsEuRMJ55HGNmdlI1WnmgaWtdpOY0WFhfP+O7/f1kEyFMKZNzE/kBEzzMqqqn1VlZSSg+3RNhobc+yxeXt2FVaXSkw/2sJckXNeEwpVhYLEmfPRMazTx25jznspf/rTn7C92habaNIxY8iSZLoYXhljfxyTsl2dNqqUMk2z/l9NHDjdVivV1q/4qbVmjJVVVVk2TvZtO42JdvSBWSew8vLyJUuW2ptNJQAACL1JREFUJCcnn3jiiUS0efPm/Pz8+Pj4oUOHut3udtCYEAInIh5xHXHtQinFOV+6dOnll19uWdaQIUOcr1dWVk6cOHHFihXO78HOAa09jrWbwBhjeXl5N91008svv9y7d++6V/1Bgwb16tVr7NixbrcbjQHGsSZNou67776BAwcWFRW9+uqr1oFbB4VCIcuygsEgdgtAY40PjHMeiUSWLVvWpUuXYDA4b968SZMm1R+1OMd7f4C5YtMaKy0tjUQi55xzztFHHz1w4MBhw4atXLnymGOOcUrDyUeAcazxnEW25ORkrXVNTY1lWQkJCdnZ2YFAwPkNQgifz4fdAtBY4xuTUvp8vlNPPfXdd981TXPXrl0JCQkjR44kImc1f/ny5c66CAY0QGON+gtzrrWeM2eOEOLZZ5+dP3/+X/7yl8TERCKSUo4cOTIuLk5KyRjDO0uA47HGTxfT0tIefvjhvXv3JiYm+v1+Z7ExKSnprbfewj4BaKwZOPPArKwsOvCWNB04kUVKKXAJeMBcsemjWd0R10GL9QgM0FgzzxsB0BgAGgMANAaAxgDQGACgMQA0BoDGAOBHlFI/PlNca/3zp4/jIrIAhz0i1TslyDnHlQ7jTAaMYwCHG9hbb701f/58InI+maG1Li8vf/vtt2tqauinP92LxgB+gZMOY2zRokVKKefz8oWFhbZtJyYm+ny+p556Co0BNF7dXHDYsGGnn34651wI8eKLL86bN08IMXr06C+//NKyLOejiTgeA2i8kSNHvvjii2eccUZ+fv7cuXNHjx793XffffTRRwMHDjRNs+5DUhjHABrDtu0RI0akp6dfd91111577cSJE1999dVu3bqNHz9+zpw59NOLHxjHAA5vxsiYlHLy5MmTJ0+uG7JmzZpV/zegMYDG01obhrF27donn3xy3bp1FRUVXq83Nzf3qquuGj9+fN1SPhoDaCQhxOrVq++4447hw4dfeumlfr/fsqyioqK//vWvFRUV06ZN+6njMTQGcLhzxbVr17744otpaWn1v/6HP/zhmWeeCYVCPp/vkKMZ1jwAGjBd/P777w/6Yl5enm3bhmH81HQR4xjAYVFKnXbaab/5zW8efvjh5ORk0zSj0Wh5eXkoFHrooYdcLpdz6dsf/0GMYwCH21hOTs6bb7557rnnmqZZXFyslDrhhBPmzZs3cuRI51YKh/yDGMcADvd4TGvtdrsvu+yyyy677KD8fuZ2P2gMoGGZOecrOr/WWgshfv5+WmgMoGGZNfQqtzgeA2hZaAwAjQGgMQBAYwBoDACNAQAaA0BjAGgMANAYABoDADQGgMYA0BgAoDEANAaAxgAAjQGgMQA0BgBoDACNAQAaA0BjAGgMANAYEBGRPuwvQjPC9e47CkbEGLOVOugOWQbnUmuGDYTGoPHDFyPOWI20K63ogIRkS0rnVnSMyNJqU7C6hzfe0gqZoTFo0iCmie7etCbT4+OMtNZEJIgFldwRrPnH0GPTXF5khuMxaGpmcaZpcMYZE5wLzon///bu4KWRKw7g+HtvZkw0qTXGxa26Nha2aAsueOmCIhYsYim0Qike/Q9Kj9uD/QN68NazeuylIHQvKV5y2rBWLO12QYvKtjbrkoRk3TGZmfdeD1lkWbwYbbDp93McT3nxO7/3koHIpOvdebO3HAZn4YE5hqa2i0IIIb6+fefdZHdkjBDCnBWlpB9GdWOUZIzRGJqbYFZoa5OOl3C943pNCOFImXTdxi9BvogibQmMxnCZISaFI2VZ112pOpXjCOmb6Lvd3x8/r7zX3fPFQOZmvKumNZlxHkPzOqT8+9R/UH6WdF0hxL1HD396djTclXxaP/32j9+K9ZonFacx5hiaF2gzknjj+6ODyZ4bdWvijvvj3Y+EECkvlj3+6+dK6eP+wZMoEowy5hiaO49Fwqa8jrupG1/++uBJzf8wfTPpep2O+8JEe/7zLsdhiDHHcLlbqZTVMPzsreFKGNx79FBYu/H0ScJxj2r+rc7Ep6MTp8ZIhhiN4fKZLb19eyrdf//4z92TqhDik/5bnw9kOpQTGk1jNIYryKwSBEPxxFfvvK+NkVIqKSthEFqGGI3h6jILjK4FupGUFcIhLxrD1ZJSOqxCK+9rLAFAYwCNAaAxgMYAGgNAYwCNATQGgMYAGgNAYwCNATQGgMYAGgNoDACNATQG0BgAGgNoDACNATQG0BgAGgNoDKAxADQG0BhAYwBoDKAxADQG0BhAYwBoDKAxgMYA0BhAYwCNAaAxgMYA0BhAYwCNAaAxgMYAGgNAYwCNATQGgMYAGgNAYwCNATQGgMYAGgNoDEDTXJagvVkhtLDaWmMtq3EhWlgtrmDVaKytSRnz3HRHrDMeN9qwHhdrzJq+WDzheUopGsP5TBjsHBx84x7HYjHm2MW3ADbhddx//MsH1aoQwja7gNKy9O2rXq//sLFhHUcpxdvcBKWUX63OTE5mRkastVJKGgOuHfaKbS6Koubuvv8ex3GEEFrr1668PAW9cv1a7BitdRznMmvIHEMLz4fGCCG2trZKpdLs7KwxRimllCoUCtlstlQqTUxMTE9Pt9uGkzceLaO1Vkrlcrn19XXHcTzPa0ywdDq9t7e3srIyPj7e6JC9ItDkpiufz+dyuWKxuLa25vt+X1/f3Nxcd3d3JpMZGhrq6em5bntF5hj+Y4rFYqlU8n3/8PCwUCisrq6enJwIIYIgCMOwLV8ycwwtIqXUWs/Pz+/v7+fz+eXl5e3t7ampqYGBgcZf2/WFM8fQUsaYcrkspaxUKtlsdmZm5mxzaK1tv8MYjaHl/3BKeZ5nrd3c3FxcXPQ876yrWCx2yaeWaAx42VI2mx0dHR0eHm58fN9ob3d3d2dnp/02jTSGlh7JhBC9vb1LS0tjY2ONj/IbFwcHBxcWFlKplJTt9p0t30Gj1aIocl33tcf/mn4akMaAc5xb1KtjjcYAcB4DaAygMQA0BtAY8H/2D4QBRgSxRjUYAAAAAElFTkSuQmCC;connectable=0;recursiveResize=0;expand=0;editable=0;" vertex="1" parent="3qUbQweHZjMcJ-lY2vsP-1">
          <mxGeometry x="240" y="-172.98" width="261" height="842.98" as="geometry" />
        </mxCell>
        <mxCell id="3qUbQweHZjMcJ-lY2vsP-3" value="Untitled Layer" parent="3qUbQweHZjMcJ-lY2vsP-0" />
        <mxCell id="3qUbQweHZjMcJ-lY2vsP-4" value="" style="rounded=0;whiteSpace=wrap;html=1;fillColor=#000000;strokeWidth=2;strokeColor=#666666;" vertex="1" parent="3qUbQweHZjMcJ-lY2vsP-3">
          <mxGeometry x="254" y="89" width="265" height="469" as="geometry" />
        </mxCell>
        <mxCell id="3qUbQweHZjMcJ-lY2vsP-8" value="" style="rounded=0;whiteSpace=wrap;html=1;strokeColor=#00FF00;fillColor=#000000;" vertex="1" parent="3qUbQweHZjMcJ-lY2vsP-3">
          <mxGeometry x="272" y="236" width="229" height="291" as="geometry" />
        </mxCell>
        <mxCell id="3qUbQweHZjMcJ-lY2vsP-9" value="" style="rounded=0;whiteSpace=wrap;html=1;strokeColor=#00FF00;fillColor=#000000;" vertex="1" parent="3qUbQweHZjMcJ-lY2vsP-3">
          <mxGeometry x="403" y="236" width="98" height="60" as="geometry" />
        </mxCell>
        <mxCell id="3qUbQweHZjMcJ-lY2vsP-10" value="" style="rounded=0;whiteSpace=wrap;html=1;strokeColor=#00FF00;fillColor=#000000;" vertex="1" parent="3qUbQweHZjMcJ-lY2vsP-3">
          <mxGeometry x="403" y="273" width="23" height="34" as="geometry" />
        </mxCell>
        <mxCell id="3qUbQweHZjMcJ-lY2vsP-11" value="" style="endArrow=none;html=1;rounded=0;strokeColor=#00FF00;" edge="1" parent="3qUbQweHZjMcJ-lY2vsP-3">
          <mxGeometry width="50" height="50" relative="1" as="geometry">
            <mxPoint x="403" y="331" as="sourcePoint" />
            <mxPoint x="403" y="331" as="targetPoint" />
            <Array as="points">
              <mxPoint x="431" y="331" />
              <mxPoint x="441" y="323" />
              <mxPoint x="441" y="296" />
              <mxPoint x="426" y="296" />
              <mxPoint x="426" y="307" />
              <mxPoint x="403" y="307" />
            </Array>
          </mxGeometry>
        </mxCell>
        <mxCell id="3qUbQweHZjMcJ-lY2vsP-12" value="" style="rounded=0;whiteSpace=wrap;html=1;strokeColor=#00FF00;fillColor=#000000;" vertex="1" parent="3qUbQweHZjMcJ-lY2vsP-3">
          <mxGeometry x="463" y="358" width="38" height="42" as="geometry" />
        </mxCell>
        <mxCell id="3qUbQweHZjMcJ-lY2vsP-13" value="" style="rounded=0;whiteSpace=wrap;html=1;strokeColor=#00FF00;fillColor=#000000;" vertex="1" parent="3qUbQweHZjMcJ-lY2vsP-3">
          <mxGeometry x="403" y="373" width="38" height="42" as="geometry" />
        </mxCell>
        <mxCell id="3qUbQweHZjMcJ-lY2vsP-14" value="" style="rounded=0;whiteSpace=wrap;html=1;strokeColor=#00FF00;fillColor=#000000;" vertex="1" parent="3qUbQweHZjMcJ-lY2vsP-3">
          <mxGeometry x="473" y="273" width="28" height="49" as="geometry" />
        </mxCell>
        <mxCell id="3qUbQweHZjMcJ-lY2vsP-15" value="" style="rounded=0;whiteSpace=wrap;html=1;strokeColor=#00FF00;fillColor=#000000;" vertex="1" parent="3qUbQweHZjMcJ-lY2vsP-3">
          <mxGeometry x="441" y="296" width="32" height="26" as="geometry" />
        </mxCell>
        <mxCell id="3qUbQweHZjMcJ-lY2vsP-16" value="" style="rounded=0;whiteSpace=wrap;html=1;dashed=1;strokeColor=#00FF00;fillColor=#000000;" vertex="1" parent="3qUbQweHZjMcJ-lY2vsP-3">
          <mxGeometry x="404" y="332" width="14" height="40" as="geometry" />
        </mxCell>
        <mxCell id="3qUbQweHZjMcJ-lY2vsP-17" value="" style="rounded=0;whiteSpace=wrap;html=1;strokeColor=#00FF00;fillColor=#000000;" vertex="1" parent="3qUbQweHZjMcJ-lY2vsP-3">
          <mxGeometry x="272" y="236" width="97" height="90" as="geometry" />
        </mxCell>
        <mxCell id="3qUbQweHZjMcJ-lY2vsP-18" value="" style="rounded=0;whiteSpace=wrap;html=1;rotation=-45;strokeColor=#00FF00;fillColor=#000000;" vertex="1" parent="3qUbQweHZjMcJ-lY2vsP-3">
          <mxGeometry x="271.99" y="334.49" width="29" height="12" as="geometry" />
        </mxCell>
        <mxCell id="3qUbQweHZjMcJ-lY2vsP-19" value="" style="rounded=0;whiteSpace=wrap;html=1;strokeColor=#00FF00;fillColor=#000000;" vertex="1" parent="3qUbQweHZjMcJ-lY2vsP-3">
          <mxGeometry x="272" y="139" width="97" height="97" as="geometry" />
        </mxCell>
        <mxCell id="3qUbQweHZjMcJ-lY2vsP-20" value="" style="rounded=0;whiteSpace=wrap;html=1;strokeColor=#00FF00;fillColor=#000000;" vertex="1" parent="3qUbQweHZjMcJ-lY2vsP-3">
          <mxGeometry x="369" y="180" width="111" height="56" as="geometry" />
        </mxCell>
        <mxCell id="3qUbQweHZjMcJ-lY2vsP-21" value="" style="rounded=0;whiteSpace=wrap;html=1;fillColor=#000000;strokeColor=#006E00;" vertex="1" parent="3qUbQweHZjMcJ-lY2vsP-3">
          <mxGeometry x="293" y="110" width="56" height="28" as="geometry" />
        </mxCell>
        <mxCell id="3qUbQweHZjMcJ-lY2vsP-46" value="" style="rounded=0;whiteSpace=wrap;html=1;strokeColor=#00FF00;fillColor=#000000;" vertex="1" parent="3qUbQweHZjMcJ-lY2vsP-3">
          <mxGeometry x="403" y="208" width="7" height="27" as="geometry" />
        </mxCell>
        <mxCell id="3qUbQweHZjMcJ-lY2vsP-47" value="" style="rounded=0;whiteSpace=wrap;html=1;strokeColor=#00FF00;fillColor=#000000;" vertex="1" parent="3qUbQweHZjMcJ-lY2vsP-3">
          <mxGeometry x="410" y="208" width="7" height="27" as="geometry" />
        </mxCell>
        <mxCell id="3qUbQweHZjMcJ-lY2vsP-48" value="" style="rounded=0;whiteSpace=wrap;html=1;strokeColor=#00FF00;fillColor=#000000;" vertex="1" parent="3qUbQweHZjMcJ-lY2vsP-3">
          <mxGeometry x="417" y="208" width="7" height="27" as="geometry" />
        </mxCell>
        <mxCell id="3qUbQweHZjMcJ-lY2vsP-49" value="" style="rounded=0;whiteSpace=wrap;html=1;strokeColor=#00FF00;fillColor=#000000;" vertex="1" parent="3qUbQweHZjMcJ-lY2vsP-3">
          <mxGeometry x="424" y="208" width="7" height="27" as="geometry" />
        </mxCell>
        <mxCell id="3qUbQweHZjMcJ-lY2vsP-50" value="" style="rounded=0;whiteSpace=wrap;html=1;strokeColor=#00FF00;fillColor=#000000;" vertex="1" parent="3qUbQweHZjMcJ-lY2vsP-3">
          <mxGeometry x="431" y="208" width="7" height="27" as="geometry" />
        </mxCell>
        <mxCell id="3qUbQweHZjMcJ-lY2vsP-51" value="" style="rounded=0;whiteSpace=wrap;html=1;strokeColor=#00FF00;fillColor=#000000;" vertex="1" parent="3qUbQweHZjMcJ-lY2vsP-3">
          <mxGeometry x="438" y="208" width="7" height="27" as="geometry" />
        </mxCell>
        <mxCell id="3qUbQweHZjMcJ-lY2vsP-52" value="" style="rounded=0;whiteSpace=wrap;html=1;strokeColor=#00FF00;fillColor=#000000;" vertex="1" parent="3qUbQweHZjMcJ-lY2vsP-3">
          <mxGeometry x="445" y="208" width="7" height="27" as="geometry" />
        </mxCell>
        <mxCell id="3qUbQweHZjMcJ-lY2vsP-53" value="" style="rounded=0;whiteSpace=wrap;html=1;strokeColor=#00FF00;fillColor=#000000;" vertex="1" parent="3qUbQweHZjMcJ-lY2vsP-3">
          <mxGeometry x="452" y="208" width="7" height="27" as="geometry" />
        </mxCell>
        <mxCell id="3qUbQweHZjMcJ-lY2vsP-54" value="" style="rounded=0;whiteSpace=wrap;html=1;strokeColor=#00FF00;fillColor=#000000;" vertex="1" parent="3qUbQweHZjMcJ-lY2vsP-3">
          <mxGeometry x="403" y="181" width="7" height="27" as="geometry" />
        </mxCell>
        <mxCell id="3qUbQweHZjMcJ-lY2vsP-55" value="" style="rounded=0;whiteSpace=wrap;html=1;strokeColor=#00FF00;fillColor=#000000;" vertex="1" parent="3qUbQweHZjMcJ-lY2vsP-3">
          <mxGeometry x="410" y="181" width="7" height="27" as="geometry" />
        </mxCell>
        <mxCell id="3qUbQweHZjMcJ-lY2vsP-56" value="" style="rounded=0;whiteSpace=wrap;html=1;strokeColor=#00FF00;fillColor=#000000;" vertex="1" parent="3qUbQweHZjMcJ-lY2vsP-3">
          <mxGeometry x="417" y="181" width="7" height="27" as="geometry" />
        </mxCell>
        <mxCell id="3qUbQweHZjMcJ-lY2vsP-57" value="" style="rounded=0;whiteSpace=wrap;html=1;strokeColor=#00FF00;fillColor=#000000;" vertex="1" parent="3qUbQweHZjMcJ-lY2vsP-3">
          <mxGeometry x="424" y="181" width="7" height="27" as="geometry" />
        </mxCell>
        <mxCell id="3qUbQweHZjMcJ-lY2vsP-58" value="" style="rounded=0;whiteSpace=wrap;html=1;strokeColor=#00FF00;fillColor=#000000;" vertex="1" parent="3qUbQweHZjMcJ-lY2vsP-3">
          <mxGeometry x="431" y="181" width="7" height="27" as="geometry" />
        </mxCell>
        <mxCell id="3qUbQweHZjMcJ-lY2vsP-59" value="" style="rounded=0;whiteSpace=wrap;html=1;strokeColor=#00FF00;fillColor=#000000;" vertex="1" parent="3qUbQweHZjMcJ-lY2vsP-3">
          <mxGeometry x="438" y="181" width="7" height="27" as="geometry" />
        </mxCell>
        <mxCell id="3qUbQweHZjMcJ-lY2vsP-60" value="" style="rounded=0;whiteSpace=wrap;html=1;strokeColor=#00FF00;fillColor=#000000;" vertex="1" parent="3qUbQweHZjMcJ-lY2vsP-3">
          <mxGeometry x="445" y="181" width="7" height="27" as="geometry" />
        </mxCell>
        <mxCell id="3qUbQweHZjMcJ-lY2vsP-61" value="" style="rounded=0;whiteSpace=wrap;html=1;strokeColor=#00FF00;fillColor=#000000;" vertex="1" parent="3qUbQweHZjMcJ-lY2vsP-3">
          <mxGeometry x="452" y="181" width="7" height="27" as="geometry" />
        </mxCell>
        <mxCell id="3qUbQweHZjMcJ-lY2vsP-62" value="" style="rounded=0;whiteSpace=wrap;html=1;strokeColor=#00FF00;fillColor=#000000;" vertex="1" parent="3qUbQweHZjMcJ-lY2vsP-3">
          <mxGeometry x="452" y="181" width="28" height="54" as="geometry" />
        </mxCell>
        <mxCell id="3qUbQweHZjMcJ-lY2vsP-63" value="" style="rounded=0;whiteSpace=wrap;html=1;strokeColor=none;fillColor=#000000;" vertex="1" parent="3qUbQweHZjMcJ-lY2vsP-3">
          <mxGeometry x="370" y="202" width="32" height="60" as="geometry" />
        </mxCell>
        <mxCell id="3qUbQweHZjMcJ-lY2vsP-64" value="" style="rounded=0;whiteSpace=wrap;html=1;rotation=-45;fontColor=#333333;strokeColor=none;fillColor=#000000;" vertex="1" parent="3qUbQweHZjMcJ-lY2vsP-3">
          <mxGeometry x="270.99" y="334.49" width="27" height="7" as="geometry" />
        </mxCell>
        <mxCell id="3qUbQweHZjMcJ-lY2vsP-65" value="" style="verticalLabelPosition=bottom;verticalAlign=top;html=1;shape=mxgraph.basic.orthogonal_triangle;strokeColor=#00FF00;fillColor=#000000;" vertex="1" parent="3qUbQweHZjMcJ-lY2vsP-3">
          <mxGeometry x="369" y="160" width="19" height="20" as="geometry" />
        </mxCell>
        <mxCell id="3qUbQweHZjMcJ-lY2vsP-66" value="" style="verticalLabelPosition=bottom;verticalAlign=top;html=1;shape=mxgraph.basic.orthogonal_triangle;strokeColor=none;fillColor=#000000;" vertex="1" parent="3qUbQweHZjMcJ-lY2vsP-3">
          <mxGeometry x="370" y="163" width="20" height="20" as="geometry" />
        </mxCell>
        <mxCell id="3qUbQweHZjMcJ-lY2vsP-75" value="" style="rounded=0;whiteSpace=wrap;html=1;strokeColor=#00FF00;fillColor=none;" vertex="1" parent="3qUbQweHZjMcJ-lY2vsP-3">
          <mxGeometry x="403" y="236" width="98" height="291" as="geometry" />
        </mxCell>
        <mxCell id="3qUbQweHZjMcJ-lY2vsP-76" value="" style="rounded=0;whiteSpace=wrap;html=1;fillColor=#000000;strokeColor=#00FF00;" vertex="1" parent="3qUbQweHZjMcJ-lY2vsP-3">
          <mxGeometry x="272" y="443" width="131" height="83" as="geometry" />
        </mxCell>
        <mxCell id="3qUbQweHZjMcJ-lY2vsP-77" value="" style="rounded=0;whiteSpace=wrap;html=1;fillColor=#000000;strokeColor=#005400;" vertex="1" parent="3qUbQweHZjMcJ-lY2vsP-3">
          <mxGeometry x="272" y="444" width="130" height="83" as="geometry" />
        </mxCell>
        <mxCell id="3qUbQweHZjMcJ-lY2vsP-78" value="" style="shape=card;whiteSpace=wrap;html=1;strokeWidth=1;fillColor=none;size=14;dashed=1;strokeColor=#00FF00;" vertex="1" parent="3qUbQweHZjMcJ-lY2vsP-3">
          <mxGeometry x="464" y="335" width="36" height="22" as="geometry" />
        </mxCell>
        <mxCell id="3qUbQweHZjMcJ-lY2vsP-79" value="" style="shape=card;whiteSpace=wrap;html=1;strokeWidth=1;fillColor=none;size=11;strokeColor=#00FF00;rotation=90;" vertex="1" parent="3qUbQweHZjMcJ-lY2vsP-3">
          <mxGeometry x="466.75" y="303.25" width="25" height="12.5" as="geometry" />
        </mxCell>
      </root>
    </mxGraphModel>
  </diagram>
  <diagram name="Floor 3" id="FhkHXdagZ_Y2dHpg9iAn">
    <mxGraphModel dx="1350" dy="804" grid="0" gridSize="10" guides="0" tooltips="1" connect="0" arrows="0" fold="1" page="1" pageScale="1" pageWidth="850" pageHeight="1100" background="#000000" math="0" shadow="0">
      <root>
        <mxCell id="OrrX195tjd1GbJ3mVZbj-0" />
        <mxCell id="OrrX195tjd1GbJ3mVZbj-3" value="Untitled Layer" parent="OrrX195tjd1GbJ3mVZbj-0" />
        <mxCell id="OrrX195tjd1GbJ3mVZbj-4" value="" style="rounded=0;whiteSpace=wrap;html=1;fillColor=#000000;strokeWidth=2;strokeColor=#666666;" vertex="1" parent="OrrX195tjd1GbJ3mVZbj-3">
          <mxGeometry x="254" y="89" width="265" height="382" as="geometry" />
        </mxCell>
        <mxCell id="OrrX195tjd1GbJ3mVZbj-5" value="" style="rounded=0;whiteSpace=wrap;html=1;fillColor=#000000;strokeColor=#006E00;" vertex="1" parent="OrrX195tjd1GbJ3mVZbj-3">
          <mxGeometry x="272" y="214" width="132" height="103" as="geometry" />
        </mxCell>
        <mxCell id="OrrX195tjd1GbJ3mVZbj-6" value="" style="rounded=0;whiteSpace=wrap;html=1;strokeColor=#00FF00;fillColor=#000000;" vertex="1" parent="OrrX195tjd1GbJ3mVZbj-3">
          <mxGeometry x="369" y="213" width="35" height="83" as="geometry" />
        </mxCell>
        <mxCell id="OrrX195tjd1GbJ3mVZbj-7" value="" style="rounded=0;whiteSpace=wrap;html=1;fillColor=#000000;strokeColor=#00FF00;" vertex="1" parent="OrrX195tjd1GbJ3mVZbj-3">
          <mxGeometry x="431" y="241" width="70" height="80" as="geometry" />
        </mxCell>
        <mxCell id="OrrX195tjd1GbJ3mVZbj-22" value="" style="rounded=0;whiteSpace=wrap;html=1;fillColor=#000000;strokeColor=#006E00;" vertex="1" parent="OrrX195tjd1GbJ3mVZbj-3">
          <mxGeometry x="293" y="115" width="56" height="28" as="geometry" />
        </mxCell>
        <mxCell id="OrrX195tjd1GbJ3mVZbj-23" value="" style="rounded=0;whiteSpace=wrap;html=1;strokeColor=#00FF00;fillColor=#000000;" vertex="1" parent="OrrX195tjd1GbJ3mVZbj-3">
          <mxGeometry x="272" y="144" width="97" height="97" as="geometry" />
        </mxCell>
        <mxCell id="OrrX195tjd1GbJ3mVZbj-24" value="" style="verticalLabelPosition=bottom;verticalAlign=top;html=1;shape=mxgraph.basic.orthogonal_triangle;strokeColor=#00FF00;fillColor=#000000;" vertex="1" parent="OrrX195tjd1GbJ3mVZbj-3">
          <mxGeometry x="369" y="164" width="19" height="20" as="geometry" />
        </mxCell>
        <mxCell id="OrrX195tjd1GbJ3mVZbj-25" value="" style="verticalLabelPosition=bottom;verticalAlign=top;html=1;shape=mxgraph.basic.orthogonal_triangle;strokeColor=none;fillColor=#000000;" vertex="1" parent="OrrX195tjd1GbJ3mVZbj-3">
          <mxGeometry x="368" y="164" width="18" height="20" as="geometry" />
        </mxCell>
        <mxCell id="OrrX195tjd1GbJ3mVZbj-26" value="" style="rounded=0;whiteSpace=wrap;html=1;strokeColor=#00FF00;fillColor=#000000;" vertex="1" parent="OrrX195tjd1GbJ3mVZbj-3">
          <mxGeometry x="369" y="185" width="21" height="28" as="geometry" />
        </mxCell>
        <mxCell id="OrrX195tjd1GbJ3mVZbj-27" value="" style="rounded=0;whiteSpace=wrap;html=1;strokeColor=#00FF00;fillColor=#000000;" vertex="1" parent="OrrX195tjd1GbJ3mVZbj-3">
          <mxGeometry x="390" y="212" width="7" height="28" as="geometry" />
        </mxCell>
        <mxCell id="OrrX195tjd1GbJ3mVZbj-28" value="" style="rounded=0;whiteSpace=wrap;html=1;strokeColor=#00FF00;fillColor=#000000;" vertex="1" parent="OrrX195tjd1GbJ3mVZbj-3">
          <mxGeometry x="397" y="212" width="7" height="28" as="geometry" />
        </mxCell>
        <mxCell id="OrrX195tjd1GbJ3mVZbj-29" value="" style="rounded=0;whiteSpace=wrap;html=1;strokeColor=#00FF00;fillColor=#000000;" vertex="1" parent="OrrX195tjd1GbJ3mVZbj-3">
          <mxGeometry x="404" y="212" width="7" height="28" as="geometry" />
        </mxCell>
        <mxCell id="OrrX195tjd1GbJ3mVZbj-30" value="" style="rounded=0;whiteSpace=wrap;html=1;strokeColor=#00FF00;fillColor=#000000;" vertex="1" parent="OrrX195tjd1GbJ3mVZbj-3">
          <mxGeometry x="411" y="212" width="7" height="28" as="geometry" />
        </mxCell>
        <mxCell id="OrrX195tjd1GbJ3mVZbj-31" value="" style="rounded=0;whiteSpace=wrap;html=1;strokeColor=#00FF00;fillColor=#000000;" vertex="1" parent="OrrX195tjd1GbJ3mVZbj-3">
          <mxGeometry x="418" y="212" width="7" height="28" as="geometry" />
        </mxCell>
        <mxCell id="OrrX195tjd1GbJ3mVZbj-32" value="" style="rounded=0;whiteSpace=wrap;html=1;strokeColor=#00FF00;fillColor=#000000;" vertex="1" parent="OrrX195tjd1GbJ3mVZbj-3">
          <mxGeometry x="425" y="212" width="7" height="28" as="geometry" />
        </mxCell>
        <mxCell id="OrrX195tjd1GbJ3mVZbj-33" value="" style="rounded=0;whiteSpace=wrap;html=1;strokeColor=#00FF00;fillColor=#000000;" vertex="1" parent="OrrX195tjd1GbJ3mVZbj-3">
          <mxGeometry x="432" y="212" width="7" height="28" as="geometry" />
        </mxCell>
        <mxCell id="OrrX195tjd1GbJ3mVZbj-34" value="" style="rounded=0;whiteSpace=wrap;html=1;strokeColor=#00FF00;fillColor=#000000;" vertex="1" parent="OrrX195tjd1GbJ3mVZbj-3">
          <mxGeometry x="439" y="212" width="7" height="28" as="geometry" />
        </mxCell>
        <mxCell id="OrrX195tjd1GbJ3mVZbj-35" value="" style="rounded=0;whiteSpace=wrap;html=1;strokeColor=#00FF00;fillColor=#000000;" vertex="1" parent="OrrX195tjd1GbJ3mVZbj-3">
          <mxGeometry x="446" y="212" width="7" height="28" as="geometry" />
        </mxCell>
        <mxCell id="OrrX195tjd1GbJ3mVZbj-36" value="" style="rounded=0;whiteSpace=wrap;html=1;strokeColor=#00FF00;fillColor=#000000;" vertex="1" parent="OrrX195tjd1GbJ3mVZbj-3">
          <mxGeometry x="390" y="185" width="7" height="28" as="geometry" />
        </mxCell>
        <mxCell id="OrrX195tjd1GbJ3mVZbj-37" value="" style="rounded=0;whiteSpace=wrap;html=1;strokeColor=#00FF00;fillColor=#000000;" vertex="1" parent="OrrX195tjd1GbJ3mVZbj-3">
          <mxGeometry x="397" y="185" width="7" height="28" as="geometry" />
        </mxCell>
        <mxCell id="OrrX195tjd1GbJ3mVZbj-38" value="" style="rounded=0;whiteSpace=wrap;html=1;strokeColor=#00FF00;fillColor=#000000;" vertex="1" parent="OrrX195tjd1GbJ3mVZbj-3">
          <mxGeometry x="404" y="185" width="7" height="28" as="geometry" />
        </mxCell>
        <mxCell id="OrrX195tjd1GbJ3mVZbj-39" value="" style="rounded=0;whiteSpace=wrap;html=1;strokeColor=#00FF00;fillColor=#000000;" vertex="1" parent="OrrX195tjd1GbJ3mVZbj-3">
          <mxGeometry x="411" y="185" width="7" height="28" as="geometry" />
        </mxCell>
        <mxCell id="OrrX195tjd1GbJ3mVZbj-40" value="" style="rounded=0;whiteSpace=wrap;html=1;strokeColor=#00FF00;fillColor=#000000;" vertex="1" parent="OrrX195tjd1GbJ3mVZbj-3">
          <mxGeometry x="418" y="185" width="7" height="28" as="geometry" />
        </mxCell>
        <mxCell id="OrrX195tjd1GbJ3mVZbj-41" value="" style="rounded=0;whiteSpace=wrap;html=1;strokeColor=#00FF00;fillColor=#000000;" vertex="1" parent="OrrX195tjd1GbJ3mVZbj-3">
          <mxGeometry x="425" y="185" width="7" height="28" as="geometry" />
        </mxCell>
        <mxCell id="OrrX195tjd1GbJ3mVZbj-42" value="" style="rounded=0;whiteSpace=wrap;html=1;strokeColor=#00FF00;fillColor=#000000;" vertex="1" parent="OrrX195tjd1GbJ3mVZbj-3">
          <mxGeometry x="432" y="185" width="7" height="28" as="geometry" />
        </mxCell>
        <mxCell id="OrrX195tjd1GbJ3mVZbj-43" value="" style="rounded=0;whiteSpace=wrap;html=1;strokeColor=#00FF00;fillColor=#000000;" vertex="1" parent="OrrX195tjd1GbJ3mVZbj-3">
          <mxGeometry x="439" y="185" width="7" height="28" as="geometry" />
        </mxCell>
        <mxCell id="OrrX195tjd1GbJ3mVZbj-44" value="" style="rounded=0;whiteSpace=wrap;html=1;strokeColor=#00FF00;fillColor=#000000;" vertex="1" parent="OrrX195tjd1GbJ3mVZbj-3">
          <mxGeometry x="446" y="185" width="7" height="28" as="geometry" />
        </mxCell>
        <mxCell id="OrrX195tjd1GbJ3mVZbj-45" value="" style="rounded=0;whiteSpace=wrap;html=1;strokeColor=#00FF00;fillColor=#000000;" vertex="1" parent="OrrX195tjd1GbJ3mVZbj-3">
          <mxGeometry x="453" y="185" width="27" height="55" as="geometry" />
        </mxCell>
        <mxCell id="OrrX195tjd1GbJ3mVZbj-67" value="" style="rounded=0;whiteSpace=wrap;html=1;strokeColor=#00FF00;fillColor=#000000;" vertex="1" parent="OrrX195tjd1GbJ3mVZbj-3">
          <mxGeometry x="404" y="365" width="97" height="84" as="geometry" />
        </mxCell>
        <mxCell id="OrrX195tjd1GbJ3mVZbj-68" value="" style="rounded=0;whiteSpace=wrap;html=1;strokeColor=#00FF00;fillColor=#000000;" vertex="1" parent="OrrX195tjd1GbJ3mVZbj-3">
          <mxGeometry x="404" y="261" width="27" height="104" as="geometry" />
        </mxCell>
        <mxCell id="OrrX195tjd1GbJ3mVZbj-69" value="" style="rounded=0;whiteSpace=wrap;html=1;strokeColor=#00FF00;fillColor=#000000;" vertex="1" parent="OrrX195tjd1GbJ3mVZbj-3">
          <mxGeometry x="431" y="321" width="70" height="44" as="geometry" />
        </mxCell>
        <mxCell id="OrrX195tjd1GbJ3mVZbj-70" value="" style="shape=card;whiteSpace=wrap;html=1;rotation=-90;size=13;strokeColor=#00FF00;fillColor=#000000;" vertex="1" parent="OrrX195tjd1GbJ3mVZbj-3">
          <mxGeometry x="470.24" y="242.39999999999998" width="32.16" height="28.38" as="geometry" />
        </mxCell>
        <mxCell id="OrrX195tjd1GbJ3mVZbj-71" value="" style="rounded=0;whiteSpace=wrap;html=1;strokeColor=#00FF00;fillColor=#000000;" vertex="1" parent="OrrX195tjd1GbJ3mVZbj-3">
          <mxGeometry x="389" y="241" width="42" height="20" as="geometry" />
        </mxCell>
        <mxCell id="OrrX195tjd1GbJ3mVZbj-72" value="" style="rounded=0;whiteSpace=wrap;html=1;dashed=1;strokeColor=#00FF00;fillColor=#000000;" vertex="1" parent="OrrX195tjd1GbJ3mVZbj-3">
          <mxGeometry x="432" y="241" width="40" height="18" as="geometry" />
        </mxCell>
        <mxCell id="OrrX195tjd1GbJ3mVZbj-73" value="" style="rounded=0;whiteSpace=wrap;html=1;dashed=1;strokeColor=#00FF00;fillColor=#000000;" vertex="1" parent="OrrX195tjd1GbJ3mVZbj-3">
          <mxGeometry x="452" y="302" width="48" height="18" as="geometry" />
        </mxCell>
        <mxCell id="OrrX195tjd1GbJ3mVZbj-74" value="" style="rounded=0;whiteSpace=wrap;html=1;strokeColor=#00FF00;fillColor=#000000;" vertex="1" parent="OrrX195tjd1GbJ3mVZbj-3">
          <mxGeometry x="431" y="301" width="20" height="20" as="geometry" />
        </mxCell>
      </root>
    </mxGraphModel>
  </diagram>
</mxfile>
